<?xml version="1.0" encoding="utf-8"?>
<!-- Generator: Adobe Illustrator 22.0.1, SVG Export Plug-In . SVG Version: 6.00 Build 0)  -->
<svg version="1.1" id="Layer_1" xmlns="http://www.w3.org/2000/svg" xmlns:xlink="http://www.w3.org/1999/xlink" x="0px" y="0px"
	 viewBox="0 0 370 300" style="enable-background:new 0 0 370 300;" xml:space="preserve">
<style type="text/css">
	.st0{fill:#F4EFDE;}
	.st1{fill:#D14B4C;}
	.st2{fill:#FFFFFF;}
	.st3{fill:#444C83;}
	.st4{display:none;fill:url(#SVGID_1_);}
	.st5{fill:#E08B44;}
	.st6{fill:#C8C7C7;}
	.st7{fill:#E0E8D8;stroke:#C8C7C7;stroke-width:1.1876;stroke-linecap:round;stroke-linejoin:round;stroke-miterlimit:10;}
	.st8{fill:#D9E1D3;}
	.st9{fill:#FAF0CF;stroke:#D6C181;stroke-width:1.1876;stroke-linecap:round;stroke-linejoin:round;stroke-miterlimit:10;}
	.st10{fill:none;stroke:#D1D6CC;stroke-width:3.5628;stroke-linecap:round;stroke-linejoin:round;stroke-miterlimit:10;}
	.st11{fill:none;stroke:#D1D6CC;stroke-width:3.4575;stroke-linecap:round;stroke-linejoin:round;stroke-miterlimit:10;}
	.st12{fill:#EAE2CE;stroke:#D6C181;stroke-width:1.1876;stroke-linecap:round;stroke-linejoin:round;stroke-miterlimit:10;}
	.st13{fill:#C6CCC0;stroke:#9AA9B5;stroke-width:0.5793;stroke-miterlimit:10;}
	.st14{fill:#C6CCC0;stroke:#9AA9B5;stroke-width:0.516;stroke-miterlimit:10;}
	.st15{fill:#C6CCC0;stroke:#9AA9B5;stroke-width:0.6126;stroke-miterlimit:10;}
	.st16{fill:#C6CCC0;stroke:#9AA9B5;stroke-width:0.4305;stroke-miterlimit:10;}
	.st17{fill:#C6CCC0;stroke:#9AA9B5;stroke-width:0.4993;stroke-miterlimit:10;}
	.st18{fill:#C6CCC0;stroke:#9AA9B5;stroke-width:0.5522;stroke-miterlimit:10;}
	.st19{fill:#C6CCC0;stroke:#9AA9B5;stroke-width:0.729;stroke-miterlimit:10;}
	.st20{fill:#C6CCC0;stroke:#9AA9B5;stroke-width:0.8;stroke-miterlimit:10;}
	.st21{fill:#C6CCC0;stroke:#9AA9B5;stroke-width:0.7089;stroke-miterlimit:10;}
	.st22{fill:#C6CCC0;stroke:#9AA9B5;stroke-width:0.5546;stroke-miterlimit:10;}
	.st23{fill:#C6CCC0;stroke:#9AA9B5;stroke-width:0.709;stroke-miterlimit:10;}
	.st24{fill:#C6CCC0;stroke:#9AA9B5;stroke-width:0.6255;stroke-miterlimit:10;}
	.st25{fill:#C6CCC0;stroke:#9AA9B5;stroke-width:0.5153;stroke-miterlimit:10;}
	.st26{fill:#E0E8D8;stroke:#C8C7C7;stroke-width:0.8516;stroke-linecap:round;stroke-linejoin:round;stroke-miterlimit:10;}
	.st27{fill:#E0E8D8;stroke:#D9E1D3;stroke-width:2.5549;stroke-linecap:round;stroke-linejoin:round;stroke-miterlimit:10;}
	.st28{fill:#FAF0CF;stroke:#D6C181;stroke-width:0.8516;stroke-linecap:round;stroke-linejoin:round;stroke-miterlimit:10;}
	.st29{fill:#C6CCC0;stroke:#9AA9B5;stroke-width:1.1558;stroke-linecap:round;stroke-linejoin:round;stroke-miterlimit:10;}
	.st30{fill:#C6CCC0;stroke:#9AA9B5;stroke-width:0.6587;stroke-linecap:round;stroke-linejoin:round;stroke-miterlimit:10;}
	.st31{fill:#C6CCC0;stroke:#9AA9B5;stroke-width:1.4562;stroke-linecap:round;stroke-linejoin:round;stroke-miterlimit:10;}
	.st32{fill:#C6CCC0;stroke:#9AA9B5;stroke-width:0.7466;stroke-linecap:round;stroke-linejoin:round;stroke-miterlimit:10;}
	.st33{fill:#C6CCC0;stroke:#9AA9B5;stroke-width:1.4092;stroke-linecap:round;stroke-linejoin:round;stroke-miterlimit:10;}
</style>
<g>
	<rect transform="matrix(-1 -1.224647e-16 1.224647e-16 -1 370 300)" class="st0" width="370" height="300"/>
</g>
<g>
	<g>
		<g>
			<path id="_x33__17_" class="st1" d="M244.6,94.9c18.6,3.6,37.1-14.8,55.7-17.6c3.2,12.1,6.3,24.7,9.5,38
				c-18.6-3.6-37.1,14.8-55.7,17.6C250.9,120.7,247.7,108.1,244.6,94.9z"/>
			<path id="_x32__20_" class="st2" d="M244.6,94.9c12.4,2.4,24.7-5,37.1-11c3.2,11.1,6.3,22.3,9.5,33.7
				c-12.4,4.6-24.7,13.4-37.1,15.2C250.9,120.7,247.7,108.1,244.6,94.9z"/>
			<path id="_x31__17_" class="st3" d="M244.6,94.9c6.2,1.2,12.4,0,18.6-2.3c3.2,11.4,6.3,22.6,9.5,33.7c-6.2,3-12.4,5.7-18.6,6.6
				C250.9,120.7,247.7,108.1,244.6,94.9z"/>
		</g>
		
			<linearGradient id="SVGID_1_" gradientUnits="userSpaceOnUse" x1="263.7938" y1="-115.8546" x2="304.854" y2="-112.2623" gradientTransform="matrix(1.4242 -0.3816 0.363 1.3549 -86.3912 368.1177)">
			<stop  offset="0" style="stop-color:#000000;stop-opacity:0.1"/>
			<stop  offset="2.732152e-02" style="stop-color:#060606;stop-opacity:0.1091"/>
			<stop  offset="6.511138e-02" style="stop-color:#181818;stop-opacity:0.1217"/>
			<stop  offset="0.109" style="stop-color:#363636;stop-opacity:0.1363"/>
			<stop  offset="0.1576" style="stop-color:#5F5F5F;stop-opacity:0.1525"/>
			<stop  offset="0.2099" style="stop-color:#939393;stop-opacity:0.17"/>
			<stop  offset="0.2646" style="stop-color:#D2D2D2;stop-opacity:0.1882"/>
			<stop  offset="0.3" style="stop-color:#FFFFFF;stop-opacity:0.2"/>
			<stop  offset="0.3251" style="stop-color:#DADADA;stop-opacity:0.2"/>
			<stop  offset="0.364" style="stop-color:#A7A7A7;stop-opacity:0.2"/>
			<stop  offset="0.4048" style="stop-color:#7B7B7B;stop-opacity:0.2"/>
			<stop  offset="0.4467" style="stop-color:#555555;stop-opacity:0.2"/>
			<stop  offset="0.49" style="stop-color:#363636;stop-opacity:0.2"/>
			<stop  offset="0.5351" style="stop-color:#1E1E1E;stop-opacity:0.2"/>
			<stop  offset="0.5829" style="stop-color:#0D0D0D;stop-opacity:0.2"/>
			<stop  offset="0.6351" style="stop-color:#030303;stop-opacity:0.2"/>
			<stop  offset="0.7" style="stop-color:#000000;stop-opacity:0.2"/>
			<stop  offset="0.843" style="stop-color:#FFFFFF;stop-opacity:5.000000e-02"/>
			<stop  offset="0.9959" style="stop-color:#000105;stop-opacity:0.2"/>
		</linearGradient>
		<path class="st4" d="M309.7,115.3c-18.6-3.6-37.1,14.8-55.7,17.6c-3.2-12.1-6.3-24.7-9.5-38c18.6,3.6,37.1-14.8,55.7-17.6
			C303.4,89.5,306.6,102,309.7,115.3z"/>
	</g>
</g>
<g>
	<path class="st5" d="M116.4,39.3c4-0.1,8.9-0.2,14.9-0.2c6,0,10.1,0.1,12.4,0.2c2.3,0.1,4.3,1,6.1,2.7c1.8,1.7,2.6,3.6,2.6,5.8
		c0,2.7-1.2,4.6-3.5,5.9c-0.2,0.1-0.3,0.3-0.3,0.5c0,0.2,0.1,0.3,0.3,0.4c1.7,0.4,3.1,1.4,4.2,2.9c1.1,1.5,1.7,3.2,1.7,5.2
		c0,2.5-1,4.8-2.9,6.9c-2,2-4.9,3.2-9,3.3c-4,0.2-6.9,0.3-8.7,0.3c-1.8,0-7.8,0-18-0.1c-0.9,0-1.7-0.3-2.3-0.9c-0.6-0.6-0.9-1.3-1-2
		c-0.3-2.8-0.4-6.9-0.4-12.3c0-5.4,0.1-10,0.3-13.8c0.1-1.6,0.4-2.7,0.8-3.4C114.2,39.7,115.1,39.3,116.4,39.3z M132.1,45.7l0,3.9
		c0,0.6,0.4,0.9,1.1,0.9c3.2,0,4.8-0.9,4.8-2.7c0-2.1-1.4-3.2-4.3-3.2c-0.2,0-0.4,0-0.5,0C132.5,44.7,132.1,45,132.1,45.7z
		 M132.2,58.9l0,6.2c0,0.3,0.1,0.5,0.3,0.7c0.2,0.2,0.4,0.3,0.8,0.3c2,0,3.6-0.4,4.8-1.2c1.3-0.8,1.9-2,1.9-3.6c0-1.6-0.7-2.8-2-3.4
		c-1.1-0.5-2.2-0.8-3.5-0.8c-0.3,0-0.6,0-1,0C132.6,57.3,132.2,57.9,132.2,58.9z"/>
	<path class="st5" d="M162.6,37.7h9.2c1.1,0,1.8,0.2,2.1,0.7c0.4,0.5,0.6,1.3,0.7,2.4c0.2,3.8,0.3,9.1,0.3,15.9s-0.1,11.4-0.4,14
		c-0.1,0.5-0.3,1-0.8,1.4c-0.4,0.4-1.2,0.7-2.4,0.7c-1.1,0.1-2.5,0.1-4,0.1s-2.9,0-4.1-0.1c-2.1-0.2-3.2-0.9-3.3-2.2
		c-0.3-2.8-0.5-7.7-0.5-14.8c0-7.1,0.1-12.1,0.4-15.1c0.1-1.1,0.3-1.9,0.6-2.4C160.9,38,161.6,37.7,162.6,37.7z"/>
	<path class="st5" d="M195.2,50.5l0,11.7c0,0.9,0.2,1.6,0.6,2.1c0.4,0.5,1,0.7,1.6,0.7c0.7,0,1.3-0.2,1.9-0.7c0.6-0.5,1-1.2,1.3-2
		v-2.9c0-4.2,0.1-7.1,0.3-8.6c0.1-0.5,0.4-1,0.8-1.4c0.4-0.4,1.2-0.7,2.4-0.7c1.1-0.1,2.3-0.1,3.4-0.1s3,0.1,5.7,0.2
		c0.8,0,1.4,0.3,1.8,0.7c0.4,0.4,0.7,0.9,0.8,1.4c0.2,2.1,0.3,5.3,0.3,9.6c0,4.3-0.1,7.2-0.2,8.8c-0.1,1.6-0.4,2.6-0.7,3.1
		c-0.4,0.5-1.1,0.7-2.2,0.7h-9.4c-1.1,0-1.8-0.2-2.2-0.7c-0.4-0.5-0.6-1.3-0.7-2.4v0c-3.3,2.5-6.6,3.8-10,3.8s-6-0.8-7.7-2.5
		c-1.7-1.7-2.6-4.1-2.7-7.1c0-3.1-0.1-5.8-0.1-8.2s0-4,0-4.8c0-0.8,0.2-1.4,0.6-1.8c0.4-0.4,1.2-0.6,2.3-0.6l9.2-0.1
		c1,0,1.7,0.2,2.1,0.6C195,49.2,195.2,49.8,195.2,50.5z"/>
	<path class="st5" d="M228.4,49.9c1.5-0.7,3-1.2,4.5-1.6c1.6-0.3,3.5-0.5,5.8-0.5c2.3,0,4.5,0.3,6.6,0.8c2.1,0.6,3.6,1.3,4.7,2.3
		c1.8,1.8,2.7,3.8,2.7,6.2c0,3.7-3.1,5.6-9.4,5.6c-2.2,0-4.5-0.2-6.9-0.6c0.1,2.1,0.5,3.6,1.2,4.5c0.7,0.9,1.9,1.3,3.7,1.3
		s3.2-0.2,4.4-0.6c1.2-0.4,2.1-0.8,2.8-1.2c0.7-0.4,1.3-0.6,1.8-0.6s0.9,0.2,1.3,0.7c0.5,0.6,0.8,1.4,0.8,2.4c0,1-0.2,1.7-0.6,2.1
		c-0.4,0.4-1,0.7-1.9,1.1c-3,1.3-7.4,1.9-13,1.9c-4.6,0-8.5-1.1-11.4-3.3c-3-2.2-4.5-5.2-4.5-9c0-1.8,0.3-3.5,1-5
		c0.7-1.5,1.6-2.8,2.7-3.8C225.6,51.4,226.9,50.6,228.4,49.9z M239.5,53.3c-2,0-3,1.6-3.2,4.8c1.5,0.1,2.3,0.2,2.4,0.2
		c2.1,0,3.2-0.7,3.2-2.1C241.9,54.2,241.1,53.3,239.5,53.3z"/>
</g>
<ellipse class="st6" cx="180.3" cy="227.5" rx="146.4" ry="42.5"/>
<g>
	<path class="st7" d="M135.1,249.4c0,0-23.5,1.2-37.4-11.9c-11.8-11.1-10.7-15-12.1-24.4s-1.5-37.6,3.1-46.3
		c4.5-8.7,10.9-16.2,24.2-21.8c13.3-5.6,44.3-8.6,65.7-1.5c26.6,8.9,28.3,26.6,29.5,46.2c1.6,24.9-1.4,37.1-10.4,44.6l-2.9,1.5
		c0,0,3.4-10.9,3.1-22.5c-0.3-11.6-4-25.6-4-25.6s-10.5-8.7-21.5-14.3c-11-5.6-21.9-8-21.9-8s-15,30.8-16.8,39.7
		c-1.8,8.7-1.6,21.8-0.5,29.8C134.1,242.8,135.1,249.4,135.1,249.4z"/>
	<path class="st8" d="M138.5,188.1c0,0-18-0.2-22.8-10.2c-4.9-9.9,1.1-23.2,12.6-26.9c11.5-3.6,33.5-6.5,47.3,4.8
		c13.8,11.4,3.6,21.1,3.6,21.1l-11.2-5.6l-17.6-6l-10.7,22.7H138.5z"/>
	<path class="st9" d="M149.6,217.7l0.2-52.8c0,0,20.1,6.3,25.9,10.2c5.8,3.9,17.2,12.8,17.2,12.8s3.7,14.8,4,24.3
		c0.3,10.1-2.9,23.6-2.9,23.6L149.6,217.7z"/>
	<path class="st10" d="M88.9,171.7c0,0,0.8,9.2,15.1,15.7c14.2,6.5,27,7,27,7"/>
	<path class="st11" d="M196.1,186.2c0,0,3.9-2.3,5-6.8c1.1-4.6,2.1-7.1-0.5-11.8c-2.6-4.8-2.6-4.8-2.6-4.8"/>
	<path class="st10" d="M86.8,198.1c0,0,0.2,11.6,1.1,16c1,4.4,4.9,13.6,10.7,18.6s13.8,11.1,13.8,11.1"/>
	<path class="st12" d="M135.1,249.4l15.1-31.2l-0.4-53.2l-14.2,32.6c0,0-3.7,10.9-3.6,21.1s1.8,22.7,1.8,22.7L135.1,249.4z"/>
	<path class="st13" d="M166.8,208.2c2.3,0.2,3.7,1.3,4-0.2s1-1,0-2.4c-1-1.4-1.4-1-0.3-2.1c1.1-1.1-0.3-1.3,1.3-1.7s1.3-0.4,1.7,1.2
		c0.5,1.7,1.4,2.2,1.2,2.8c-0.2,0.6-2.3-0.3-1.3,1.1c1,1.5,2.9,0.8,1.7,1.8s-1.3,1.3-2.3,1.5c-1.1,0.1-1.2-1.2-2.8,0.3
		s-1.9,2.1-2.6,1.1c-0.7-1,0-1.5-1-1.7C165.5,209.6,166.8,208.2,166.8,208.2z"/>
	<path class="st14" d="M134.6,217.9c1.4,0.3,2.2,1.8,2.4-0.3c0.2-2.1,0.6-1.4,0-3.3s-0.8-1.3-0.2-2.8c0.6-1.5-0.2-1.8,0.8-2.3
		s0.8-0.6,1,1.7s0.8,3,0.7,3.8c-0.1,0.8-1.3-0.5-0.8,1.5c0.6,2,1.7,1.1,1,2.4s-0.8,1.8-1.4,2c-0.6,0.2-0.7-1.7-1.6,0.4
		c-0.9,2.1-1.1,2.8-1.5,1.5c-0.4-1.3,0-2-0.6-2.3C133.9,219.8,134.6,217.9,134.6,217.9z"/>
	<path class="st15" d="M182.8,225.1c2.3,0.2,3.6,1.5,3.9-0.2c0.3-1.7,1-1.2,0-2.8c-1-1.6-1.3-1.1-0.3-2.4c1-1.3-0.3-1.5,1.3-2
		c1.6-0.5,1.3-0.5,1.7,1.4c0.4,1.9,1.4,2.5,1.2,3.2c-0.2,0.7-2.2-0.4-1.3,1.3c1,1.7,2.9,0.9,1.7,2.1c-1.2,1.1-1.3,1.5-2.3,1.7
		c-1,0.2-1.2-1.4-2.7,0.3c-1.6,1.7-1.9,2.4-2.5,1.3c-0.7-1.1,0-1.7-1-2C181.6,226.7,182.8,225.1,182.8,225.1z"/>
	<path class="st16" d="M144,188.2c1.1,0.2,1.8,1.5,1.9-0.2c0.1-1.7,0.5-1.2,0-2.8s-0.7-1.1-0.1-2.4c0.5-1.3-0.1-1.5,0.6-2
		c0.8-0.5,0.6-0.5,0.8,1.4c0.2,1.9,0.7,2.5,0.6,3.2s-1.1-0.4-0.6,1.3c0.5,1.7,1.4,0.9,0.8,2.1c-0.6,1.1-0.6,1.5-1.1,1.7
		c-0.5,0.2-0.6-1.4-1.4,0.3c-0.8,1.7-0.9,2.4-1.2,1.3c-0.3-1.1,0-1.7-0.5-2C143.3,189.7,144,188.2,144,188.2z"/>
	<path class="st17" d="M160.7,205.2c-0.2,0.9-0.1,1.6-1,2.1c-0.9,0.4-1.7,1.1-0.2,1.1c1.4,0,1.7-1,1.8-1.2s0.3-1.7,1.2-1.8
		c0.9-0.1,1-0.9,0.3-1.4c-0.7-0.5-1.7-1.3-1.2-1.8s2.4-1.2,1-1.9s-2.3-0.2-2.8,0.7c-0.5,0.9-0.4,1.6-1.5,1.3s-1.2,0.3-1.2,1.1
		s0.6,2.2,0.2,2.7c-0.4,0.5,0.2,1.2,1,0.4s2.1-1.6,2.1-1.6L160.7,205.2z"/>
	<path class="st17" d="M173.8,217.1c0.4-0.5,0.6-0.8,0.8-0.9c0.2-0.1,0.3,0,0.4,0.4c0.1,0.7-0.5,0.6,0.1,1.6s1.7,1,1.3,1.5
		c-0.4,0.5-1.2,0.8-1.9,0.8S173,222,173,222s-1.2,0.5-2.1,0.1c-0.9-0.4-0.9-0.4-1.7,0.2c-0.8,0.6-1.6-0.8-1-1.7s1.5-1.4,2.6-1.7
		s1.4-1.5,1.4-1.7s0.7-1.7,1.2-0.8C173.8,217.3,173.8,217.1,173.8,217.1z"/>
	<path class="st17" d="M167.4,192.5c1.5-0.4,1-1.7,1.6-0.7s1.4,2.3,1.7,1.7c0.2-0.6-0.3-1.5,1.1-1.5s2.3-0.8,2.2-1.2
		c-0.1-0.4-0.3-0.4-1.5-0.8s-1.2-0.7-1.5-0.8c-0.2-0.1-1,0-1.3,0.9c-0.2,0.9-0.9,0.8-2,0.7S167.4,192.5,167.4,192.5z"/>
	<path class="st18" d="M139,201c0.9-0.8,0.6-3.3,1-1.3c0.4,1.9,0.9,4.4,1.1,3.3s-0.2-2.8,0.7-2.8s1.5-1.5,1.4-2.3
		c0-0.8-0.2-0.8-0.9-1.6c-0.7-0.7-0.8-1.3-0.9-1.5s-0.7,0-0.8,1.8c-0.2,1.8-0.6,1.6-1.3,1.3C138.5,197.7,139,201,139,201z"/>
	<path class="st17" d="M178.9,206.3c1.2-1.5,1.8-1.2,1.8-0.9s-0.8,0.1-0.2,1.2s1.2,1.6,0.8,1.7c-0.4,0.1-1.2-1.8-2-1.3
		C178.5,207.4,178.9,206.3,178.9,206.3z"/>
	<path class="st19" d="M137.6,229.2c1.2-3.1,1.8-2.6,1.8-2s-0.8,0.3-0.2,2.6s1.2,3.5,0.8,3.6s-1.2-3.8-2-2.8
		S137.6,229.2,137.6,229.2z"/>
	<path class="st20" d="M184,191.6c-1.4-1.4,1.9-1.1,1.9-0.7s1.7,0.4-0.5,2.2c-2.3,1.9-3.2,3-3.3,2c-0.1-1.1-0.4-1,0.3-1.6
		C183.2,193,185,192.7,184,191.6z"/>
	<path class="st20" d="M157.7,182.1c1.3,1.3,2.5,1.4,2.5,0.4c0-1-2-1.3-0.2-2.2c1.8-1,2.5-0.7,2.9-1.2c0.4-0.5,1.4-1.6,0.5-2
		c-0.9-0.5-1.2-0.6-1.6-1.7c-0.4-1.1-1.5-1.6-2.3,0.4c-0.7,2-1.6,3.2-2.8,2.8c-1.1-0.4-2.7-0.8-2,0.7c0.6,1.5,1.9,1.4,2.5,1.4
		C157.6,180.6,157.7,182.1,157.7,182.1z"/>
	<path class="st21" d="M161.1,189.9c2.2-1,2.5-1.5,2.5-0.7c0,0.8-1.3,1.7-1.4,2.1s0.5,2.2,0.5,2.7c0.1,0.4-0.9,1.1-2.7,1.5
		c-1.8,0.3-4.1,2.8-4.1,2.8s-3.7-2.2-0.5-3.4s4-1.7,4-3.1c0-1.4-0.2-2.4-0.2-2.4S160.8,190.1,161.1,189.9z"/>
	<path class="st20" d="M188.4,201.8c0.5-1.8,1.8-1.5,1.8-0.4c0,1.1,1.7,2.9-1,2.7c-2.8-0.2-3.4-0.9-2.2-1.1
		C188.3,202.9,188.4,201.8,188.4,201.8z"/>
	<path class="st20" d="M162,215.7c0.5-1.8,1.8-1.5,1.8-0.4c0,1.1,1.7,2.9-1,2.7c-2.8-0.2-3.4-0.9-2.2-1.1
		C161.9,216.8,162,215.7,162,215.7z"/>
	<path class="st20" d="M172.4,184c-1.4,1.9-2.5,2.2-1.6,2.5c0.8,0.3,1.8-0.8,1.9-1.1c0.1-0.3,1.1,0.9,1.7,1s2.3-0.2,0.9-1.7
		c-1.3-1.5-0.7-2.6-1.4-2.7c-0.7-0.1-1.4-1.5-1.7,0.2C171.8,183.9,172.4,184,172.4,184z"/>
	<path class="st22" d="M145.5,204.8c-0.5,2.4-0.9,2.9-0.6,3.3c0.3,0.4,0.7-1,0.7-1.4c0-0.4,0.4,1.1,0.7,1.3s0.8-0.3,0.3-2.1
		c-0.5-1.9-0.3-3.4-0.5-3.5c-0.3-0.1-0.5-1.9-0.7,0.3C145.4,204.6,145.5,204.8,145.5,204.8z"/>
	<path class="st17" d="M153.2,210.8c-1.3,0.6-1.5,1.2-1.4,0.3c0.2-0.9,0.8-2.2,1-1.5c0.2,0.6,1.1,0.9,1.1,0.9s0.7-0.8,0.6,0.3
		c-0.1,1-0.2,3-0.6,2C153.6,211.6,153.2,210.8,153.2,210.8z"/>
	<path class="st23" d="M145.4,215.8c-1.2,1.2-1.5,2.5-1.3,0.7c0.2-1.9,0.8-4.5,0.9-3.2c0.2,1.3,1.1,1.9,1.1,1.9s0.6-1.6,0.5,0.5
		c-0.1,2.1-0.2,6.4-0.5,4.1S145.4,215.8,145.4,215.8z"/>
	<path class="st24" d="M174.5,196.7c0.4-0.5,1.7-1.9,1.5-0.7s-0.9,1-0.8,1.9c0.1,0.9-1.6,1.3-1.9,0.6
		C173,197.8,174.5,196.7,174.5,196.7z"/>
	<path class="st24" d="M142.1,205.7c0.4-0.5,1.7-1.9,1.5-0.7s-0.9,1-0.8,1.9c0.1,0.9-1.6,1.3-1.9,0.6
		C140.6,206.7,142.1,205.7,142.1,205.7z"/>
	<path class="st25" d="M180.4,199.6c0.2-0.5,1.2-1.9,1-0.7c-0.1,1.1-0.6,1-0.6,1.9c0.1,0.9-1.1,1.3-1.3,0.6
		C179.4,200.7,180.4,199.6,180.4,199.6z"/>
	<path class="st25" d="M181.9,216.5c0.2-0.5,1.2-1.9,1-0.7c-0.1,1.1-0.6,1-0.6,1.9s-1.1,1.3-1.3,0.6
		C180.9,217.5,181.9,216.5,181.9,216.5z"/>
	<path class="st25" d="M142.9,223.1c0.2-0.5,1.2-1.9,1-0.7c-0.1,1.1-0.6,1-0.6,1.9c0.1,0.9-1.1,1.3-1.3,0.6
		C141.9,224.1,142.9,223.1,142.9,223.1z"/>
	<path class="st25" d="M187.7,212.4c0.2-0.5,1.2-1.9,1-0.7c-0.1,1.1-0.6,1-0.6,1.9c0.1,0.9-1.1,1.3-1.3,0.6
		C186.7,213.5,187.7,212.4,187.7,212.4z"/>
</g>
<g>
	<path class="st26" d="M210.6,205.5c0,0,29.9-27,36.2-28.5s14.4-0.2,17.5,2.2c3.2,2.4,9,8.1,9,8.1L210.6,205.5z"/>
	<line class="st27" x1="264.6" y1="184.7" x2="230.1" y2="197.3"/>
	<path class="st28" d="M273.2,187.3c0,0,4,9.2,3.4,22.9c-0.6,13.6-2.6,23.3-2.6,23.3l-62.5,21.1l-1-49.2L273.2,187.3z"/>
	<path class="st29" d="M221.3,223.8c0.1-2.2-2.9-1.6-1.3-3.2c1.6-1.6,1.5-2.4,2.3-1c0.9,1.4,4.8,1.6,2.8,2.4c-2,0.9-2.8-0.3-2.2,1.3
		C223.5,225,221.3,223.8,221.3,223.8z"/>
	<path class="st29" d="M239.1,227.5c1.6-2.2,0.4-2.3,0.6-3.3c0.1-1,0.9-1.3,2.3,0.3c1.5,1.6,2.6,2.2,1.6,3c-1,0.9-3.3,3-3.2,1.4
		c0.1-1.6,0.7-2.7-0.1-2.2c-0.9,0.6-1.9,1.3-1.9,1.3L239.1,227.5z"/>
	<path class="st29" d="M220.3,242c1.3-3.7,1-5.4,1.2-6.5c0.1-1,0.9-1.6,0.9-1.6s-0.4-1.1,1.6,1.6c2,2.7,3.9,5,1.7,4.3
		c-2.2-0.7-1.7-2.4-1.7-2.4s-1.7-2.2-1.6,1.1c0.1,3.3,1.3,3.9,0.1,4.2c-1.2,0.3-1.7-0.1-1.7-0.1L220.3,242z"/>
	<path class="st29" d="M239.7,240.4c0.7-2,0-2.4,3.6-2.2c3.6,0.3,7.3-1.4,4.1-2.6c-3.2-1.1-3.5-0.7-3.9,0.1
		c-0.4,0.9-3.5-0.4-3.9-0.4c-0.4,0-2.3,0.7-2.2,1.1s0.4,0.6,1,1c0.6,0.4,1.2,0.4-0.1,2C236.9,241.1,239.7,240.4,239.7,240.4z"/>
	<path class="st30" d="M261.3,199.4c0.5-1,0-1.2,2.5-1s4.9-0.7,2.8-1.2s-2.4-0.3-2.7,0.1c-0.3,0.4-2.4-0.2-2.7-0.2s-1.6,0.3-1.5,0.6
		c0.1,0.2,0.3,0.3,0.7,0.5c0.4,0.2,0.8,0.2-0.1,1C259.4,199.7,261.3,199.4,261.3,199.4z"/>
	<path class="st29" d="M253.4,216.9c0.6-2.3,2-1.7,2.3-0.9c0.3,0.9-1.9,0.7-1,2.2s2.5,1.3,2.8,1.9s1,3.9,0.1,3.9s-1.7-2.7-1.7-2.7
		s-2.3,0.6-2.8,1.7c-0.4,1.1-1.2,3.6-1.6,1.1c-0.4-2.4-2.9-1.3-0.9-3.4c2-2.2,2.5-1.9,2.6-2.4S253.4,216.9,253.4,216.9z"/>
	<path class="st29" d="M260.9,208.2c1,2.2,1.7,2,1.7,2l-0.1-1.9L260.9,208.2z"/>
	<path class="st29" d="M252.1,205.3c-2.3,2.4-2.8,3.3-2.2,3.3s2.6-2.2,2.6-2.2l2.5-2.4l-3.1-1.7L252.1,205.3z"/>
	<path class="st31" d="M241.9,208.7c-0.2,0.2-0.3,0.3-0.5,0.5c-2.2,2.4-2.8,5.4-1.1,5.4c1.8,0,1.8,2.3,3.2-1.6
		c1.4-3.9,1.9-4.3,1.9-5.3c0-1,1.9,0.2-1.1-2.1c-3.1-2.3-4.8-2.7-3.4-0.4c1.4,2.3,1.6,3.1,1.6,3.1L241.9,208.7z"/>
	<path class="st32" d="M228.3,208.6c-0.1,0.1-0.2,0.2-0.3,0.2c-1.2,1.1-1.5,2.5-0.6,2.5c1,0,1,1.1,1.8-0.8c0.8-1.8,1.1-2,1.1-2.5
		c0-0.5,1.1,0.1-0.6-1s-2.7-1.3-1.9-0.2c0.8,1.1,0.9,1.4,0.9,1.4L228.3,208.6z"/>
	<path class="st33" d="M265.2,224.3c1-1.8,1.7-1.1,2.1-0.6c0.4,0.5,0.6,2.6,0.6,2.6l2.1-1l0.6,3.5c0,0,1.2,0-2.5-0.6
		c-3.7-0.6-4.2-1.3-3.5-1.9C265.3,225.6,265.2,224.3,265.2,224.3z"/>
	<path class="st29" d="M268.2,215.1c-2.2,1.4-2,2.3-2,2.3l2.2-1L268.2,215.1z"/>
	<path class="st29" d="M232.3,219.4c-0.4-1-0.3-3.2-0.3-3.2s2.2,0.1,1.9,1.4s-0.3,0.9-0.3,2C233.6,220.8,232.3,219.4,232.3,219.4z"
		/>
	<path class="st29" d="M229.5,227.9c-0.6,1.1-2,1.9-0.3,2.2c1.7,0.3,4.4-0.6,2.9-1.1s-2,0-2-0.4c0-0.4-0.1-1.1-0.1-1.1L229.5,227.9z
		"/>
	<path class="st29" d="M268.2,208.4c1,0.6,1.9,0.4,1.7-0.3c-0.1-0.7-0.7-3-1-1.7S268.2,208.4,268.2,208.4z"/>
	<path class="st29" d="M256,234.3c0.7-1.3,1.9-1,1.9-1s3.1,1.7,0.9,1.9C256.6,235.3,256,234.3,256,234.3z"/>
	<path class="st29" d="M231.7,243.7c0.3-1,1.5-0.9,1.5-0.9s0.4,0.9,0.4,1.4S231.7,243.7,231.7,243.7z"/>
	<path class="st29" d="M219.7,247.2c-2.5,0.9-2.8,1.3-1.7,1.4c1,0.1,2.9-0.1,2.9-1C220.9,246.8,219.7,247.2,219.7,247.2z"/>
	<path class="st29" d="M216.7,233.4c-0.9-2.6-0.9-3.6-0.9-3.6s2.5-0.1,2.2,0.7c-0.3,0.9-0.7,0.4-0.7,1.7
		C217.3,233.6,216.7,233.4,216.7,233.4z"/>
	<path class="st29" d="M216.8,218.6c-0.7-1.1-1.3-2.6,0-2.4c1.3,0.1,2.8-0.6,1.7,0.9C217.6,218.5,216.8,218.6,216.8,218.6z"/>
</g>
</svg>
