<?xml version="1.0" encoding="utf-8"?>
<!-- Generator: Adobe Illustrator 22.0.1, SVG Export Plug-In . SVG Version: 6.00 Build 0)  -->
<svg version="1.1" id="Layer_1" xmlns="http://www.w3.org/2000/svg" xmlns:xlink="http://www.w3.org/1999/xlink" x="0px" y="0px"
	 viewBox="0 0 370 300" style="enable-background:new 0 0 370 300;" xml:space="preserve">
<style type="text/css">
	.st0{fill:#F4EFDE;}
	.st1{fill:#D14B4C;}
	.st2{fill:#FFFFFF;}
	.st3{fill:#444C83;}
	.st4{display:none;fill:url(#SVGID_1_);}
	.st5{fill:#E08B44;}
	.st6{fill:#C8C7C7;}
	.st7{fill:#EEECE8;stroke:#A09A94;stroke-width:1.2403;stroke-linecap:round;stroke-linejoin:round;stroke-miterlimit:10;}
	.st8{fill:#F5F1CD;stroke:#A09A94;stroke-width:1.2403;stroke-miterlimit:10;}
	.st9{fill:#E6DFDA;}
	.st10{fill:none;stroke:#CAC4B4;stroke-width:1.2403;stroke-linecap:round;stroke-linejoin:round;stroke-miterlimit:10;}
	.st11{fill:#E3D3A4;stroke:#E3D3A4;stroke-width:4.044;stroke-linecap:round;stroke-linejoin:round;stroke-miterlimit:10;}
	.st12{fill:#E3D3A4;stroke:#E3D3A4;stroke-width:1.2403;stroke-miterlimit:10;}
	.st13{fill:#EEECE8;stroke:#A09A94;stroke-width:1.1837;stroke-linecap:round;stroke-linejoin:round;stroke-miterlimit:10;}
	.st14{fill:#F5F1CD;stroke:#A09A94;stroke-width:1.1837;stroke-linecap:round;stroke-linejoin:round;stroke-miterlimit:10;}
	.st15{fill:none;stroke:#CAC4B4;stroke-width:1.1837;stroke-linecap:round;stroke-linejoin:round;stroke-miterlimit:10;}
	.st16{fill:#E3D3A4;stroke:#E3D3A4;stroke-width:3.8594;stroke-linecap:round;stroke-linejoin:round;stroke-miterlimit:10;}
	.st17{fill:#E3D3A4;}
</style>
<g>
	<rect transform="matrix(-1 -1.224647e-16 1.224647e-16 -1 370 300)" class="st0" width="370" height="300"/>
</g>
<g>
	<g>
		<g>
			<path id="_x33__19_" class="st1" d="M247.5,93.9c18.6,3.6,37.1-14.8,55.7-17.6c3.2,12.1,6.3,24.7,9.5,38
				c-18.6-3.6-37.1,14.8-55.7,17.6C253.9,119.8,250.7,107.2,247.5,93.9z"/>
			<path id="_x32__22_" class="st2" d="M247.5,93.9c12.4,2.4,24.7-5,37.1-11c3.2,11.1,6.3,22.3,9.5,33.7
				c-12.4,4.6-24.7,13.4-37.1,15.2C253.9,119.8,250.7,107.2,247.5,93.9z"/>
			<path id="_x31__19_" class="st3" d="M247.5,93.9c6.2,1.2,12.4,0,18.6-2.3c3.2,11.4,6.3,22.6,9.5,33.7c-6.2,3-12.4,5.7-18.6,6.6
				C253.9,119.8,250.7,107.2,247.5,93.9z"/>
		</g>
		
			<linearGradient id="SVGID_1_" gradientUnits="userSpaceOnUse" x1="265.9052" y1="-115.9602" x2="306.9654" y2="-112.3679" gradientTransform="matrix(1.4242 -0.3816 0.363 1.3549 -86.3912 368.1177)">
			<stop  offset="0" style="stop-color:#000000;stop-opacity:0.1"/>
			<stop  offset="2.732152e-02" style="stop-color:#060606;stop-opacity:0.1091"/>
			<stop  offset="6.511138e-02" style="stop-color:#181818;stop-opacity:0.1217"/>
			<stop  offset="0.109" style="stop-color:#363636;stop-opacity:0.1363"/>
			<stop  offset="0.1576" style="stop-color:#5F5F5F;stop-opacity:0.1525"/>
			<stop  offset="0.2099" style="stop-color:#939393;stop-opacity:0.17"/>
			<stop  offset="0.2646" style="stop-color:#D2D2D2;stop-opacity:0.1882"/>
			<stop  offset="0.3" style="stop-color:#FFFFFF;stop-opacity:0.2"/>
			<stop  offset="0.3251" style="stop-color:#DADADA;stop-opacity:0.2"/>
			<stop  offset="0.364" style="stop-color:#A7A7A7;stop-opacity:0.2"/>
			<stop  offset="0.4048" style="stop-color:#7B7B7B;stop-opacity:0.2"/>
			<stop  offset="0.4467" style="stop-color:#555555;stop-opacity:0.2"/>
			<stop  offset="0.49" style="stop-color:#363636;stop-opacity:0.2"/>
			<stop  offset="0.5351" style="stop-color:#1E1E1E;stop-opacity:0.2"/>
			<stop  offset="0.5829" style="stop-color:#0D0D0D;stop-opacity:0.2"/>
			<stop  offset="0.6351" style="stop-color:#030303;stop-opacity:0.2"/>
			<stop  offset="0.7" style="stop-color:#000000;stop-opacity:0.2"/>
			<stop  offset="0.843" style="stop-color:#FFFFFF;stop-opacity:5.000000e-02"/>
			<stop  offset="0.9959" style="stop-color:#000105;stop-opacity:0.2"/>
		</linearGradient>
		<path class="st4" d="M312.7,114.3c-18.6-3.6-37.1,14.8-55.7,17.6c-3.2-12.1-6.3-24.7-9.5-38c18.6,3.6,37.1-14.8,55.7-17.6
			C306.4,88.5,309.5,101.1,312.7,114.3z"/>
	</g>
</g>
<g>
	<path class="st5" d="M138.4,39.3c4-0.1,8.9-0.2,14.9-0.2c6,0,10.1,0.1,12.4,0.2c2.3,0.1,4.3,1,6.1,2.7c1.8,1.7,2.6,3.6,2.6,5.8
		c0,2.7-1.2,4.6-3.5,5.9c-0.2,0.1-0.3,0.3-0.3,0.5c0,0.2,0.1,0.3,0.3,0.4c1.7,0.4,3.1,1.4,4.2,2.9c1.1,1.5,1.7,3.2,1.7,5.2
		c0,2.5-1,4.8-2.9,6.9c-2,2-4.9,3.2-9,3.3c-4,0.2-6.9,0.3-8.7,0.3c-1.8,0-7.8,0-18-0.1c-0.9,0-1.7-0.3-2.3-0.9c-0.6-0.6-0.9-1.3-1-2
		c-0.3-2.8-0.4-6.9-0.4-12.3c0-5.4,0.1-10,0.3-13.8c0.1-1.6,0.4-2.7,0.8-3.4C136.1,39.7,137,39.4,138.4,39.3z M154.1,45.8l0,3.9
		c0,0.6,0.4,0.9,1.1,0.9c3.2,0,4.8-0.9,4.8-2.7c0-2.1-1.4-3.2-4.3-3.2c-0.2,0-0.4,0-0.5,0C154.5,44.7,154.1,45.1,154.1,45.8z
		 M154.1,59l0,6.2c0,0.3,0.1,0.5,0.3,0.7c0.2,0.2,0.4,0.3,0.8,0.3c2,0,3.6-0.4,4.8-1.2c1.3-0.8,1.9-2,1.9-3.6c0-1.6-0.7-2.8-2-3.4
		c-1.1-0.5-2.2-0.8-3.5-0.8c-0.3,0-0.6,0-1,0C154.6,57.4,154.1,57.9,154.1,59z"/>
	<path class="st5" d="M184.6,48.4h9.4c1.1,0,1.8,0.2,2.3,0.7c0.4,0.5,0.6,1.2,0.6,2.1V53c1.8-3.4,4.7-5.1,8.7-5.1
		c1.3,0,2.4,0.4,3.3,1.3c0.9,0.9,1.3,2,1.3,3.5s-0.4,2.9-1.2,4.3c-0.8,1.4-1.8,2.1-3.2,2.1c-0.6,0-1.5-0.3-2.7-1
		c-1.2-0.7-2.1-1-2.8-1c-0.7,0-1.4,0.3-2.2,0.8c-0.8,0.5-1.1,1.4-1.1,2.5c0,5.2-0.1,8.6-0.3,10.2c-0.1,0.5-0.4,1-0.8,1.4
		c-0.4,0.4-1.2,0.7-2.4,0.7c-1.1,0.1-2.3,0.1-3.4,0.1c-1.1,0-3-0.1-5.7-0.2c-0.8,0-1.4-0.3-1.8-0.7c-0.4-0.4-0.7-0.9-0.8-1.4
		c-0.2-2.1-0.3-5.3-0.3-9.6c0-4.3,0.1-7.2,0.2-8.8s0.4-2.6,0.7-3.1C182.7,48.7,183.5,48.4,184.6,48.4z"/>
	<path class="st5" d="M219.6,49.9c1.5-0.7,3-1.2,4.5-1.6c1.6-0.3,3.5-0.5,5.8-0.5c2.3,0,4.5,0.3,6.6,0.8c2.1,0.6,3.6,1.3,4.7,2.3
		c1.8,1.8,2.7,3.8,2.7,6.2c0,3.7-3.1,5.6-9.4,5.6c-2.2,0-4.5-0.2-6.9-0.6c0.1,2.1,0.5,3.6,1.2,4.5c0.7,0.9,1.9,1.3,3.7,1.3
		c1.8,0,3.2-0.2,4.4-0.6c1.2-0.4,2.1-0.8,2.8-1.2c0.7-0.4,1.3-0.6,1.8-0.6c0.5,0,0.9,0.2,1.3,0.7c0.5,0.6,0.8,1.4,0.8,2.4
		c0,1-0.2,1.7-0.6,2.1c-0.4,0.4-1,0.7-1.9,1.1c-3,1.3-7.4,1.9-13,1.9c-4.6,0-8.5-1.1-11.4-3.3c-3-2.2-4.5-5.2-4.5-9
		c0-1.8,0.3-3.5,1-5c0.7-1.5,1.6-2.8,2.7-3.8C216.9,51.5,218.2,50.6,219.6,49.9z M230.8,53.3c-2,0-3,1.6-3.2,4.8
		c1.5,0.1,2.3,0.2,2.4,0.2c2.1,0,3.2-0.7,3.2-2.1C233.2,54.3,232.4,53.3,230.8,53.3z"/>
</g>
<ellipse class="st6" cx="182.7" cy="222.7" rx="146.8" ry="42.6"/>
<g>
	<path class="st7" d="M152.4,241c0,0,2.2-16.1,2.5-20.5c0.3-4.3-2.2-12.4-2.2-12.4l-43.4-5.9l-20.5-7.8l-9.6-14l2.5-13
		c0,0-7.4,7.1-7.8,9.6s-3.1,7.4-3.1,7.4s2.2,13.6,1.9,18.6s-3.1,10.9-1.2,14.6c1.9,3.7,16.4,15.5,28.5,18.9
		c12.1,3.4,49.3,5.9,49.3,5.9L152.4,241z"/>
	<path class="st8" d="M225,191.1c0,0-2.8,9.3-2.5,13.6c0.3,4.3,0.9,14.3,0.9,14.3l-2.8,1.6L166,209.4l-13.3-1.2l-6.8-28.8l25.1,5
		l2.5,3.4l7.4-2.8l9,4.7l9-1.9L225,191.1z"/>
	<path class="st7" d="M152.7,208.1c0,0-21.1-0.6-24.5-0.6c-3.4,0-9.3,0-9.3,0l-2.2,1.6l-1.6-3.1c0,0-13.3-3.4-15.2-4
		c-1.9-0.6-7.1-4-7.1-4l-4.3,2.5v-4c0,0-3.1-3.1-4.7-5.3c-1.6-2.2-6.2-4.7-6.2-4.7l-2.8,1.2l2.5-4l-0.9-5.9c0,0,2.5-2.8,3.1-5
		c0.6-2.2,2.2-5.3,2.2-5.3s21.1-13.6,40.6-17.1s32.2-4,35.3-3.1c3.1,0.9,5.9,2.2,5.9,2.2h4c0,0,9.9-0.6,14,0.3c4,0.9,10.9,5,10.9,5
		s9.6,0.3,14.9,2.8s7.8,8.4,7.8,8.4s9,7.1,9.6,9.9c0.6,2.8,0.3,15.2,0.3,15.2s-23.6-3.7-26-3.4s-7.4,1.2-7.4,1.2s-8.7-4.3-10.5-4
		c-1.9,0.3-6.8,1.6-6.8,1.6l-3.1-2.2l-25.1-5L152.7,208.1z"/>
	<path class="st9" d="M148,189.7c0,0-19-1.2-32.2-0.2c-3.3,0.2-5.7-1.6-6.8-3.1c-5-6.6,6.8-15.6,12-16.3c10.5-1.4,37.4-7.9,49-3.9
		c11.6,3.9,22.2,3.5,24.8,7.4c3,4.6-11.6,10.9-14.5,11l-6.6,2.3l-2.1-3.1l-9.5-1.2l-17-3.5L148,189.7z"/>
	<path class="st10" d="M88.2,199.4c0,0,54.6-19.4,60.8-23.2c6.2-3.7,43.4-21.5,43.4-21.5"/>
	<path class="st10" d="M174.1,186.4c-0.3-1.4,6.5-5.2,12.7-6.8c6.2-1.7,24.4-8.9,25.6-10.3c1.2-1.4,1.7-3.5,1.7-3.5"/>
	<path class="st10" d="M163.6,149.5c0,0-19.5,11.5-29.3,14.6c-9.7,3.1-29.6,8.5-35.6,10.7s-23.9,12.8-23.9,12.8"/>
	<path class="st10" d="M104.1,180.8c5.8-0.6,7.9,1.4,14.5,2.1c6.6,0.6,7.6,0.6,7.6,0.6"/>
	<path class="st10" d="M121.1,173.8c10.5,0.2,14.5,1.9,15.7,1.9c1.2,0,13-1.9,13-1.9"/>
	<path class="st10" d="M140.1,166.6c8.5-0.4,24.6-2.9,24.6-2.9l3.9-0.2"/>
	<path class="st10" d="M172.8,170.7c7.2,1,15.3,4.8,15.3,4.8l3.7,0.2"/>
	<path class="st10" d="M186.8,164.5c7.4,1.7,11.6,0,14.1,0.8c2.5,0.8,5.8,2.5,5.8,2.5"/>
	<path class="st10" d="M162.2,175.4c6.4,0,11,0.8,13,2.1c2.1,1.2,6,2.1,6,2.1"/>
	<path class="st10" d="M113,195.7c10.5-0.8,14.1-1.9,16.5-1.7c2.5,0.2,6.2,1.7,8.5,1.7s5-0.2,5-0.2"/>
	<path class="st10" d="M116.7,209c0,0,6.6-6.3,9.9-6.3s22.5-6,22.5-6"/>
	<path class="st10" d="M91.7,185.4c10.3,0.6,17.2-1.2,17.8-1.2s8.1,1.9,8.1,1.9"/>
	<path class="st10" d="M161,156c5.6-1,12.6-0.2,12.6-0.2l7.2,1.7"/>
	<path class="st10" d="M131.2,152.7c8.7,0,14.9-1.4,16.1-1c1.2,0.4,3.9,2.1,3.9,2.1"/>
	<path class="st10" d="M114.7,158.1c10.1-0.4,9.9-2.9,15.7-0.8c5.8,2.1,7.6,2.5,7.6,2.5"/>
	<path class="st10" d="M98.8,162.2c6-1,9.7-1.4,12.4-0.4s6.6,2.9,8.9,3.1c2.3,0.2,3.7,0.2,3.7,0.2"/>
	<path class="st10" d="M86.8,170.1c8.1-0.6,11.2-0.2,13,0c1.9,0.2,4.1,0.2,4.1,0.2"/>
	<path class="st11" d="M220.8,193c-1,4.8-1.7,13.2-1.7,13.9s0.7,11.2,0.7,11.2"/>
	<ellipse class="st12" cx="161.8" cy="195.4" rx="0.6" ry="0.9"/>
	<ellipse class="st12" cx="179.9" cy="199.1" rx="0.5" ry="1.1"/>
	<ellipse class="st12" cx="201.9" cy="196.5" rx="1.2" ry="0.6"/>
	<ellipse class="st12" cx="205.7" cy="207.7" rx="0.9" ry="1.2"/>
	<ellipse class="st12" cx="214.8" cy="200.4" rx="0.7" ry="0.1"/>
	<ellipse class="st12" cx="191.8" cy="207.3" rx="0.4" ry="0.6"/>
	<ellipse class="st12" cx="170.8" cy="204.8" rx="0.7" ry="0.4"/>
	<path class="st9" d="M79.2,210.7c-0.4,7.4-2.3,11.4-2.3,11.4s11.6,10.1,18,12.2c6.4,2.1,3.9-9.3,3.7-15.1
		c-0.2-5.8,2.8-15.6,2.8-15.6l-8.2-4.8l-5.6,1.1l-0.4-3.8l-7.5-7.9C79.7,188.3,79.6,203.3,79.2,210.7z"/>
</g>
<g>
	<path class="st13" d="M270.7,174.8c-1,2.2-4.9,18.7-6.5,22.3c-1.6,3.6-7.9,12.6-7.9,12.6s-1,13.8-3.9,18c-3,4.1-9.1,13.2-9.1,13.2
		s19.9,1.2,37.3-6.7c17.4-7.9,23.5-18.3,23.5-18.3s-5.1-1.6-5.5-4.1c-0.4-2.6-1.8-7.9-4.1-11c-2.4-3.2-8.3-5.9-8.3-5.9
		s1-3.2-1.2-5.9S270.7,174.8,270.7,174.8z"/>
	<path class="st14" d="M221.4,226.6c0,0,6.3-9.1,7.3-11.4s4.7-14.2,6.5-17.6c1.8-3.4,7.9-14.6,10.9-19.3s4.9-12.2,4.9-12.2l18.9,8.7
		c0,0-3.4,11.6-3.6,14s0,4.3-2.2,8.3c-2.2,3.9-7.9,12.6-7.9,12.6s-0.2,12-2.2,15.2c-2,3.2-10.9,16-10.9,16s-6.9-6.3-10.9-8.9
		c-3.9-2.6-10.3-3.7-10.3-3.7L221.4,226.6z"/>
	<path class="st15" d="M285.1,194.5c0,0-4.3,4.5-11,7.7c-6.7,3.2-17.8,7.5-17.8,7.5"/>
	<path class="st15" d="M297.9,213c0,0-12,5.1-15.8,7.3c-3.7,2.2-24.1,16-26.6,17.6c-2.6,1.6-3.4,1.8-3.4,1.8l-2.6,1.2"/>
	<path class="st15" d="M266,208.9c3.9,4.5,4.5,2,3.9,9.5s-0.8,8.3-0.8,8.3"/>
	<path class="st15" d="M278.6,203c2,5.3,4.1,6.9,3.7,10.5c-0.4,3.6-0.4,4.3-0.4,4.3"/>
	<path class="st15" d="M288.3,220.1c-1.6,4.7-1.6,8.5-1.6,8.5"/>
	<path class="st15" d="M276.2,227.8c-0.6,3.9-1,6.1-1,6.1"/>
	<path class="st15" d="M272.9,184.2c3.2,5.5,3.6,7.3,3.6,9.5c0,2.2-0.4,4.5-0.4,4.5"/>
	<path class="st16" d="M226.1,225.3c3.6,1,7.7,3.2,9.3,4.9c1.6,1.8,6.7,5.5,6.7,5.5"/>
	<ellipse class="st17" cx="245.5" cy="198.4" rx="1.3" ry="1.4"/>
	<ellipse class="st17" cx="234.1" cy="215.9" rx="0.5" ry="1.5"/>
	<ellipse class="st17" cx="258.2" cy="186" rx="0.9" ry="1.6"/>
	<ellipse class="st17" cx="251.4" cy="180.9" rx="1.2" ry="1.6"/>
	<ellipse class="st17" cx="252.6" cy="205.6" rx="0.4" ry="1.3"/>
	<ellipse class="st17" cx="247" cy="225.7" rx="0.8" ry="1.2"/>
	<circle class="st17" cx="244.9" cy="213.8" r="1.2"/>
	<ellipse class="st17" cx="237.8" cy="205.6" rx="0.6" ry="0.9"/>
</g>
</svg>
