<?xml version="1.0" encoding="utf-8"?>
<!-- Generator: Adobe Illustrator 22.0.1, SVG Export Plug-In . SVG Version: 6.00 Build 0)  -->
<svg version="1.1" id="Layer_1" xmlns="http://www.w3.org/2000/svg" xmlns:xlink="http://www.w3.org/1999/xlink" x="0px" y="0px"
	 viewBox="0 0 370 300" style="enable-background:new 0 0 370 300;" xml:space="preserve">
<style type="text/css">
	.st0{fill:#F4EFDE;}
	.st1{fill:#FFFFFF;}
	.st2{fill:#C34D45;}
	.st3{fill:#3D4472;}
	.st4{display:none;}
	.st5{display:inline;fill:url(#SVGID_1_);}
	.st6{fill:#C8C7C7;}
	.st7{fill:#FAE5B4;stroke:#EFBE6A;stroke-width:1.1635;stroke-linecap:round;stroke-linejoin:round;stroke-miterlimit:10;}
	.st8{fill:#F7D47D;stroke:#FAE5B4;stroke-width:1.1635;stroke-linecap:round;stroke-linejoin:round;stroke-miterlimit:10;}
	.st9{fill:#EFBE6A;stroke:#E29451;stroke-width:1.1635;stroke-linecap:round;stroke-linejoin:round;stroke-miterlimit:10;}
	.st10{fill:#E9A95A;stroke:#E29451;stroke-width:1.1635;stroke-linecap:round;stroke-linejoin:round;stroke-miterlimit:10;}
	.st11{fill:none;stroke:#E9A95A;stroke-width:1.1635;stroke-linecap:round;stroke-linejoin:round;stroke-miterlimit:10;}
	.st12{fill:none;stroke:#E29451;stroke-width:1.1635;stroke-linecap:round;stroke-linejoin:round;stroke-miterlimit:10;}
	.st13{fill:#FAE5B4;stroke:#EECFA5;stroke-width:1.1635;stroke-linecap:round;stroke-linejoin:round;stroke-miterlimit:10;}
	.st14{fill:none;stroke:#EECFA5;stroke-width:1.5402;stroke-linecap:round;stroke-linejoin:round;stroke-miterlimit:10;}
	.st15{fill:#E9A95A;}
	.st16{fill:#EBB161;stroke:#E29451;stroke-width:1.1635;stroke-linecap:round;stroke-linejoin:round;stroke-miterlimit:10;}
	.st17{fill:#E9A956;}
	.st18{fill:#E29451;}
	.st19{fill:none;stroke:#FAE5B4;stroke-width:1.1635;stroke-linecap:round;stroke-linejoin:round;stroke-miterlimit:10;}
	.st20{fill:#E29451;stroke:#E29451;stroke-width:1.1635;stroke-linecap:round;stroke-linejoin:round;stroke-miterlimit:10;}
	.st21{fill:none;stroke:#EECFA5;stroke-width:1.1635;stroke-linecap:round;stroke-linejoin:round;stroke-miterlimit:10;}
	.st22{fill:#E08B44;}
</style>
<g>
	<rect transform="matrix(-1 -1.224647e-16 1.224647e-16 -1 370 300)" class="st0" width="370" height="300"/>
</g>
<g>
	<g>
		<g>
			<path id="_x31_4_7_" class="st1" d="M302,121.9c-16.2-3.2-32.3,18.7-48.5,21.4c-2.2-12.2-4.3-24.7-6.5-37.7
				c16.2,3.2,32.3-18.7,48.5-21.4C297.6,96.4,299.8,108.9,302,121.9z"/>
			<path id="_x31_3_7_" class="st2" d="M272.7,118.7c0.9,4.4,1.7,8.9,2.6,13.3c1.6-1.1,3.2-2.2,4.8-3.2c-0.9-4.5-1.7-8.9-2.6-13.4
				c7.3-4.9,14.5-9.2,21.8-8.9c-0.4-2.5-0.9-5-1.3-7.5c-7.3,0.2-14.5,4.8-21.8,9.8c-0.9-4.4-1.7-8.9-2.6-13.3
				c-1.6,1.1-3.2,2.2-4.8,3.2c0.9,4.5,1.7,8.9,2.6,13.3c-7.3,4.9-14.5,9.2-21.8,8.9c0.4,2.5,0.9,5,1.3,7.5
				C258.2,128.3,265.4,123.7,272.7,118.7z"/>
			<path id="_x31_2_7_" class="st3" d="M277.4,105.2c-0.7-3.6-1.4-7.2-2.1-10.8c5.2-3.6,10.5-7.1,15.7-9
				C286.4,91.1,281.9,98,277.4,105.2z"/>
			<path id="_x31_1_7_" class="st3" d="M279.7,116.9c0.7,3.6,1.4,7.2,2.1,10.8c5.2-3.2,10.5-5.8,15.7-6.1
				C291.5,118,285.6,117.1,279.7,116.9z"/>
			<path id="_x31_0_7_" class="st3" d="M271.6,122.4c0.7,3.6,1.4,7.2,2.1,10.8c-5.2,3.6-10.5,7.1-15.7,9
				C262.5,136.4,267.1,129.5,271.6,122.4z"/>
			<path id="_x39__7_" class="st3" d="M269.3,110.6c-0.7-3.6-1.4-7.2-2.1-10.8c-5.2,3.2-10.5,5.8-15.7,6.1
				C257.4,109.6,263.4,110.4,269.3,110.6z"/>
			<path id="_x38__7_" class="st3" d="M247.6,109.2c0.5,3.1,1,6.2,1.6,9.2c3.9,0.3,7.8-0.8,11.7-2.6
				C256.4,114.8,252,112.9,247.6,109.2z"/>
			<path id="_x37__7_" class="st3" d="M296.1,87.6c0.5,2.9,1,5.9,1.6,8.9c-3.9,0.2-7.8,1.7-11.7,3.7
				C289.4,95.4,292.7,91.1,296.1,87.6z"/>
			<path id="_x36__7_" class="st3" d="M301.4,118.3c-0.5-3.1-1-6.2-1.6-9.2c-3.9-0.3-7.8,0.8-11.7,2.6
				C292.6,112.7,297,114.6,301.4,118.3z"/>
			<path id="_x35__7_" class="st3" d="M252.9,139.9c-0.5-2.9-1-5.9-1.6-8.9c3.9-0.2,7.8-1.7,11.7-3.7
				C259.6,132.1,256.3,136.4,252.9,139.9z"/>
			<path id="_x34__7_" class="st2" d="M295.5,84.2c-0.9,0.2-1.8,0.4-2.7,0.6c-4.7,5.5-9.3,12.5-14,19.7c0.9-0.6,1.8-1.2,2.7-1.7
				C286.2,95.7,290.8,89.2,295.5,84.2"/>
			<path id="_x33__13_" class="st2" d="M270.2,123c-0.9,0.6-1.8,1.2-2.7,1.7c-4.7,7.1-9.3,13.7-14,18.6c0.9-0.2,1.8-0.4,2.7-0.6
				C260.9,137.1,265.5,130.2,270.2,123"/>
			<path id="_x32__14_" class="st2" d="M262.6,114.9c0.9-0.5,1.8-1,2.7-1.5c-6.1-0.6-12.2-2.4-18.3-7.8c0.1,0.7,0.2,1.5,0.4,2.2
				C252.5,112.2,257.5,114.1,262.6,114.9z"/>
			<path id="_x31__13_" class="st2" d="M286.3,112.6c-0.9,0.5-1.8,1-2.7,1.5c6.1,0.6,12.2,2.4,18.3,7.8c-0.1-0.7-0.2-1.5-0.4-2.2
				C296.5,115.4,291.4,113.4,286.3,112.6z"/>
		</g>
	</g>
	<g class="st4">
		
			<linearGradient id="SVGID_1_" gradientUnits="userSpaceOnUse" x1="353.402" y1="-2.7059" x2="404.8415" y2="1.7945" gradientTransform="matrix(0.9659 -0.2588 0.2588 0.9659 -91.5855 212.3216)">
			<stop  offset="0" style="stop-color:#000000;stop-opacity:0.1"/>
			<stop  offset="2.732152e-02" style="stop-color:#060606;stop-opacity:0.1091"/>
			<stop  offset="6.511138e-02" style="stop-color:#181818;stop-opacity:0.1217"/>
			<stop  offset="0.109" style="stop-color:#363636;stop-opacity:0.1363"/>
			<stop  offset="0.1576" style="stop-color:#5F5F5F;stop-opacity:0.1525"/>
			<stop  offset="0.2099" style="stop-color:#939393;stop-opacity:0.17"/>
			<stop  offset="0.2646" style="stop-color:#D2D2D2;stop-opacity:0.1882"/>
			<stop  offset="0.3" style="stop-color:#FFFFFF;stop-opacity:0.2"/>
			<stop  offset="0.3251" style="stop-color:#DADADA;stop-opacity:0.2"/>
			<stop  offset="0.364" style="stop-color:#A7A7A7;stop-opacity:0.2"/>
			<stop  offset="0.4048" style="stop-color:#7B7B7B;stop-opacity:0.2"/>
			<stop  offset="0.4467" style="stop-color:#555555;stop-opacity:0.2"/>
			<stop  offset="0.49" style="stop-color:#363636;stop-opacity:0.2"/>
			<stop  offset="0.5351" style="stop-color:#1E1E1E;stop-opacity:0.2"/>
			<stop  offset="0.5829" style="stop-color:#0D0D0D;stop-opacity:0.2"/>
			<stop  offset="0.6351" style="stop-color:#030303;stop-opacity:0.2"/>
			<stop  offset="0.7" style="stop-color:#000000;stop-opacity:0.2"/>
			<stop  offset="0.843" style="stop-color:#FFFFFF;stop-opacity:5.000000e-02"/>
			<stop  offset="0.9959" style="stop-color:#000105;stop-opacity:0.2"/>
		</linearGradient>
		<path class="st5" d="M302,121.9c-16.2-3.2-32.3,18.7-48.5,21.4c-2.2-12.2-4.3-24.7-6.5-37.7c16.2,3.2,32.3-18.7,48.5-21.4
			C297.7,96.4,299.8,108.9,302,121.9z"/>
	</g>
</g>
<ellipse class="st6" cx="184.5" cy="224.1" rx="144.3" ry="41.9"/>
<g>
	<line class="st7" x1="303.5" y1="169.1" x2="248.3" y2="177"/>
	<path class="st8" d="M302.9,169.8l-14.4,2l-3.1,1l-6.6,0.1l-47.8,4.4l38.8,8.9l2.6,3.5l5.2-1.9l8.7-1.7c0,0,6.7-1.6,11.6-7.1
		C303,173.4,302.9,169.8,302.9,169.8z"/>
	<path class="st9" d="M230.9,177.4l2.9,48.4l58.8,15.1c0,0-6.5-28-5.6-34.7s0-19.5,0-19.5l-8.7,1.7l-5.8,2.3l-3.2-3.5l-7.7-2.2
		L230.9,177.4z"/>
	<path class="st10" d="M292.1,240.9c0.4,0.2,0.4,0.5,1.4,0.1c1-0.4,5.2-1.6,8.3-6.1c3.1-4.5,5.6-12.4,5.6-12.4l-3.9-52.6
		c0,0-1,5.8-5.6,10.3c-4.7,4.5-10.9,6.1-10.9,6.1s1.4,15.4,0.6,17.9c-0.8,2.5,0.8,19.2,0.8,19.2L292.1,240.9z"/>
	<polyline class="st11" points="241.5,219.5 245,222.1 247.7,221.2 248.7,222.4 	"/>
	<polyline class="st12" points="241.3,218.5 244.8,221.1 247.5,220.2 248.5,221.4 	"/>
	<polyline class="st13" points="294.2,220.8 298.5,220.4 300,217.9 301.5,218.1 	"/>
	<polyline class="st12" points="293.4,220.2 297.7,219.8 299.2,217.3 300.7,217.5 	"/>
	<path class="st14" d="M271.9,220.8c3.3-0.6,3.3,2.3,3.3,2.3l-2.7,1.5"/>
	<path class="st12" d="M271.8,220.6c2.5-0.4,2.5,1.7,2.5,1.7l-2,1.2"/>
	<path class="st12" d="M245.9,194.3c-0.3,1.3,2,1.6,2,1.6l1-2.2"/>
</g>
<g>
	<polygon class="st9" points="161.5,213.9 198.9,225.3 198.2,216.6 197.7,192 198.3,179.3 199.7,165.7 199.9,163.8 168.1,152.9 
		148.6,148.4 	"/>
	<polygon class="st15" points="151.7,149.6 181.2,168 180.6,219.2 161.5,213.9 	"/>
	<path class="st16" d="M70.5,154.3c0,0,15.3,13.4,45.6,14c30.3,0.6,49.6-1.2,50.2,0c0.6,1.2-1,12-1.9,15.7c-1,3.7-3.1,20.6-2.9,25.8
		c0.2,5.2-0.2,19.4,0.2,21.7c0.4,2.3,1.4,1.4,0.2,4.7c-1.2,3.2-28.7,0.2-33.7,0c-5-0.2-14.4-1.2-14.4-1.2l-3.1-1.7l-3.5,0.2
		c0,0-20.7-5.8-25.8-8.7c-5-2.9-10.9-8.5-10.9-12s2.7-16.9,2.7-21.1s-0.6-10.7-0.6-10.7l3.1,0.4l-2.7-2.7l-0.4-11.2l1.4-1.7
		l-1.9-2.8L70.5,154.3z"/>
	<polygon class="st17" points="118.8,168.6 144.2,168.6 163,169 162.6,180.4 158.3,206.6 158.5,229.9 158.5,237.1 140.1,236.9 
		118.4,235.9 112.9,234.2 114.1,221.4 116.2,220 113.1,219 115.7,217.3 115.9,206.6 118.2,201.8 117.6,194.8 115.3,185.9 116.6,180 
		117.4,172.9 	"/>
	<polygon class="st18" points="80.4,140.3 87.1,138.5 90.7,140.7 88.1,143.2 	"/>
	<polygon class="st18" points="186.1,138.1 192.7,136.3 196.4,138.5 193.8,141 	"/>
	<polygon class="st18" points="169.5,135.5 176.2,133.8 179.8,135.9 177.2,138.5 	"/>
	<polygon class="st18" points="165,152 171.9,148.6 175.6,150.8 173,153.3 	"/>
	<path class="st8" d="M86.7,138.9l1.1,1.2h3.4l-2.3,1.4h-2.3l-2.8-1.3c0,0-7.5,0.8-9.6,3.7c-2.1,2.9-3.8,4.1-3.8,7.2
		c0,3.1,2.1,4.6,2.1,4.6s15.1,13,51.6,12.5c36.5-0.5,42.2-0.1,42.2-0.1s1.6-0.8,0-2.9c-1.6-2.1-10.4-9.9-10.4-9.9l-1.7-0.2l0.1-1.5
		l-5.6-5.2h1.4l16.4,4l1.6-1.7l7.4-2.2l-3,2.4l-3.7,2.2l31.7,9.8l1.7-1.5l7.8-4.5l4.6-4.2l1.3-4.3c0,0,0.2-2.1-1.9-3.3
		c-2.1-1.2-3.5-3-9.3-5.2s-10.7-2.6-10.7-2.6l-1.7,1l-4.9,0.9l4.1-1.9l0.6-0.8c0,0-5.1-0.9-8.1-1.2s-5.8,0-5.8,0l-3.8,1l1.2-2.3
		c0,0-30.3-2.1-44.4-1.5C117.3,133.2,91.7,135.7,86.7,138.9z"/>
	<path class="st10" d="M199.9,163.8c0,0,0.7-1.5,2.2-2.3s7.8-4.5,7.8-4.5l-3.4-1h5c0,0,2.2-2.3,3-3.2c0.8-0.9,1.3-4.3,1.3-4.3
		s-1.4,24.1-1.5,35.5c-0.1,11.4,2.2,25,1.5,28.4s-0.9,4.7-4.2,7c-3.3,2.3-11.8,6.9-12.7,6c-0.9-0.9-1.5-30.8-1.2-38.4
		C198.1,179.4,199.9,163.8,199.9,163.8z"/>
	<path class="st19" d="M105.9,145.2c0.4,0,4.1-0.4,4.1-0.4l1.3,0.9l3.1-1"/>
	<path class="st12" d="M105.8,144.4c0.4,0,4.1-0.4,4.1-0.4l1.3,0.9l3.1-1"/>
	<polyline class="st20" points="137.8,157.8 137.4,158.3 136.4,159.5 133.3,163.2 127.1,166.7 131.9,166.2 134.5,166.2 134.5,163.5 
		137.7,157.7 	"/>
	<polyline class="st19" points="93.2,162.3 96.5,161.3 100.6,161.6 	"/>
	<polyline class="st12" points="92.9,161.5 96.2,160.5 100.3,160.8 	"/>
	<polyline class="st11" points="188.3,216.9 191.8,219.6 194.6,218.7 195.6,219.8 	"/>
	<polyline class="st11" points="177.4,190.9 182.2,193.7 186,192.2 180.8,192.1 	"/>
	<polyline class="st12" points="207.3,177.3 210.8,177 212.3,175.1 	"/>
	<polyline class="st12" points="209.7,213.2 208.5,216.7 205.4,219 	"/>
	<polyline class="st12" points="188.1,216 191.6,218.6 194.4,217.7 195.4,218.9 	"/>
	<polyline class="st12" points="177.2,189.9 182,192.7 185.8,191.2 180.6,191.1 	"/>
	<polyline class="st12" points="192.9,163.8 196.4,165.5 196.4,168.1 	"/>
	<path class="st21" d="M121,186.4c1.5,1.2,3.2,1.7,3.2,1.7l6-1.3l1.3,0.9"/>
	<path class="st21" d="M88.6,195.2c2.2,1.6,5.8,2.3,5.8,2.3h3.5"/>
	<path class="st21" d="M128.6,226.7c2,0.3,3.3,0.6,3.3,0.6l3.8-1.3h1.7"/>
	<polyline class="st21" points="136,223.5 142.7,223.1 146.8,225.1 150.7,224.3 	"/>
	<polyline class="st12" points="135.6,222.7 142.3,222.2 146.4,224.3 150.3,223.4 	"/>
	<path class="st14" d="M139.3,199.9c3.3-0.6,3.3,2.3,3.3,2.3l-2.7,1.5"/>
	<path class="st12" d="M139.2,199.7c2.5-0.4,2.5,1.7,2.5,1.7l-2,1.2"/>
	<path class="st12" d="M120.1,185.3c1.5,1.2,3.2,1.7,3.2,1.7l6-1.3l1.3,0.9"/>
	<path class="st12" d="M113.2,173.4c-0.3,1.3,2,1.6,2,1.6l1-2.2"/>
	<path class="st12" d="M88.2,194.2c2.2,1.6,5.8,2.3,5.8,2.3h3.5"/>
	<path class="st12" d="M73.8,209.7c2.3,1.3,3.9,1.5,3.9,1.5l3.2,3.6"/>
	<path class="st12" d="M73.1,154.3c0-0.7,1.7-2.9,1.7-2.9l2.3,0.3"/>
	<path class="st12" d="M157.9,164.9c1.2,0.4,2,0.3,2,0.3l2.3-1l-2.3-2.6"/>
	<path class="st12" d="M171.1,202.2c0.6-1.2,1.6-0.9,1.6-0.9l1.6,1.9l-1,0.9"/>
	<path class="st12" d="M128.2,225.9c2,0.3,3.3,0.6,3.3,0.6l3.8-1.3h1.7"/>
	<polyline class="st8" points="127.5,166 132.9,163 136,159 	"/>
</g>
<g>
	<path class="st22" d="M71.2,71.3c-5.8,0-10.3-1.5-13.7-4.4c-3.3-2.9-5-7.1-5-12.4c0-3.3,0.5-6.1,1.6-8.6c1.1-2.5,2.6-4.4,4.5-5.9
		c3.9-2.9,9-4.4,15.3-4.4c4.1,0,8.2,0.6,12.3,1.7c1.6,0.5,2.4,1.8,2.4,3.8c0,2.8-0.9,4.1-2.6,4.1c-0.3,0-1.2-0.1-2.8-0.4
		c-1.6-0.3-2.7-0.4-3.4-0.4c-2.3,0-4,0.8-5.3,2.4c-1.2,1.6-1.8,3.5-1.8,5.7c0,2.2,0.6,4.1,1.7,5.8c1.2,1.7,2.7,2.5,4.7,2.6
		c1.3,0.1,3.7,0.1,7.2,0.1c1.7,0,2.6,0.8,2.7,2.4c0.1,0.6,0.1,1.2,0.1,1.8c0,0.6,0,1.2-0.1,1.8c-0.2,1.2-1.1,2-2.7,2.5
		c-1.6,0.5-3.9,1-6.9,1.3C76.4,71.1,73.7,71.3,71.2,71.3z"/>
	<path class="st22" d="M94,68.1l-0.1-15.7c0-4.8,0-9.5,0.1-14c0-1.1,0.2-1.8,0.6-2.4c0.4-0.5,1.1-0.8,2.1-0.8h9.2
		c1.1,0,1.8,0.2,2.1,0.7c0.4,0.5,0.6,1.4,0.7,2.7c0.1,1.3,0.2,4.8,0.2,10.4c2.5-2.5,5.5-3.8,9-3.8s6.3,0.9,8.3,2.6s3,4.1,3.1,7.2
		c0,3,0.1,5.8,0.1,8.2c0,2.4,0,4,0,4.8c0,0.8-0.2,1.4-0.6,1.8c-0.4,0.4-1.2,0.6-2.3,0.6l-9.2,0.1c-1,0-1.7-0.2-2.1-0.6
		c-0.4-0.4-0.6-0.9-0.6-1.7l0-11.7c0-1-0.2-1.7-0.7-2.2c-0.5-0.5-1.1-0.7-1.8-0.7c-0.7,0-1.4,0.2-1.9,0.7c-0.6,0.5-0.9,1.2-0.9,2.1
		l-0.3,11.6c0,0.6-0.3,1.1-0.9,1.5c-0.5,0.4-1.2,0.7-2,0.7s-1.7,0.1-2.6,0.1l-6.7-0.1c-0.6,0-1.2-0.2-1.8-0.6
		C94.3,69.2,94,68.7,94,68.1z"/>
	<path class="st22" d="M141.4,47.4c1.5-0.7,3-1.2,4.5-1.6c1.6-0.3,3.5-0.5,5.8-0.5s4.5,0.3,6.6,0.8c2.1,0.6,3.6,1.3,4.7,2.3
		c1.8,1.8,2.7,3.8,2.7,6.2c0,3.7-3.1,5.6-9.4,5.6c-2.2,0-4.5-0.2-6.9-0.6c0.1,2.1,0.5,3.6,1.2,4.5c0.7,0.9,1.9,1.3,3.7,1.3
		s3.2-0.2,4.4-0.6c1.2-0.4,2.1-0.8,2.8-1.2c0.7-0.4,1.3-0.6,1.8-0.6c0.5,0,0.9,0.2,1.3,0.7c0.5,0.6,0.8,1.4,0.8,2.4
		c0,1-0.2,1.7-0.6,2.1c-0.4,0.4-1,0.7-1.9,1.1c-3,1.3-7.4,1.9-13,1.9c-4.6,0-8.5-1.1-11.4-3.3c-3-2.2-4.5-5.2-4.5-9
		c0-1.8,0.3-3.5,1-5c0.7-1.5,1.6-2.8,2.7-3.8S139.9,48.1,141.4,47.4z M152.5,50.8c-2,0-3,1.6-3.2,4.8c1.5,0.1,2.3,0.2,2.4,0.2
		c2.1,0,3.2-0.7,3.2-2.1C154.9,51.7,154.1,50.8,152.5,50.8z"/>
	<path class="st22" d="M202,70.2l-5.1,0.1c-1.9,0-3.1,0-3.7-0.1c-2-0.1-3-1.2-3-3.4c-1.2,1.3-2.7,2.4-4.6,3.3
		c-1.9,0.8-3.6,1.2-5.2,1.2c-3.2,0-5.8-1.1-7.9-3.2c-2.1-2.1-3.1-5.4-3.1-9.8c0-5.5,1.9-9.3,5.6-11.5c2-1.2,4.3-1.8,7-1.8
		s4.9,0.6,6.8,1.8c0.6,0.4,0.9,0.3,1-0.4c0.1-0.7,0.1-1.7,0.1-3v-4c0-0.6,0-1.3,0-1.9c0-0.7,0.2-1.2,0.6-1.6
		c0.4-0.4,1.1-0.6,2.2-0.6h9.2c1.1,0,1.8,0.3,2.1,0.8c0.4,0.5,0.6,1.3,0.6,2.4c0.1,4.5,0.1,9.2,0.1,13.9L204.7,68
		c0,0.6-0.3,1.2-0.9,1.6C203.2,70,202.6,70.2,202,70.2z M186.1,53.2c-1.9,0-2.8,1.6-2.8,4.7c0,3.1,0.9,4.7,2.8,4.7
		c0.7,0,1.4-0.2,2-0.7c0.6-0.5,0.9-1.2,0.9-2.1v-3.7c0-0.9-0.3-1.6-0.9-2.1C187.5,53.5,186.9,53.2,186.1,53.2z"/>
	<path class="st22" d="M241.6,70.2l-5.1,0.1c-1.9,0-3.1,0-3.7-0.1c-2-0.1-3-1.2-3-3.4c-1.2,1.3-2.7,2.4-4.6,3.3
		c-1.9,0.8-3.6,1.2-5.2,1.2c-3.2,0-5.8-1.1-7.9-3.2c-2.1-2.1-3.1-5.4-3.1-9.8c0-5.5,1.9-9.3,5.6-11.5c2-1.2,4.3-1.8,7-1.8
		c2.7,0,4.9,0.6,6.8,1.8c0.6,0.4,0.9,0.3,1-0.4c0.1-0.7,0.1-1.7,0.1-3v-4c0-0.6,0-1.3,0-1.9c0-0.7,0.2-1.2,0.6-1.6
		c0.4-0.4,1.1-0.6,2.2-0.6h9.2c1.1,0,1.8,0.3,2.1,0.8c0.4,0.5,0.6,1.3,0.6,2.4c0.1,4.5,0.1,9.2,0.1,13.9L244.3,68
		c0,0.6-0.3,1.2-0.9,1.6C242.8,70,242.2,70.2,241.6,70.2z M225.8,53.2c-1.9,0-2.8,1.6-2.8,4.7c0,3.1,0.9,4.7,2.8,4.7
		c0.7,0,1.4-0.2,2-0.7c0.6-0.5,0.9-1.2,0.9-2.1v-3.7c0-0.9-0.3-1.6-0.9-2.1C227.2,53.5,226.5,53.2,225.8,53.2z"/>
	<path class="st22" d="M266.6,45.1c10.4,0,15.7,3.4,15.8,10.2c0.1,2.9,0.1,5.5,0.1,7.9c0,2.4,0,4,0,4.8c0,0.8-0.2,1.4-0.6,1.8
		c-0.4,0.4-1.2,0.6-2.3,0.6h-10.2c-1,0-1.7-0.2-2.1-0.6c-0.4-0.4-0.6-0.9-0.6-1.7c0,0,0-0.1,0-0.2c0-0.1,0-0.2,0-0.2
		c-2.1,2.2-5,3.3-8.6,3.3c-2.5,0-4.7-0.6-6.5-1.9s-2.7-3-2.7-5.2c0-2.2,0.6-4,1.9-5.3c1.3-1.3,2.8-2.2,4.5-2.7s3.6-0.7,5.6-0.7
		s4,0.2,5.9,0.6v-0.2c0-1.6-0.3-2.8-0.9-3.5c-0.6-0.7-1.6-1.1-3-1.1c-1.4,0-2.6,0.1-3.5,0.4c-0.9,0.2-1.6,0.5-2.1,0.7
		c-1.3,0.8-2.2,1.2-2.7,1.2c-0.5,0-1-0.2-1.4-0.7s-0.6-1.2-0.6-2.2c0-1,0.2-1.7,0.6-2.1c0.4-0.4,1-0.8,1.8-1.2
		C257.5,45.8,261.4,45.1,266.6,45.1z M264.3,64.8c1.4,0,2.1-0.3,2.2-0.8c0.1-1.1,0.1-2.4,0.1-4.2c0-0.7-0.5-1-1.5-1
		c-1,0-1.9,0.2-2.5,0.7c-0.6,0.5-1,1.2-1,2.2s0.3,1.7,0.8,2.3C262.9,64.5,263.6,64.8,264.3,64.8z"/>
	<path class="st22" d="M291.3,45.9h9.4c1.1,0,1.8,0.2,2.3,0.7s0.6,1.2,0.6,2.1v1.7c1.8-3.4,4.7-5.1,8.7-5.1c1.3,0,2.4,0.4,3.3,1.3
		c0.9,0.9,1.3,2,1.3,3.5s-0.4,2.9-1.2,4.3c-0.8,1.4-1.8,2.1-3.2,2.1c-0.6,0-1.5-0.3-2.7-1c-1.2-0.7-2.1-1-2.8-1
		c-0.7,0-1.4,0.3-2.2,0.8c-0.8,0.5-1.1,1.4-1.1,2.5c0,5.2-0.1,8.6-0.3,10.2c-0.1,0.5-0.4,1-0.8,1.4c-0.4,0.4-1.2,0.7-2.4,0.7
		c-1.1,0.1-2.3,0.1-3.4,0.1c-1.1,0-3-0.1-5.7-0.2c-0.8,0-1.4-0.3-1.8-0.7c-0.4-0.4-0.7-0.9-0.8-1.4c-0.2-2.1-0.3-5.3-0.3-9.6
		c0-4.3,0.1-7.2,0.2-8.8c0.1-1.6,0.4-2.6,0.7-3.1C289.5,46.1,290.2,45.9,291.3,45.9z"/>
</g>
</svg>
