<?xml version="1.0" encoding="utf-8"?>
<!-- Generator: Adobe Illustrator 22.0.1, SVG Export Plug-In . SVG Version: 6.00 Build 0)  -->
<svg version="1.1" id="Layer_1" xmlns="http://www.w3.org/2000/svg" xmlns:xlink="http://www.w3.org/1999/xlink" x="0px" y="0px"
	 viewBox="0 0 370 300" style="enable-background:new 0 0 370 300;" xml:space="preserve">
<style type="text/css">
	.st0{fill:#F4EFDE;}
	.st1{fill:#FFFFFF;stroke:#000105;stroke-width:2.340455e-02;stroke-miterlimit:10;}
	.st2{fill:#4C689B;}
	.st3{fill:#FFFFFF;stroke:#FFFFFF;stroke-width:2.340455e-02;stroke-miterlimit:10;}
	.st4{display:none;fill:url(#SVGID_1_);}
	.st5{fill:#C8C7C7;}
	.st6{fill:#F7F0EA;stroke:#E6DFDA;stroke-width:1.2466;stroke-linecap:round;stroke-linejoin:round;stroke-miterlimit:10;}
	.st7{fill:#FCF6EF;stroke:#EAE2CE;stroke-width:1.2466;stroke-linecap:round;stroke-linejoin:round;stroke-miterlimit:10;}
	.st8{fill:#E6DFDA;stroke:#CDC9BA;stroke-width:1.2466;stroke-linecap:round;stroke-linejoin:round;stroke-miterlimit:10;}
	.st9{fill:none;stroke:#CDC9BA;stroke-width:1.2466;stroke-linecap:round;stroke-linejoin:round;stroke-miterlimit:10;}
	.st10{fill:none;stroke:#EAE2CE;stroke-width:1.2466;stroke-linecap:round;stroke-linejoin:round;stroke-miterlimit:10;}
	.st11{fill:none;stroke:#E2E2E2;stroke-width:1.2466;stroke-linecap:round;stroke-linejoin:round;stroke-miterlimit:10;}
	.st12{fill:#FCF6EF;stroke:#ECE2D7;stroke-width:1.2466;stroke-linecap:round;stroke-linejoin:round;stroke-miterlimit:10;}
	.st13{fill:#F7F0EA;stroke:#E6DFDA;stroke-width:1.2159;stroke-linecap:round;stroke-linejoin:round;stroke-miterlimit:10;}
	.st14{fill:#E6DFDA;stroke:#CDC9BA;stroke-width:1.2159;stroke-linecap:round;stroke-linejoin:round;stroke-miterlimit:10;}
	.st15{fill:none;stroke:#E2E2E2;stroke-width:1.2159;stroke-linecap:round;stroke-linejoin:round;stroke-miterlimit:10;}
	.st16{fill:#FCF6EF;stroke:#ECE2D7;stroke-width:1.2159;stroke-linecap:round;stroke-linejoin:round;stroke-miterlimit:10;}
	.st17{fill:none;stroke:#CDC9BA;stroke-width:1.2159;stroke-linecap:round;stroke-linejoin:round;stroke-miterlimit:10;}
	.st18{fill:none;stroke:#EAE2CE;stroke-width:1.2159;stroke-linecap:round;stroke-linejoin:round;stroke-miterlimit:10;}
	.st19{fill:#FCF6EF;stroke:#E6E1CD;stroke-width:1.2466;stroke-linecap:round;stroke-linejoin:round;stroke-miterlimit:10;}
	.st20{fill:#E08B44;}
</style>
<g>
	<rect transform="matrix(-1 -1.224647e-16 1.224647e-16 -1 370 300)" class="st0" width="370" height="300"/>
</g>
<g>
	<g>
		<g>
			<path class="st1" d="M324.7,114.7c-18.8-3.9-37.7,15-56.5,18c-3.4-12.9-6.7-26.4-10.1-40.5c18.8,3.9,37.7-15,56.5-18
				C318,87.1,321.4,100.6,324.7,114.7z"/>
			<path id="_x32__16_" class="st2" d="M258.1,92.2c18.8,3.9,37.7-15,56.5-18c3.4,12.9,6.7,26.4,10.1,40.5
				c-18.8-3.9-37.7,15-56.5,18C264.8,119.8,261.5,106.4,258.1,92.2z"/>
			<path class="st1" d="M315.8,78.8c-11.9,1.5-23.7,9.5-35.6,14.6c0.3,1.2,0.7,2.4,1,3.5c11.9-5.2,23.7-13.2,35.6-14.3
				C316.5,81.3,316.1,80,315.8,78.8z"/>
			<path class="st1" d="M319.1,91.5c-11.9,0.2-23.7,7.9-35.6,13.4c-0.3-1.2-0.7-2.4-1-3.6c11.9-5.4,23.7-13.2,35.6-13.8
				C318.4,88.8,318.7,90.2,319.1,91.5z"/>
			<path class="st1" d="M323.6,109.8c-18.8-3-37.7,16-56.5,18.4c-0.3-1.3-0.7-2.6-1-3.9c18.8-1.7,37.7-20.8,56.5-18.6
				C322.9,107,323.2,108.4,323.6,109.8z"/>
			<path class="st1" d="M263.8,115.3c18.8-0.3,37.7-19.5,56.5-18.9c0.3,1.4,0.7,2.7,1,4.1c-18.8-1.3-37.7,17.9-56.5,18.8
				C264.4,118,264.1,116.7,263.8,115.3z"/>
			<path class="st1" d="M281.4,97.4c-7,3.1-14,5.2-20.9,4.4c0.3,1.4,0.7,2.8,1,4.1c7,0.5,14-1.8,20.9-5
				C282,99.8,281.7,98.6,281.4,97.4z"/>
			<path class="st1" d="M276.1,112.9c-1.3,0.5-2.6,0.9-3.8,1.2c-1.9-7-3.8-14.2-5.7-21.5c1.3-0.1,2.6-0.4,3.8-0.6
				C272.4,99,274.3,106,276.1,112.9z"/>
			<path class="st3" d="M276.1,113.1c-1.2,0.4-2.4,0.8-3.6,1.1c0-0.1-0.1-0.2-0.1-0.4c1.2-0.3,2.4-0.7,3.6-1.1
				C276,112.8,276,113,276.1,113.1z"/>
			<path class="st3" d="M273.4,100.5c-1.6,0.5-3.2,0.9-4.8,1.1c0.3,1.2,0.6,2.4,1,3.6c1.6-0.3,3.2-0.7,4.8-1.2
				C274,102.8,273.7,101.7,273.4,100.5z"/>
		</g>
		
			<linearGradient id="SVGID_1_" gradientUnits="userSpaceOnUse" x1="325.0652" y1="-46.0611" x2="386.5214" y2="-40.6844" gradientTransform="matrix(0.9659 -0.2588 0.2588 0.9659 -41.0193 237.4437)">
			<stop  offset="0" style="stop-color:#000000;stop-opacity:0.1"/>
			<stop  offset="2.732152e-02" style="stop-color:#060606;stop-opacity:0.1091"/>
			<stop  offset="6.511138e-02" style="stop-color:#181818;stop-opacity:0.1217"/>
			<stop  offset="0.109" style="stop-color:#363636;stop-opacity:0.1363"/>
			<stop  offset="0.1576" style="stop-color:#5F5F5F;stop-opacity:0.1525"/>
			<stop  offset="0.2099" style="stop-color:#939393;stop-opacity:0.17"/>
			<stop  offset="0.2646" style="stop-color:#D2D2D2;stop-opacity:0.1882"/>
			<stop  offset="0.3" style="stop-color:#FFFFFF;stop-opacity:0.2"/>
			<stop  offset="0.3251" style="stop-color:#DADADA;stop-opacity:0.2"/>
			<stop  offset="0.364" style="stop-color:#A7A7A7;stop-opacity:0.2"/>
			<stop  offset="0.4048" style="stop-color:#7B7B7B;stop-opacity:0.2"/>
			<stop  offset="0.4467" style="stop-color:#555555;stop-opacity:0.2"/>
			<stop  offset="0.49" style="stop-color:#363636;stop-opacity:0.2"/>
			<stop  offset="0.5351" style="stop-color:#1E1E1E;stop-opacity:0.2"/>
			<stop  offset="0.5829" style="stop-color:#0D0D0D;stop-opacity:0.2"/>
			<stop  offset="0.6351" style="stop-color:#030303;stop-opacity:0.2"/>
			<stop  offset="0.7" style="stop-color:#000000;stop-opacity:0.2"/>
			<stop  offset="0.843" style="stop-color:#FFFFFF;stop-opacity:5.000000e-02"/>
			<stop  offset="0.9959" style="stop-color:#000105;stop-opacity:0.2"/>
		</linearGradient>
		<path class="st4" d="M324.7,114.7c-18.8-3.9-37.7,15-56.5,18c-3.4-12.9-6.7-26.4-10.1-40.5c18.8,3.9,37.7-15,56.5-18
			C318,87.1,321.4,100.6,324.7,114.7z"/>
	</g>
</g>
<ellipse class="st5" cx="191.3" cy="228.9" rx="143.9" ry="41.8"/>
<g>
	<polygon class="st6" points="218.3,156.2 164.1,231.6 157.4,233.5 147.9,236 150,222.3 147.5,215.2 148.7,207.1 149.3,198.8 
		148.1,193.8 149.1,185.7 146.6,178.2 147.9,166.6 151.6,161.6 158.3,161.6 172.8,159.7 175.9,159.3 178.8,160 191.3,156.8 
		194.6,157.2 201.3,155.8 210.6,155.6 	"/>
	<polygon class="st7" points="217.5,155.4 197.9,156.6 194.4,158.3 193.6,157 183.2,158.7 178.8,160 175.9,159.3 167,160.4 
		156.4,163.1 152.7,161.8 139.6,159.5 134.6,161.6 134,157.7 120.2,157.7 117.1,158.7 116.3,155.2 103.2,153.1 98.4,155.4 
		94.1,154.5 99.1,151 102.6,150.4 106.5,148.3 116.3,148.1 130.8,146 140.4,146.2 146.6,145.6 149.1,145 150.8,145.6 153.7,144.4 
		159.5,144.4 170.3,146.7 176.5,147.5 179.5,148.9 182.2,148.9 184.4,149.4 192.5,151 201.1,151.4 216.6,154.3 	"/>
	<polygon class="st8" points="95.5,219.4 103.8,221.9 108.4,221 115.9,222.7 120.5,227.3 126.3,228.5 128.3,225.6 130,228.5 
		147.9,236 150,222.3 147.5,215.2 149.1,211.1 149.5,201.9 148.3,194.9 149.5,187 146.6,179.1 147.9,172.4 148.3,163.7 151.6,161.6 
		138.3,158.7 134.6,161.6 135,157.5 124.6,157.5 117.1,158.7 117.1,155 104.2,152.9 100.1,155.4 94.7,154.5 93.4,162.9 94.3,171.6 
		92.6,177.4 94.7,182.4 93.4,186.1 94.7,193.6 95.5,204 93.9,211.1 	"/>
	<polyline class="st9" points="102,172.4 102.4,166.4 100.9,162.9 104.9,168.5 105.5,171.4 105.3,174.9 	"/>
	<polyline class="st9" points="110.3,171.8 113.6,171.4 111.9,176.6 113.2,181.8 115.7,180.9 117.8,176.8 	"/>
	<polyline class="st9" points="111.9,186.3 109.2,193.8 111.7,195.5 119,199.6 115.5,202.3 110.5,201.3 110.9,204.6 114.6,209.2 	
		"/>
	<polyline class="st9" points="100.7,218.1 105.5,215.4 107.4,218.1 111.1,216.9 114.4,218.7 115.9,220.6 	"/>
	<polyline class="st9" points="118.8,209.8 122.3,205 125,206.1 127.1,203.6 132.5,207.3 132.7,209.4 	"/>
	<polyline class="st9" points="138.5,181.1 136.2,184.7 138.1,188 137.1,190.1 136.9,193 	"/>
	<polyline class="st9" points="135.2,200 135,204.6 136.2,207.1 137.3,210.6 135.6,213.1 136,217.5 	"/>
	<polyline class="st9" points="143.1,218.7 144.3,223.7 142.9,227.5 	"/>
	<polyline class="st9" points="131,160.8 134,165.8 136,163.9 137.9,166.2 139.4,168.9 	"/>
	<polyline class="st9" points="121.5,168.5 123.2,172 122.5,175.3 122.9,178.9 	"/>
	<polyline class="st9" points="122.7,183 120.7,188 120.9,191.5 122.9,194.4 123.6,196.9 	"/>
	<polyline class="st9" points="112.8,157.9 114.2,160.4 118,161.2 123.2,159.7 126.7,160.6 	"/>
	<polyline class="st9" points="144.3,185.5 143.5,188.8 146.2,190.9 145.4,194.4 146.2,201.1 	"/>
	<polyline class="st9" points="95.9,190.1 98,194.2 97.2,197.8 97.6,203.2 	"/>
	<polyline class="st9" points="102.4,182.2 103.8,185.9 103,189 	"/>
	<polyline class="st10" points="130.2,152.9 138.3,153.7 139.6,155.6 147.5,155.4 	"/>
	<polyline class="st10" points="176.1,153.3 181.5,153.5 185.7,152.9 188.8,153.9 	"/>
	<polyline class="st9" points="152.9,173.7 156.6,173.5 158.3,173.5 160.8,174.7 164.1,173 	"/>
	<polyline class="st9" points="157.8,183.2 161.8,182.4 162.2,184.1 165.3,184.1 	"/>
	<polyline class="st9" points="151.1,196 155,195.2 155.5,196.8 158.6,196.8 	"/>
	<polyline class="st10" points="158,156 161.7,155.4 165.1,156.6 167.9,157.2 	"/>
	<g>
		<polygon class="st6" points="160.8,238.7 169.5,236 174.5,236 182.6,233.5 185.9,230.6 186.7,232.7 192.3,231.8 205.4,228.9 
			207.7,226.6 209.2,227.9 214.6,227.1 222,225.6 224.7,224.1 225.6,218.7 228.7,213.6 230.6,207.3 233.1,203 234.7,198 
			235.8,191.5 240.3,184.1 241.8,180.7 242.4,175.9 244.7,173.2 246.6,168.9 248.2,163.1 243,162.7 182.4,172.4 165.1,216 		"/>
		<polygon class="st8" points="173.2,166.4 176.8,168.1 178.2,171.6 181.3,173 183,174.9 175.7,192.6 171.4,202.3 170.7,205.9 
			167.6,213.8 167,217.9 163.2,227.7 162.4,234.1 160.3,237.9 157.4,233.5 152.2,230.8 151,227.7 154.5,216.5 157.4,212.1 
			157.8,207.9 161,200.3 162.8,194 164.7,189.7 166,181.6 168.7,174.7 172,169.9 		"/>
		<path class="st11" d="M159.5,204.8"/>
		<polygon class="st12" points="238,156.6 237.8,158.9 242.2,160.2 247.4,163.3 242.6,163.5 245.5,164.5 239.9,166 235.3,165.4 
			231.2,167.4 223.5,168.5 216.6,169.5 210.4,171.2 206.7,171 202.5,171.6 195.9,174.3 191.1,173.9 184.6,174.1 181.3,173 
			177.6,169.9 174.9,167 173.2,166.4 178.2,164.9 181.5,163.1 185.7,163.5 191.5,162.2 198.2,160.6 204,161.2 209.8,159.3 
			219.8,158.5 225.8,157.5 230.1,156.2 234.3,156.6 238.5,155.8 		"/>
		<polyline class="st9" points="180.1,203.1 183.8,200.9 183.8,196.8 186.9,195.3 186,198.1 		"/>
		<polyline class="st9" points="173.8,197.5 174.8,201.2 172.6,200.9 171.4,202.3 168.2,212.1 170.4,213.3 168.2,214.9 165.4,222.4 
			165.7,225.5 163.2,227.7 		"/>
		<polyline class="st9" points="204.7,171 207.2,172.5 204.7,174.7 204.7,178.8 202.2,182.5 		"/>
		<polyline class="st9" points="235.9,172.2 233.7,175.9 230.6,173.5 		"/>
		<line class="st9" x1="225.9" y1="188.4" x2="221.2" y2="191.8"/>
		<polyline class="st9" points="219.7,201.2 221.5,204.9 219.3,206.5 216.2,208.4 		"/>
		<polyline class="st9" points="186,215.2 190.7,213.7 194.1,216.1 196.9,214.3 		"/>
		<polyline class="st9" points="202.5,191.8 207.8,190.3 209.4,194 212.5,192.2 		"/>
		<polyline class="st9" points="188.8,174.4 187.6,178.1 188.8,180 189.1,184.7 		"/>
		<line class="st9" x1="225.3" y1="170" x2="221.8" y2="173.1"/>
		<polyline class="st9" points="233.7,183.7 233.4,188.4 231.8,191.2 		"/>
		<polyline class="st9" points="225.3,209.9 216.2,211.2 218.4,213.7 221.2,212.7 		"/>
		<line class="st9" x1="204.4" y1="213.3" x2="205.3" y2="209"/>
		<path class="st9" d="M198.5,205.9"/>
		<line class="st9" x1="173.5" y1="227.7" x2="170.7" y2="231.7"/>
		<line class="st9" x1="175.7" y1="193.7" x2="179.8" y2="192.8"/>
		<polyline class="st9" points="164.7,189.7 166.1,190.3 162.8,194 		"/>
		<polyline class="st9" points="159.5,204.8 162.3,206.5 159.8,206.5 158.9,209.6 160.8,212.4 157.4,212.1 		"/>
		<polyline class="st9" points="154.5,225.8 158.3,220.5 161.1,219 159.2,221.8 159.2,225.2 		"/>
		<polyline class="st9" points="172.6,184.7 172.6,177.8 171.7,174.4 174.5,173.5 175.4,171.6 177,175.6 		"/>
		<polyline class="st9" points="168.9,200.3 167,203.7 171.4,202.3 		"/>
		<polygon class="st9" points="197.5,203.7 194.4,205.6 196.9,207.1 		"/>
		<polyline class="st9" points="177,210.5 180.1,214.6 176.7,218.3 175.7,215.5 		"/>
		<polyline class="st10" points="196.3,167.8 202.8,163.5 206.6,165 		"/>
		<polyline class="st10" points="217.8,160.1 222.8,161 224.3,162.5 228.7,163.5 		"/>
		<polyline class="st10" points="180.7,165.4 184.1,167.5 188.5,167.8 184.8,170 		"/>
		<polyline class="st10" points="237.8,158.9 232.1,159.4 234.3,161.3 239,161.6 		"/>
	</g>
</g>
<g>
	<polygon class="st13" points="172.1,245.3 180.9,243.7 185.8,244.3 194,242.9 197.6,240.5 198.2,242.6 203.8,242.5 216.9,241.2 
		219.4,239.3 220.7,240.7 226.1,240.5 233.5,240 236.3,238.9 237.8,233.9 241.4,229.2 244,223.5 246.9,219.6 249.1,215 250.9,209 
		256.2,202.3 258.1,199.3 259.2,194.8 261.8,192.5 264.1,188.5 266.4,183.1 261.4,182.1 200.9,184.3 179,224.1 	"/>
	<polygon class="st14" points="192.7,177.4 196,179.4 197,183 199.8,184.8 201.3,186.8 192.1,202.8 186.7,211.7 185.7,215 
		181.7,222.2 180.6,226.1 175.8,235 174.3,241.1 171.8,244.4 169.5,239.9 164.7,236.7 163.8,233.6 168.6,223.2 171.9,219.4 
		172.8,215.5 176.8,208.5 179.3,202.7 181.7,198.7 183.8,191.1 187.3,184.9 191.1,180.7 	"/>
	<path class="st15" d="M174.8,212.7"/>
	<polygon class="st16" points="257.2,175.7 256.7,177.9 260.9,179.6 265.6,183.2 260.9,182.9 263.6,184.2 257.9,184.9 253.5,183.8 
		249.2,185.3 241.6,185.4 234.8,185.6 228.5,186.4 224.9,185.8 220.7,185.9 213.9,187.7 209.3,186.7 203,186.2 199.8,184.8 
		196.6,181.3 194.3,178.2 192.7,177.4 197.7,176.6 201.2,175.2 205.2,176.1 211.1,175.6 217.8,174.8 223.4,176.1 229.3,175 
		239.1,175.4 245.1,175.1 249.5,174.4 253.5,175.3 257.7,175 	"/>
	<polyline class="st17" points="195.1,213.4 199,211.8 199.5,207.9 202.7,206.8 201.5,209.3 	"/>
	<polyline class="st17" points="189.7,207.3 190.2,211 188.1,210.4 186.7,211.7 182.5,220.7 184.5,222.1 182.2,223.4 178.6,230.2 
		178.5,233.2 175.8,235 	"/>
	<polyline class="st17" points="222.9,185.5 225.2,187.3 222.5,189.1 222,193 219.2,196.3 	"/>
	<polyline class="st17" points="253.3,190.4 250.7,193.8 247.9,191 	"/>
	<line class="st17" x1="241.6" y1="204.8" x2="236.7" y2="207.5"/>
	<polyline class="st17" points="234,216.3 235.4,220.1 233.1,221.4 229.9,222.8 	"/>
	<polyline class="st17" points="199.5,225.8 204.3,224.8 207.3,227.6 210.3,226.2 	"/>
	<polyline class="st17" points="218.4,205.3 223.7,204.4 224.8,208.2 228.1,206.8 	"/>
	<polyline class="st17" points="207,186.9 205.3,190.4 206.4,192.3 206.1,196.8 	"/>
	<line class="st17" x1="243.2" y1="187.1" x2="239.4" y2="189.7"/>
	<polyline class="st17" points="249.8,201.2 248.9,205.7 247.1,208.2 	"/>
	<polyline class="st17" points="238.5,225.3 229.5,225.5 231.4,228.1 234.2,227.6 	"/>
	<line class="st17" x1="217.7" y1="226.2" x2="219.1" y2="222.1"/>
	<path class="st17" d="M212.8,218.3"/>
	<line class="st17" x1="185.9" y1="236.2" x2="182.7" y2="239.8"/>
	<line class="st17" x1="192" y1="203.9" x2="196" y2="203.5"/>
	<polyline class="st17" points="181.7,198.7 182.9,199.5 179.3,202.7 	"/>
	<polyline class="st17" points="174.8,212.7 177.4,214.6 174.9,214.3 173.7,217.2 175.2,220.1 171.9,219.4 	"/>
	<polyline class="st17" points="167.5,232.2 171.8,227.6 174.7,226.4 172.5,228.9 172.1,232.2 	"/>
	<polyline class="st17" points="190,194.9 190.8,188.3 190.2,184.9 193.1,184.3 194.2,182.7 195.3,186.7 	"/>
	<polyline class="st17" points="184.5,209.4 182.3,212.5 186.7,211.7 	"/>
	<polygon class="st17" points="212.1,216.1 208.9,217.5 211.1,219.3 	"/>
	<polyline class="st17" points="191.2,220.2 193.8,224.5 190,227.7 189.4,224.9 	"/>
	<polyline class="st18" points="215.1,181.6 222,178.1 225.5,180.1 	"/>
	<polyline class="st18" points="237,176.6 241.8,178.1 243.1,179.8 247.3,181.2 	"/>
	<polyline class="st18" points="200.1,177.3 203.2,179.8 207.5,180.6 203.6,182.3 	"/>
	<polyline class="st18" points="256.7,177.9 251.1,177.7 253,179.8 257.5,180.6 	"/>
</g>
<g>
	<polygon class="st19" points="310.8,223.6 296.4,222 289.2,220.1 284.8,220.1 280.4,218 273.8,216.4 263.2,215.3 259,214.7 
		236.2,218.9 227.4,222 224.3,221.3 214.4,224 205.4,225.3 197.9,228 190.9,228.6 199.4,237.5 253.2,250.6 300.8,237.5 	"/>
	<path class="st8" d="M194.4,246.1l-2.1-5.2l-0.4-6.6l0.4-4.8l5.6,0.8l1.9,4.6l3.1-2.7l5.4,1.7l6,0.8c0,0,0.6,5,0.6,4.4
		c0-0.6,0.8-4.4,0.8-4.4l2.9,1.2l0.6,1.9l2.3-1.2l7.7,1.7l3.9,2.3l0.4,1.9l1.7-3.3l8.5,2.3l5.8,2.5l5.2,0.4l-1.5,5.4l0.4,5.2
		l-0.8,4.2l-3.1,0.4l-6.9-1.9l-3.9,0.4l-4.2-1.9l-7.9-2.5h-5.2l0.4-4.6l-1.5,2.7l-0.6,1.5l-4.2-1l-0.2-2.7l-2.5,1.7l-4.6-1.9
		l-3.3-1.7l-2.9,1.2l-3.5-1.5L194.4,246.1z"/>
	<path class="st8" d="M311,224.7l0.2,6.2l-1.7,3.3l0.6,1.5l-2.9,1.9l-2.9,0.6l-6.6,5.2l-3.9,0.6c0,0-0.6,1.5-2.9,2.3
		c-2.3,0.8-8.1,3.3-8.1,3.3l-7.3,0.6l-2.7,3.1l-2.9,0.4l-6.9,2.1l-5,2.9l-5.4,1l1.2-5l-0.4-5.2l0.8-3.9l-0.6-1.2l5-0.2l10.4-3.7
		l4.2-0.2l0.2-1.2l7.3-1.9l5.4-2.3l1,2.3l0.6-2.7l2.7-1.2l6-1.5l2.9-1.9l0.2,3.3l1.2-4.2l5.8-1.7L311,224.7z"/>
	<path class="st19" d="M238.4,229.2"/>
	<polyline class="st19" points="236.8,229.2 234.3,228.9 239.3,227.4 238.4,229.2 238.7,232 243,233.3 246.1,232.7 	"/>
	<polyline class="st19" points="254.9,232 261.1,228 264.8,228.9 262.7,230.5 260.5,230.8 	"/>
	<polyline class="st19" points="280.4,227.4 286.7,227.4 284.5,228.6 287.9,229.5 	"/>
	<polyline class="st19" points="258,221.4 263.9,221.8 265.2,219.6 262,218.6 	"/>
	<polyline class="st19" points="245.5,223.6 249.3,224.3 253.6,224.9 	"/>
	<polyline class="st19" points="220.9,228.3 213.4,229.5 217.8,230.8 219.7,231.7 223.4,230.8 	"/>
	<polyline class="st19" points="249.6,239.2 256.7,237.7 258.6,238.9 259.2,241.4 262.4,242 	"/>
	<polyline class="st19" points="270.1,233.6 275.8,235.2 277.3,236.1 277.3,238 	"/>
	<polyline class="st9" points="235,248.5 239.1,245.3 241.1,249 244,249.6 	"/>
	<polyline class="st9" points="260.8,251.1 263.5,247.3 267.8,249 270.4,247.3 	"/>
	<polyline class="st9" points="287.5,242.1 292.5,240 292.8,238 294.5,240 	"/>
	<line class="st9" x1="302.1" y1="236" x2="304.4" y2="234.2"/>
	<polyline class="st9" points="199.4,237.5 199.9,242.4 202.5,239.8 203.1,237.7 205.1,241.2 207.4,240.3 	"/>
</g>
<g>
	<path class="st20" d="M108.6,70.6l0-26.1c0.3-2.7,1.4-4,3.4-4.2c1.4,0,11,0,28.8,0c1.9,0,2.9,1.4,2.9,4.3c0,1.4-0.8,2.2-2.5,2.2
		h-10.5c-0.7,0-1.2,0.2-1.6,0.7c-0.4,0.4-0.6,1-0.6,1.8v3.4c0,1,0.4,1.5,1.2,1.5h8c0.8,0,1.3,0.2,1.7,0.5c0.4,0.4,0.6,1.2,0.6,2.4
		c0,1.3-0.2,2.1-0.6,2.4c-0.4,0.4-1,0.5-1.8,0.5h-7.2c-0.8,0-1.4,0.2-1.7,0.6c-0.3,0.4-0.5,1-0.5,1.8v8.3c0,1.1-0.2,2-0.7,2.5
		c-0.5,0.5-1.1,0.8-1.9,0.8h-13.6c-0.9,0-1.7-0.3-2.3-0.9C109.1,72.5,108.7,71.6,108.6,70.6z"/>
	<path class="st20" d="M154.4,51c1.5-0.7,3-1.2,4.5-1.6c1.6-0.3,3.5-0.5,5.8-0.5c2.3,0,4.5,0.3,6.6,0.8c2.1,0.6,3.6,1.3,4.7,2.3
		c1.8,1.8,2.7,3.8,2.7,6.2c0,3.7-3.1,5.6-9.4,5.6c-2.2,0-4.5-0.2-6.9-0.6c0.1,2.1,0.5,3.6,1.2,4.5c0.7,0.9,1.9,1.3,3.7,1.3
		s3.2-0.2,4.4-0.6c1.2-0.4,2.1-0.8,2.8-1.2c0.7-0.4,1.3-0.6,1.8-0.6s0.9,0.2,1.3,0.7c0.5,0.6,0.8,1.4,0.8,2.4c0,1-0.2,1.7-0.6,2.1
		c-0.4,0.4-1,0.7-1.9,1.1c-3,1.3-7.4,1.9-13,1.9c-4.6,0-8.5-1.1-11.4-3.3c-3-2.2-4.5-5.2-4.5-9c0-1.8,0.3-3.5,1-5
		c0.7-1.5,1.6-2.8,2.7-3.8C151.6,52.6,152.9,51.7,154.4,51z M165.5,54.4c-2,0-3,1.6-3.2,4.8c1.5,0.1,2.3,0.2,2.4,0.2
		c2.1,0,3.2-0.7,3.2-2.1C167.9,55.4,167.1,54.4,165.5,54.4z"/>
	<path class="st20" d="M185.4,56.5c0-0.5-0.4-0.8-1.1-0.8c-1.2,0-2-0.4-2.2-1.2c-0.1-0.4-0.2-1.1-0.2-1.9c0-0.9,0.1-1.5,0.4-1.8
		c0.2-0.4,0.7-0.6,1.4-0.8c0.7-0.2,1.3-0.5,1.9-0.9s1.7-1.4,3.5-2.9c1.7-1.5,3-2.4,3.6-2.9c0.7-0.4,1.5-0.7,2.6-0.7h2.4
		c1.1,0,1.9,0.1,2.3,0.4c0.4,0.3,0.6,0.7,0.6,1.3v4.6c0,0.7,0.3,1,0.9,1h5.1c0.8,0,1.4,0.2,1.8,0.5c0.4,0.4,0.6,1.2,0.6,2.4
		c0,1.3-0.2,2.1-0.6,2.4c-0.4,0.4-1,0.5-1.7,0.5h-5c-0.4,0-0.7,0.1-0.9,0.3c-0.1,0.2-0.2,0.5-0.2,1v5.8c0.1,1.1,0.5,2,1.2,2.7
		c0.8,0.7,1.8,1.1,3.2,1.1c0.7,0,1.5-0.2,2.5-0.6c1-0.4,1.7-0.6,2-0.6c0.9,0,1.3,1.3,1.3,3.8c0,1.9-0.5,3-1.5,3.4
		c-1,0.4-2.5,0.6-4.3,0.9c-1.9,0.2-3.7,0.3-5.6,0.3s-3.6-0.2-5.3-0.5c-1.7-0.3-3.2-0.8-4.6-1.6c-2.7-1.6-4-4.6-4-9V56.5z"/>
	<path class="st20" d="M232,48.7c10.4,0,15.7,3.4,15.8,10.2c0.1,2.9,0.1,5.5,0.1,7.9s0,4,0,4.8c0,0.8-0.2,1.4-0.6,1.8
		c-0.4,0.4-1.2,0.6-2.3,0.6h-10.2c-1,0-1.7-0.2-2.1-0.6c-0.4-0.4-0.6-0.9-0.6-1.7c0,0,0-0.1,0-0.2c0-0.1,0-0.2,0-0.2
		c-2.1,2.2-5,3.3-8.6,3.3c-2.5,0-4.7-0.6-6.5-1.9c-1.8-1.3-2.7-3-2.7-5.2s0.6-4,1.9-5.3c1.3-1.3,2.8-2.2,4.5-2.7s3.6-0.7,5.6-0.7
		c2,0,4,0.2,5.9,0.6v-0.2c0-1.6-0.3-2.8-0.9-3.5c-0.6-0.7-1.6-1.1-3-1.1s-2.6,0.1-3.5,0.4c-0.9,0.2-1.6,0.5-2.1,0.7
		c-1.3,0.8-2.2,1.2-2.7,1.2s-1-0.2-1.4-0.7s-0.6-1.2-0.6-2.2c0-1,0.2-1.7,0.6-2.1c0.4-0.4,1-0.8,1.8-1.2
		C222.9,49.4,226.9,48.7,232,48.7z M229.8,68.4c1.4,0,2.1-0.3,2.2-0.8c0.1-1.1,0.1-2.4,0.1-4.2c0-0.7-0.5-1-1.5-1
		c-1,0-1.9,0.2-2.5,0.7c-0.6,0.5-1,1.2-1,2.2s0.3,1.7,0.8,2.3C228.4,68.1,229,68.4,229.8,68.4z"/>
</g>
</svg>
