<?xml version="1.0" encoding="utf-8"?>
<!-- Generator: Adobe Illustrator 22.0.1, SVG Export Plug-In . SVG Version: 6.00 Build 0)  -->
<svg version="1.1" id="Layer_1" xmlns="http://www.w3.org/2000/svg" xmlns:xlink="http://www.w3.org/1999/xlink" x="0px" y="0px"
	 viewBox="0 0 370 300" style="enable-background:new 0 0 370 300;" xml:space="preserve">
<style type="text/css">
	.st0{fill:#F4EFDE;}
	.st1{fill:#475582;}
	.st2{fill:#FFFFFF;}
	.st3{fill:#A04E48;}
	.st4{display:none;fill:url(#SVGID_1_);}
	.st5{fill:#E08B44;}
	.st6{fill:#C8C7C7;}
	.st7{fill:#CD544A;stroke:#B65249;stroke-width:1.1837;stroke-linecap:round;stroke-linejoin:round;stroke-miterlimit:10;}
	.st8{fill:#C3534A;}
	.st9{fill:#F3C962;stroke:#DC8168;stroke-width:1.1837;stroke-linecap:round;stroke-linejoin:round;stroke-miterlimit:10;}
	.st10{fill:none;stroke:#D76D6D;stroke-width:3.5512;stroke-linecap:round;stroke-linejoin:round;stroke-miterlimit:10;}
	.st11{fill:none;stroke:#D76D6D;stroke-width:3.4462;stroke-linecap:round;stroke-linejoin:round;stroke-miterlimit:10;}
	.st12{fill:none;stroke:#C2534A;stroke-width:3.5512;stroke-linecap:round;stroke-linejoin:round;stroke-miterlimit:10;}
	.st13{fill:#E9AA5A;stroke:#DC8168;stroke-width:1.1837;stroke-linecap:round;stroke-linejoin:round;stroke-miterlimit:10;}
	.st14{fill:#E8A852;}
	.st15{fill:#D36C4B;}
	.st16{fill:#F7D977;stroke:#C2534A;stroke-width:1.1837;stroke-linecap:round;stroke-linejoin:round;stroke-miterlimit:10;}
	.st17{fill:#CD544A;stroke:#C2534A;stroke-width:1.1837;stroke-linecap:round;stroke-linejoin:round;stroke-miterlimit:10;}
	.st18{fill:#EFBE6A;}
	.st19{fill:#C2534A;stroke:#F7D977;stroke-width:2.3719;stroke-miterlimit:10;}
</style>
<g>
	<rect transform="matrix(-1 -1.224647e-16 1.224647e-16 -1 370 300)" class="st0" width="370" height="300"/>
</g>
<g>
	<g>
		<g>
			<path id="_x33__10_" class="st1" d="M248.3,101c19.3,4,38.6-15.3,57.9-18.4c3.4,13.2,6.9,27,10.3,41.5
				c-19.3-4-38.6,15.3-57.9,18.4C255.1,129.2,251.7,115.5,248.3,101z"/>
			<path id="_x32__11_" class="st2" d="M248.3,101c19.3,4,38.6-15.3,57.9-18.4c2.3,8.8,4.6,17.9,6.9,27.2
				c-19.3-1.4-38.6,18.3-57.9,19.3C252.8,120,250.6,110.7,248.3,101z"/>
			<path id="_x31__10_" class="st3" d="M248.3,101c19.3,4,38.6-15.3,57.9-18.4c1.1,4.4,2.3,8.9,3.4,13.4
				c-19.3,1-38.6,20.6-57.9,19.3C250.6,110.6,249.4,105.8,248.3,101z"/>
		</g>
		
			<linearGradient id="SVGID_1_" gradientUnits="userSpaceOnUse" x1="583.9775" y1="-39.7955" x2="646.9027" y2="-34.2903" gradientTransform="matrix(0.9659 -0.2588 0.2588 0.9659 -302.5226 307.5934)">
			<stop  offset="0" style="stop-color:#000000;stop-opacity:0.1"/>
			<stop  offset="2.732152e-02" style="stop-color:#060606;stop-opacity:0.1091"/>
			<stop  offset="6.511138e-02" style="stop-color:#181818;stop-opacity:0.1217"/>
			<stop  offset="0.109" style="stop-color:#363636;stop-opacity:0.1363"/>
			<stop  offset="0.1576" style="stop-color:#5F5F5F;stop-opacity:0.1525"/>
			<stop  offset="0.2099" style="stop-color:#939393;stop-opacity:0.17"/>
			<stop  offset="0.2646" style="stop-color:#D2D2D2;stop-opacity:0.1882"/>
			<stop  offset="0.3" style="stop-color:#FFFFFF;stop-opacity:0.2"/>
			<stop  offset="0.3251" style="stop-color:#DADADA;stop-opacity:0.2"/>
			<stop  offset="0.364" style="stop-color:#A7A7A7;stop-opacity:0.2"/>
			<stop  offset="0.4048" style="stop-color:#7B7B7B;stop-opacity:0.2"/>
			<stop  offset="0.4467" style="stop-color:#555555;stop-opacity:0.2"/>
			<stop  offset="0.49" style="stop-color:#363636;stop-opacity:0.2"/>
			<stop  offset="0.5351" style="stop-color:#1E1E1E;stop-opacity:0.2"/>
			<stop  offset="0.5829" style="stop-color:#0D0D0D;stop-opacity:0.2"/>
			<stop  offset="0.6351" style="stop-color:#030303;stop-opacity:0.2"/>
			<stop  offset="0.7" style="stop-color:#000000;stop-opacity:0.2"/>
			<stop  offset="0.843" style="stop-color:#FFFFFF;stop-opacity:5.000000e-02"/>
			<stop  offset="0.9959" style="stop-color:#000105;stop-opacity:0.2"/>
		</linearGradient>
		<path class="st4" d="M316.5,124.1c-19.3-4-38.6,15.3-57.9,18.4c-3.4-13.2-6.9-27-10.3-41.5c19.3,4,38.6-15.3,57.9-18.4
			C309.6,95.8,313,109.6,316.5,124.1z"/>
	</g>
</g>
<g>
	<path class="st5" d="M104.8,45.6c-2.9,0-4.9,0.7-6.1,2.2C97.6,49.4,97,51.7,97,55c0,5.1,1.5,7.6,4.5,7.6c0.6,0,1,0,1.2,0
		c-0.4,0-0.7-0.7-0.9-2c-0.2-1.3-0.4-2.8-0.4-4.2c0-1.5,0.4-2.4,1.2-2.9c0.8-0.4,1.9-0.6,3.3-0.6c1.4,0,2.4,0,3,0
		c0.6,0,1.2,0.1,1.9,0.2c0.7,0.1,1.3,0.3,1.7,0.5c0.9,0.5,1.3,1.3,1.3,2.3v7c0,2.5-0.4,4.5-1.3,6c-0.9,1.5-2.6,2.4-5,2.6
		c-3.5,0.4-8.7,0.5-15.8,0.5c-2.8,0-5.3-0.4-7.3-1.3c-2-0.9-3.6-2.1-4.7-3.7c-2-3-3.1-6.8-3.1-11.4c0-4.6,1.5-8.7,4.4-12.3
		c2.9-3.6,6.9-5.5,11.8-5.8c3.4-0.2,5.8-0.3,7.3-0.3c5.5,0,9.4,0.3,11.7,1c1.6,0.4,2.4,1.7,2.4,3.8c0,2.8-0.8,4.2-2.4,4.2
		c-0.5,0-1.5-0.1-3.1-0.3C106.9,45.7,105.7,45.6,104.8,45.6z"/>
	<path class="st5" d="M136.6,72.5c-11.9,0-17.9-4.4-17.9-13.1c0-4.1,1.5-7.3,4.6-9.6c3-2.3,7.5-3.4,13.3-3.4
		c5.9,0,10.3,1.1,13.3,3.4c3,2.3,4.6,5.5,4.6,9.6C154.5,68.2,148.6,72.5,136.6,72.5z M136.6,64.8c1.9,0,2.8-1.8,2.8-5.4
		c0-1.6-0.2-2.9-0.6-3.8c-0.4-0.9-1.1-1.3-2.3-1.3c-1.1,0-1.9,0.4-2.3,1.3c-0.4,0.9-0.6,2.1-0.6,3.8
		C133.8,63.1,134.8,64.8,136.6,64.8z"/>
	<path class="st5" d="M173.8,49.1l0,11.7c0,0.9,0.2,1.6,0.6,2.1c0.4,0.5,1,0.7,1.6,0.7c0.7,0,1.3-0.2,1.9-0.7c0.6-0.5,1-1.2,1.3-2
		V58c0-4.2,0.1-7.1,0.3-8.6c0.1-0.5,0.4-1,0.8-1.4c0.4-0.4,1.2-0.7,2.4-0.7c1.1-0.1,2.3-0.1,3.4-0.1c1.1,0,3,0.1,5.7,0.2
		c0.8,0,1.4,0.3,1.8,0.7c0.4,0.4,0.7,0.9,0.8,1.4c0.2,2.1,0.3,5.3,0.3,9.6c0,4.3-0.1,7.2-0.2,8.8c-0.1,1.6-0.4,2.6-0.7,3.1
		c-0.4,0.5-1.1,0.7-2.2,0.7h-9.4c-1.1,0-1.8-0.2-2.2-0.7c-0.4-0.5-0.6-1.3-0.7-2.4v0c-3.3,2.5-6.6,3.8-10,3.8c-3.4,0-6-0.8-7.7-2.5
		c-1.7-1.7-2.6-4.1-2.7-7.1c0-3.1-0.1-5.8-0.1-8.2s0-4,0-4.8c0-0.8,0.2-1.4,0.6-1.8c0.4-0.4,1.2-0.6,2.3-0.6l9.2-0.1
		c1,0,1.7,0.2,2.1,0.6C173.6,47.9,173.8,48.4,173.8,49.1z"/>
	<path class="st5" d="M232,71.4l-5.1,0.1c-1.9,0-3.1,0-3.7-0.1c-2-0.1-3-1.2-3-3.4c-1.2,1.3-2.7,2.4-4.6,3.3
		c-1.9,0.8-3.6,1.2-5.2,1.2c-3.2,0-5.8-1.1-7.9-3.2c-2.1-2.1-3.1-5.4-3.1-9.8c0-5.5,1.9-9.3,5.6-11.5c2-1.2,4.3-1.8,7-1.8
		c2.7,0,4.9,0.6,6.8,1.8c0.6,0.4,0.9,0.3,1-0.4c0.1-0.7,0.1-1.7,0.1-3v-4c0-0.6,0-1.3,0-1.9c0-0.7,0.2-1.2,0.6-1.6
		c0.4-0.4,1.1-0.6,2.2-0.6h9.2c1.1,0,1.8,0.3,2.1,0.8c0.4,0.5,0.6,1.3,0.6,2.4c0.1,4.5,0.1,9.2,0.1,13.9l-0.1,15.7
		c0,0.6-0.3,1.2-0.9,1.6C233.2,71.2,232.6,71.4,232,71.4z M216.2,54.4c-1.9,0-2.8,1.6-2.8,4.7c0,3.1,0.9,4.7,2.8,4.7
		c0.7,0,1.4-0.2,2-0.7c0.6-0.5,0.9-1.2,0.9-2.1v-3.7c0-0.9-0.3-1.6-0.9-2.1C217.6,54.6,216.9,54.4,216.2,54.4z"/>
	<path class="st5" d="M257,46.3c10.4,0,15.7,3.4,15.8,10.2c0.1,2.9,0.1,5.5,0.1,7.9c0,2.4,0,4,0,4.8c0,0.8-0.2,1.4-0.6,1.8
		c-0.4,0.4-1.2,0.6-2.3,0.6h-10.2c-1,0-1.7-0.2-2.1-0.6c-0.4-0.4-0.6-0.9-0.6-1.7c0,0,0-0.1,0-0.2c0-0.1,0-0.2,0-0.2
		c-2.1,2.2-5,3.3-8.6,3.3c-2.5,0-4.7-0.6-6.5-1.9s-2.7-3-2.7-5.2c0-2.2,0.6-4,1.9-5.3c1.3-1.3,2.8-2.2,4.5-2.7
		c1.7-0.5,3.6-0.7,5.6-0.7c2,0,4,0.2,5.9,0.6v-0.2c0-1.6-0.3-2.8-0.9-3.5c-0.6-0.7-1.6-1.1-3-1.1c-1.4,0-2.6,0.1-3.5,0.4
		c-0.9,0.2-1.6,0.5-2.1,0.7c-1.3,0.8-2.2,1.2-2.7,1.2c-0.5,0-1-0.2-1.4-0.7c-0.4-0.5-0.6-1.2-0.6-2.2c0-1,0.2-1.7,0.6-2.1
		c0.4-0.4,1-0.8,1.8-1.2C247.9,46.9,251.8,46.3,257,46.3z M254.7,65.9c1.4,0,2.1-0.3,2.2-0.8c0.1-1.1,0.1-2.4,0.1-4.2
		c0-0.7-0.5-1-1.5-1c-1,0-1.9,0.2-2.5,0.7c-0.6,0.5-1,1.2-1,2.2s0.3,1.7,0.8,2.3C253.3,65.6,254,65.9,254.7,65.9z"/>
</g>
<ellipse class="st6" cx="184.8" cy="223.5" rx="146.8" ry="42.6"/>
<g>
	<path class="st7" d="M138.2,233c0,0-28.6,1-45.6-9.7c-14.4-9-14.8-11.8-16.6-19.5c-1.8-7.7,0-31,5.5-38.1
		c5.5-7.1,13.2-14.8,29.4-19.3s55.8-8.3,80.1,0.4c24.3,8.7,38.3,22.3,39.1,38.3s-4.7,29.6-15.8,35.7l-3.6,1.2c0,0,4.1-8.9,3.7-18.3
		c-0.4-9.5-4.9-20.9-4.9-20.9s-12.8-7.1-26.2-11.6c-13.4-4.5-26.6-6.5-26.6-6.5s-18.3,25.1-20.5,32.4c-2.2,7.1-2,17.8-0.6,24.3
		C137,227.7,138.2,233,138.2,233z"/>
	<path class="st8" d="M142.4,183.1c0,0-21.9-0.2-27.8-8.3c-5.9-8.1,1.4-18.9,15.4-21.9s40.8-5.3,57.6,3.9
		c16.8,9.3,4.3,17.2,4.3,17.2l-13.6-4.5l-21.5-4.9l-13,18.5H142.4z"/>
	<path class="st9" d="M156,207.1l0.2-43c0,0,24.5,5.1,31.6,8.3c7.1,3.2,20.9,10.5,20.9,10.5s4.5,12,4.9,19.8
		c0.4,8.3-3.6,19.2-3.6,19.2L156,207.1z"/>
	<path class="st10" d="M82,169.7c0,0,1,7.5,18.3,12.8s32.9,5.7,32.9,5.7"/>
	<path class="st11" d="M212.6,181.5c0,0,4.7-1.9,6.1-5.6c1.4-3.7,2.6-5.8-0.6-9.7c-3.2-3.9-3.2-3.9-3.2-3.9"/>
	<path class="st12" d="M79.4,191.2c0,0,0.2,9.5,1.4,13c1.2,3.6,5.9,11,13,15.2c7.1,4.1,16.8,9.1,16.8,9.1"/>
	<path class="st13" d="M138.2,233l18.3-25.5l-0.5-43.4l-17.3,26.6c0,0-4.5,8.9-4.3,17.2c0.2,8.3,2.2,18.5,2.2,18.5L138.2,233z"/>
	<ellipse class="st14" cx="176" cy="183" rx="1.5" ry="0.5"/>
	<ellipse class="st14" cx="191.7" cy="192.8" rx="1.4" ry="0.9"/>
	<ellipse class="st14" cx="198.3" cy="205.2" rx="1.5" ry="0.8"/>
	<ellipse class="st14" cx="178.2" cy="206.4" rx="0.9" ry="0.5"/>
	<ellipse class="st14" cx="166.8" cy="201.7" rx="1" ry="0.7"/>
	<ellipse class="st14" cx="204.3" cy="215.5" rx="0.4" ry="0.5"/>
	<ellipse class="st14" cx="204.1" cy="185.5" rx="1" ry="0.7"/>
	<ellipse class="st14" cx="163.3" cy="170.5" rx="0.4" ry="0.5"/>
	<ellipse class="st15" cx="140.1" cy="221.8" rx="0.9" ry="0.7"/>
	<ellipse class="st15" cx="141.5" cy="198.3" rx="0.7" ry="1.4"/>
	<ellipse class="st15" cx="149.1" cy="188.7" rx="0.4" ry="0.1"/>
	<ellipse class="st15" cx="150.8" cy="197.6" rx="0.8" ry="0.7"/>
	<ellipse class="st15" cx="146.3" cy="212.9" rx="0.4" ry="1"/>
	<ellipse class="st15" cx="143.6" cy="208.5" rx="0.3" ry="0.6"/>
	<ellipse class="st15" cx="151.4" cy="181.5" rx="0.2" ry="0.4"/>
	<ellipse class="st15" cx="137.8" cy="208.3" rx="0.4" ry="1"/>
	<ellipse class="st15" cx="145.4" cy="190.4" rx="0.3" ry="0.8"/>
	<ellipse class="st14" cx="176.6" cy="194" rx="1.3" ry="0.6"/>
	<ellipse class="st14" cx="161.8" cy="185.5" rx="0.4" ry="0.5"/>
	<ellipse class="st14" cx="190.2" cy="180.8" rx="0.1" ry="0.5"/>
	<ellipse class="st14" cx="189.6" cy="210.5" rx="1.3" ry="1"/>
	<ellipse class="st14" cx="205.9" cy="198.3" rx="0.6" ry="1.2"/>
</g>
<g>
	<path class="st16" d="M244.5,197.6l40.5-9.3c0,0,6.4,13.1,8.4,24.7c1.3,7.7,2.7,13.3,1.9,15.7c-0.7,2.4-3.4,9.2-13,11.4
		c-9.6,2.2-21.9,4.4-26.3,0.9c-4.4-3.6-6.7-13-8-20S244.5,197.6,244.5,197.6z"/>
	<path class="st17" d="M236,231.4c1.3,6.2,11.7,8.9,15.5,10.1c3.8,1.2,9.5,1.1,9.5,1.1s-4.8-0.1-6.7-2.8c-1.9-2.7-5.5-10.9-5.9-14.5
		c-0.4-3.6-3-15.1-3.1-19.7s-0.7-8-0.7-8s-6.1,11.8-7.3,17.6C236.1,221,234.9,226.5,236,231.4z"/>
	<ellipse class="st18" cx="264.2" cy="206.2" rx="1.1" ry="1"/>
	<ellipse class="st18" cx="273.3" cy="214.5" rx="1" ry="1.8"/>
	<ellipse class="st18" cx="265" cy="226.6" rx="1.1" ry="0.7"/>
	<ellipse class="st18" cx="276.7" cy="230.5" rx="0.6" ry="0.5"/>
	<ellipse class="st18" cx="286.2" cy="222.5" rx="1.3" ry="0.3"/>
	<ellipse class="st18" cx="284.2" cy="207.1" rx="0.3" ry="1.5"/>
	<ellipse class="st18" cx="278.4" cy="220.8" rx="0.8" ry="0.9"/>
	<ellipse class="st18" cx="258.5" cy="215.6" rx="1.2" ry="0.5"/>
	<ellipse class="st18" cx="249.9" cy="201.5" rx="0.6" ry="1"/>
	<ellipse class="st18" cx="260.9" cy="237.5" rx="1" ry="1.1"/>
	<ellipse class="st18" cx="278.4" cy="202.7" rx="0.1" ry="0.5"/>
	<ellipse class="st18" cx="286.4" cy="230.1" rx="0.7" ry="1"/>
	<line class="st19" x1="245.2" y1="197.9" x2="284.6" y2="189"/>
</g>
</svg>
