<?xml version="1.0" encoding="utf-8"?>
<!-- Generator: Adobe Illustrator 22.0.1, SVG Export Plug-In . SVG Version: 6.00 Build 0)  -->
<svg version="1.1" id="Layer_1" xmlns="http://www.w3.org/2000/svg" xmlns:xlink="http://www.w3.org/1999/xlink" x="0px" y="0px"
	 viewBox="0 0 370 300" style="enable-background:new 0 0 370 300;" xml:space="preserve">
<style type="text/css">
	.st0{fill:#F4EFDE;}
	.st1{fill:#4E8A5C;}
	.st2{fill:#FFFFFF;}
	.st3{fill:#C24E45;}
	.st4{display:none;fill:url(#SVGID_1_);}
	.st5{fill:#E08B44;}
	.st6{fill:#C8C7C7;}
	.st7{fill:#FCF6EF;stroke:#EAE2CE;stroke-width:1.1696;stroke-miterlimit:10;}
	.st8{fill:#E7E2D1;stroke:#CDC9BA;stroke-width:1.1696;stroke-linecap:round;stroke-linejoin:round;stroke-miterlimit:10;}
	.st9{fill:none;stroke:#FFFFFF;stroke-width:3.5088;stroke-linecap:round;stroke-linejoin:round;stroke-miterlimit:10;}
	.st10{fill:none;stroke:#EAE2CE;stroke-width:3.5088;stroke-linecap:round;stroke-linejoin:round;stroke-miterlimit:10;}
	.st11{fill:#EAE2CE;}
	.st12{fill:#FCF1E0;stroke:#CDC9BA;stroke-width:1.1696;stroke-miterlimit:10;}
	.st13{fill:#FCF6EF;}
	.st14{fill:#E7E2D1;stroke:#CDC9BA;stroke-width:1.1696;stroke-miterlimit:10;}
	.st15{fill:none;stroke:#CDC9BA;stroke-width:3.5088;stroke-linecap:round;stroke-linejoin:round;stroke-miterlimit:10;}
	.st16{fill:none;stroke:#EAE2CE;stroke-width:1.1696;stroke-miterlimit:10;}
</style>
<g>
	<rect transform="matrix(-1 -1.224647e-16 1.224647e-16 -1 370 300)" class="st0" width="370" height="300"/>
</g>
<g>
	<g>
		<g>
			<path id="_x33__15_" class="st1" d="M263.5,118.9c6.5,1.3,12.9,0.1,19.4-2.3c3.5,12.6,6.9,24.8,10.4,37c-6.5,3.2-12.9,6-19.4,7.1
				C270.5,147.3,267,133.5,263.5,118.9z"/>
			<path id="_x32__18_" class="st2" d="M282.9,116.6c6.5-2.4,12.9-5.9,19.4-9.1c3.5,12.2,6.9,24.4,10.4,37
				c-6.5,2.4-12.9,5.9-19.4,9.1C289.9,141.4,286.4,129.2,282.9,116.6z"/>
			<path id="_x31__15_" class="st3" d="M302.3,107.5c6.5-3.2,12.9-6,19.4-7.1c3.5,13.3,6.9,27.1,10.4,41.7
				c-6.5-1.3-12.9-0.1-19.4,2.3C309.3,131.9,305.8,119.6,302.3,107.5z"/>
		</g>
		
			<linearGradient id="SVGID_1_" gradientUnits="userSpaceOnUse" x1="314.2633" y1="14.5656" x2="377.5479" y2="20.1023" gradientTransform="matrix(0.9659 -0.2588 0.2588 0.9659 -40.7617 203.2892)">
			<stop  offset="0" style="stop-color:#000000;stop-opacity:0.1"/>
			<stop  offset="2.732152e-02" style="stop-color:#060606;stop-opacity:0.1091"/>
			<stop  offset="6.511138e-02" style="stop-color:#181818;stop-opacity:0.1217"/>
			<stop  offset="0.109" style="stop-color:#363636;stop-opacity:0.1363"/>
			<stop  offset="0.1576" style="stop-color:#5F5F5F;stop-opacity:0.1525"/>
			<stop  offset="0.2099" style="stop-color:#939393;stop-opacity:0.17"/>
			<stop  offset="0.2646" style="stop-color:#D2D2D2;stop-opacity:0.1882"/>
			<stop  offset="0.3" style="stop-color:#FFFFFF;stop-opacity:0.2"/>
			<stop  offset="0.3251" style="stop-color:#DADADA;stop-opacity:0.2"/>
			<stop  offset="0.364" style="stop-color:#A7A7A7;stop-opacity:0.2"/>
			<stop  offset="0.4048" style="stop-color:#7B7B7B;stop-opacity:0.2"/>
			<stop  offset="0.4467" style="stop-color:#555555;stop-opacity:0.2"/>
			<stop  offset="0.49" style="stop-color:#363636;stop-opacity:0.2"/>
			<stop  offset="0.5351" style="stop-color:#1E1E1E;stop-opacity:0.2"/>
			<stop  offset="0.5829" style="stop-color:#0D0D0D;stop-opacity:0.2"/>
			<stop  offset="0.6351" style="stop-color:#030303;stop-opacity:0.2"/>
			<stop  offset="0.7" style="stop-color:#000000;stop-opacity:0.2"/>
			<stop  offset="0.843" style="stop-color:#FFFFFF;stop-opacity:5.000000e-02"/>
			<stop  offset="0.9959" style="stop-color:#000105;stop-opacity:0.2"/>
		</linearGradient>
		<path class="st4" d="M332.1,142.1c-19.4-4-38.8,15.4-58.2,18.5c-3.5-13.3-6.9-27.1-10.4-41.7c19.4,4,38.8-15.4,58.2-18.5
			C325.2,113.7,328.7,127.5,332.1,142.1z"/>
	</g>
</g>
<g>
	<path class="st5" d="M32.9,39.9c1.2,1.5,2.5,3.4,4.1,5.7c1.5,2.3,2.6,3.9,3.2,4.6c0.6,0.8,1.1,1.2,1.5,1.2c0.4,0,0.7-0.2,1-0.6
		c0.3-0.4,1.3-2,3.2-4.8c1.8-2.8,3.3-4.9,4.5-6.4c1.2-1.5,2.1-2.2,2.8-2.2c0.7,0,1.6,0,2.7,0c1.1,0,2.4,0,3.9,0.1
		c1.5,0.1,2.5,0.5,3,1.2c0.5,0.7,0.8,1.7,0.9,3C63.9,45,64,49.4,64,55c0,5.6-0.1,9.9-0.4,13.1c-0.1,0.8-0.4,1.5-0.9,2.1
		c-0.5,0.6-1.2,0.9-2.1,0.9c-2,0-4.1,0-6.5,0c-2.4,0-4.3,0-5.7-0.1c-0.5,0-1-0.2-1.4-0.6c-0.4-0.4-0.6-0.9-0.6-1.5L46.1,61
		c0-0.8-0.2-1.2-0.5-1.3c-0.3-0.1-0.6,0.1-0.8,0.6c-1.7,3-3.8,6.4-6.3,10.1c-0.6,0.9-1.4,1.4-2.4,1.4c-1,0-1.8-0.5-2.4-1.4
		c-1.1-1.6-3-5-5.7-10.2c-0.2-0.3-0.3-0.5-0.6-0.6c-0.2-0.1-0.4,0-0.6,0.2c-0.2,0.2-0.2,0.6-0.2,1.1l-0.2,7.9c0,0.6-0.3,1.1-0.8,1.5
		C25,70.8,24.4,71,23.7,71H19c-0.9,0-1.6-0.3-2.1-0.9c-0.5-0.6-0.8-1.2-0.9-2c-0.3-2.8-0.4-7.3-0.4-13.3s0.1-10.4,0.2-13.2
		c0.1-1.3,0.4-2.4,0.9-3.1c0.5-0.7,1.4-1.1,2.7-1.1c6.7,0,10.4,0,10.9,0.1C30.9,37.6,31.7,38.4,32.9,39.9z"/>
	<path class="st5" d="M86.7,72.1c-11.9,0-17.9-4.4-17.9-13.1c0-4.1,1.5-7.3,4.6-9.6c3-2.3,7.5-3.4,13.3-3.4c5.9,0,10.3,1.1,13.3,3.4
		c3,2.3,4.6,5.5,4.6,9.6C104.6,67.7,98.7,72.1,86.7,72.1z M86.7,64.4c1.9,0,2.8-1.8,2.8-5.4c0-1.6-0.2-2.9-0.6-3.8
		c-0.4-0.9-1.1-1.3-2.3-1.3c-1.1,0-1.9,0.4-2.3,1.3c-0.4,0.9-0.6,2.1-0.6,3.8C83.9,62.6,84.8,64.4,86.7,64.4z"/>
	<path class="st5" d="M121.7,71.2l-11-0.1c-0.5,0-1.1-0.1-1.5-0.4c-0.5-0.3-0.7-0.7-0.7-1.2v-2.8c0-0.8,0.2-1.5,0.7-2
		c0.5-0.5,1.4-1.5,2.7-2.9c2.9-3,5.1-5.4,6.6-7.3c0.3-0.4,0.4-0.7,0.3-1c-0.1-0.3-0.3-0.4-0.6-0.4h-7.1c-0.5,0-0.9-0.2-1.1-0.5
		c-0.3-0.3-0.4-0.7-0.4-1.1v-3c0-1.2,0.5-1.9,1.5-1.9c11.8,0,19.6,0,23.5,0c0.5,0,1.1,0.1,1.5,0.4s0.7,0.7,0.7,1.2V51
		c0,0.7-0.3,1.5-1,2.3c-0.7,0.8-2,2.2-4,4.3c-2,2.1-3.7,3.9-5,5.5c-0.3,0.4-0.4,0.7-0.3,1c0.1,0.3,0.3,0.4,0.6,0.4h9
		c0.5,0,0.9,0.2,1.1,0.5c0.3,0.3,0.4,0.7,0.4,1.1v3c0,1.2-0.5,1.9-1.5,1.9L121.7,71.2z"/>
	<path class="st5" d="M154.3,71.2l-11-0.1c-0.5,0-1.1-0.1-1.5-0.4c-0.5-0.3-0.7-0.7-0.7-1.2v-2.8c0-0.8,0.2-1.5,0.7-2
		c0.5-0.5,1.4-1.5,2.7-2.9c2.9-3,5.1-5.4,6.6-7.3c0.3-0.4,0.4-0.7,0.3-1c-0.1-0.3-0.3-0.4-0.6-0.4h-7.1c-0.5,0-0.9-0.2-1.1-0.5
		c-0.3-0.3-0.4-0.7-0.4-1.1v-3c0-1.2,0.5-1.9,1.5-1.9c11.8,0,19.6,0,23.5,0c0.5,0,1.1,0.1,1.5,0.4s0.7,0.7,0.7,1.2V51
		c0,0.7-0.3,1.5-1,2.3c-0.7,0.8-2,2.2-4,4.3c-2,2.1-3.7,3.9-5,5.5c-0.3,0.4-0.4,0.7-0.3,1c0.1,0.3,0.3,0.4,0.6,0.4h9
		c0.5,0,0.9,0.2,1.1,0.5c0.3,0.3,0.4,0.7,0.4,1.1v3c0,1.2-0.5,1.9-1.5,1.9L154.3,71.2z"/>
	<path class="st5" d="M191.5,45.8c10.4,0,15.7,3.4,15.8,10.2c0.1,2.9,0.1,5.5,0.1,7.9c0,2.4,0,4,0,4.8c0,0.8-0.2,1.4-0.6,1.8
		c-0.4,0.4-1.2,0.6-2.3,0.6h-10.2c-1,0-1.7-0.2-2.1-0.6c-0.4-0.4-0.6-0.9-0.6-1.7c0,0,0-0.1,0-0.2c0-0.1,0-0.2,0-0.2
		c-2.1,2.2-5,3.3-8.6,3.3c-2.5,0-4.7-0.6-6.5-1.9s-2.7-3-2.7-5.2c0-2.2,0.6-4,1.9-5.3c1.3-1.3,2.8-2.2,4.5-2.7
		c1.7-0.5,3.6-0.7,5.6-0.7c2,0,4,0.2,5.9,0.6v-0.2c0-1.6-0.3-2.8-0.9-3.5c-0.6-0.7-1.6-1.1-3-1.1c-1.4,0-2.6,0.1-3.5,0.4
		c-0.9,0.2-1.6,0.5-2.1,0.7c-1.3,0.8-2.2,1.2-2.7,1.2c-0.5,0-1-0.2-1.4-0.7c-0.4-0.5-0.6-1.2-0.6-2.2c0-1,0.2-1.7,0.6-2.1
		c0.4-0.4,1-0.8,1.8-1.2C182.4,46.5,186.4,45.8,191.5,45.8z M189.3,65.4c1.4,0,2.1-0.3,2.2-0.8c0.1-1.1,0.1-2.4,0.1-4.2
		c0-0.7-0.5-1-1.5-1c-1,0-1.9,0.2-2.5,0.7c-0.6,0.5-1,1.2-1,2.2s0.3,1.7,0.8,2.3C187.8,65.2,188.5,65.4,189.3,65.4z"/>
	<path class="st5" d="M216.2,46.6h9.4c1.1,0,1.8,0.2,2.3,0.7c0.4,0.5,0.6,1.2,0.6,2.1v1.7c1.8-3.4,4.7-5.1,8.7-5.1
		c1.3,0,2.4,0.4,3.3,1.3c0.9,0.9,1.3,2,1.3,3.5s-0.4,2.9-1.2,4.3c-0.8,1.4-1.8,2.1-3.2,2.1c-0.6,0-1.5-0.3-2.7-1
		c-1.2-0.7-2.1-1-2.8-1c-0.7,0-1.4,0.3-2.2,0.8c-0.8,0.5-1.1,1.4-1.1,2.5c0,5.2-0.1,8.6-0.3,10.2c-0.1,0.5-0.4,1-0.8,1.4
		c-0.4,0.4-1.2,0.7-2.4,0.7c-1.1,0.1-2.3,0.1-3.4,0.1c-1.1,0-3-0.1-5.7-0.2c-0.8,0-1.4-0.3-1.8-0.7c-0.4-0.4-0.7-0.9-0.8-1.4
		c-0.2-2.1-0.3-5.3-0.3-9.6c0-4.3,0.1-7.2,0.2-8.8s0.4-2.6,0.7-3.1C214.4,46.8,215.1,46.6,216.2,46.6z"/>
	<path class="st5" d="M251.3,48c1.5-0.7,3-1.2,4.5-1.6c1.6-0.3,3.5-0.5,5.8-0.5c2.3,0,4.5,0.3,6.6,0.8c2.1,0.6,3.6,1.3,4.7,2.3
		c1.8,1.8,2.7,3.8,2.7,6.2c0,3.7-3.1,5.6-9.4,5.6c-2.2,0-4.5-0.2-6.9-0.6c0.1,2.1,0.5,3.6,1.2,4.5c0.7,0.9,1.9,1.3,3.7,1.3
		c1.8,0,3.2-0.2,4.4-0.6c1.2-0.4,2.1-0.8,2.8-1.2c0.7-0.4,1.3-0.6,1.8-0.6c0.5,0,0.9,0.2,1.3,0.7c0.5,0.6,0.8,1.4,0.8,2.4
		c0,1-0.2,1.7-0.6,2.1c-0.4,0.4-1,0.7-1.9,1.1c-3,1.3-7.4,1.9-13,1.9c-4.6,0-8.5-1.1-11.4-3.3c-3-2.2-4.5-5.2-4.5-9
		c0-1.8,0.3-3.5,1-5c0.7-1.5,1.6-2.8,2.7-3.8C248.6,49.6,249.9,48.8,251.3,48z M262.5,51.5c-2,0-3,1.6-3.2,4.8
		c1.5,0.1,2.3,0.2,2.4,0.2c2.1,0,3.2-0.7,3.2-2.1C264.9,52.4,264.1,51.5,262.5,51.5z"/>
	<path class="st5" d="M283.4,35.9h9.2c1.1,0,1.8,0.2,2.1,0.7c0.4,0.5,0.6,1.3,0.7,2.4c0.2,3.8,0.3,9.1,0.3,15.9s-0.1,11.4-0.4,14
		c-0.1,0.5-0.3,1-0.8,1.4c-0.4,0.4-1.2,0.7-2.4,0.7c-1.1,0.1-2.5,0.1-4,0.1s-2.9,0-4.1-0.1c-2.1-0.2-3.2-0.9-3.3-2.2
		c-0.3-2.8-0.5-7.7-0.5-14.8c0-7.1,0.1-12.1,0.4-15.1c0.1-1.1,0.3-1.9,0.6-2.4C281.7,36.2,282.4,35.9,283.4,35.9z"/>
	<path class="st5" d="M304.6,35.9h9.2c1.1,0,1.8,0.2,2.1,0.7c0.4,0.5,0.6,1.3,0.7,2.4c0.2,3.8,0.3,9.1,0.3,15.9s-0.1,11.4-0.4,14
		c-0.1,0.5-0.3,1-0.8,1.4c-0.4,0.4-1.2,0.7-2.4,0.7c-1.1,0.1-2.5,0.1-4,0.1s-2.9,0-4.1-0.1c-2.1-0.2-3.2-0.9-3.3-2.2
		c-0.3-2.8-0.5-7.7-0.5-14.8c0-7.1,0.1-12.1,0.4-15.1c0.1-1.1,0.3-1.9,0.6-2.4C302.9,36.2,303.5,35.9,304.6,35.9z"/>
	<path class="st5" d="M339.5,45.8c10.4,0,15.7,3.4,15.8,10.2c0.1,2.9,0.1,5.5,0.1,7.9c0,2.4,0,4,0,4.8c0,0.8-0.2,1.4-0.6,1.8
		c-0.4,0.4-1.2,0.6-2.3,0.6h-10.2c-1,0-1.7-0.2-2.1-0.6c-0.4-0.4-0.6-0.9-0.6-1.7c0,0,0-0.1,0-0.2c0-0.1,0-0.2,0-0.2
		c-2.1,2.2-5,3.3-8.6,3.3c-2.5,0-4.7-0.6-6.5-1.9s-2.7-3-2.7-5.2c0-2.2,0.6-4,1.9-5.3c1.3-1.3,2.8-2.2,4.5-2.7
		c1.7-0.5,3.6-0.7,5.6-0.7c2,0,4,0.2,5.9,0.6v-0.2c0-1.6-0.3-2.8-0.9-3.5c-0.6-0.7-1.6-1.1-3-1.1c-1.4,0-2.6,0.1-3.5,0.4
		c-0.9,0.2-1.6,0.5-2.1,0.7c-1.3,0.8-2.2,1.2-2.7,1.2c-0.5,0-1-0.2-1.4-0.7c-0.4-0.5-0.6-1.2-0.6-2.2c0-1,0.2-1.7,0.6-2.1
		c0.4-0.4,1-0.8,1.8-1.2C330.4,46.5,334.4,45.8,339.5,45.8z M337.3,65.4c1.4,0,2.1-0.3,2.2-0.8c0.1-1.1,0.1-2.4,0.1-4.2
		c0-0.7-0.5-1-1.5-1c-1,0-1.9,0.2-2.5,0.7c-0.6,0.5-1,1.2-1,2.2s0.3,1.7,0.8,2.3C335.9,65.2,336.5,65.4,337.3,65.4z"/>
</g>
<ellipse class="st6" cx="186.6" cy="225.6" rx="145" ry="42.1"/>
<g>
	<path class="st7" d="M227.3,237.7c0,0-3.2-13.5,11.1-19.3c14.3-5.8,9.6-14.3,17-17s23.7-6.4,29.8-1.2c6.1,5.3,5,10.2,5,10.2
		s2.9,0.9,3.2,3.2c0.3,2.3-2,14.3-14.9,25.7c-11.8,10.5-33.3,14.9-42.1,9.1C227.5,242.7,227.3,237.7,227.3,237.7z"/>
	<path class="st8" d="M226.8,237.6l1,12.2c0,0,4.7,8.2,17.5,7.9c12.9-0.3,22.2-3.8,33.3-12.9s14.6-29.5,14.6-29.5
		s-3.8,16.7-14.9,24.3s-24,13.5-36.6,11.4C229.2,248.9,226.8,237.6,226.8,237.6z"/>
	<path class="st9" d="M238.1,226.3c10.5-6.4,13.7-17.5,18.7-19.3c5-1.8,16.1-5.6,21.9-3.8"/>
	<path class="st10" d="M239.5,243c0,0-0.6,3.8,9.9,2.9c10.5-0.9,24.3-7.9,24.3-7.9"/>
	<ellipse class="st11" cx="263.5" cy="228.5" rx="2.3" ry="0.7"/>
	<ellipse class="st11" cx="278.1" cy="218.3" rx="2" ry="1"/>
	<ellipse class="st11" cx="256.8" cy="231.5" rx="1.5" ry="1"/>
	<ellipse class="st11" cx="268.5" cy="214.3" rx="1.5" ry="0.9"/>
</g>
<g>
	<path class="st12" d="M180.2,169.9c0,0-7-12.6-27.5-14.3c-20.5-1.8-35.4,2.3-35.4,2.3l-6.4-1.8l-0.6,3.2l-4.7-0.6l-2.3,5.6
		l-3.5,5.8l-4.1-1.8l0.6,3.5c0,0-8.8,7.9-10.2,15.2s-1.5,15.2-1.5,15.2s-1.5,6.7-1.2,9.1c0.3,2.3,3.8,10.2,7,12
		c3.2,1.8,12.9,8.5,25.4,9.6s19.3-2.9,19.3-2.9L180.2,169.9z"/>
	<path class="st13" d="M129,162.9c0,0,7-4.4,15.8-4.4c8.8,0,18.7,1.8,19,3.8s-5.8,6.1-11.4,7.3c-5.6,1.2-30.1,9.1-30.7,5.3
		C121.1,171.1,129,162.9,129,162.9z"/>
	<path class="st14" d="M95.1,176c0,0-4.1,12.3,4.4,16.4s12,3.5,12,3.5s-5.8,6.7-4.7,9.4s3.5,6.1,3.5,7.9c0,1.8-2.3,7-0.3,10.8
		c2,3.8,5.8,9.1,5.8,9.1s-20.2-5-24.3-8.2s-9.6-12.6-9.1-14.6c0.6-2,2.3-9.1,2.3-12.3c0-3.2,1.5-13.7,2.9-15.8S95.1,176,95.1,176z"
		/>
	<path class="st15" d="M84.9,209.4c0,0,2.6,9.4,12,13.7s9.1,3.2,9.1,3.2"/>
	<path class="st16" d="M117.3,165.5c-9.9-0.9-14.3,1.8-14.6,5.3c-0.3,3.5,2.9,11.1,2.9,11.1"/>
	<path class="st16" d="M98.3,174.9c0,0-1.5,4.7,1.2,8.5c2.6,3.8,6.4,5.6,6.4,5.6"/>
	<path class="st7" d="M140.1,226c0,0-7.9,8.5-18.1,2.6c-10.2-5.8-5.3-17-5.3-17l-2.9-4.4c0,0-3.5-9.1,2.6-16.7
		c6.1-7.6,15.8-14,27.8-18.1c12-4.1,23.1-1.5,27.2-1.8c4.1-0.3,6.4-1.8,8.8-0.9c2.3,0.9,8.5,10.2,8.2,16.1
		c-0.3,5.8-5.3,23.4-13.5,28.7S140.1,226,140.1,226z"/>
	<ellipse class="st11" cx="132.2" cy="203.8" rx="2" ry="0.6"/>
	<ellipse class="st11" cx="150.3" cy="187.9" rx="2.3" ry="1"/>
	<ellipse class="st11" cx="172.4" cy="186.3" rx="1" ry="2"/>
	<ellipse class="st11" cx="150.1" cy="209.2" rx="2" ry="1.9"/>
	<ellipse class="st11" cx="131.6" cy="222.7" rx="0.9" ry="1.3"/>
	<ellipse class="st11" cx="130.3" cy="193" rx="0.7" ry="1.2"/>
	<ellipse class="st11" cx="135.9" cy="206.7" rx="2.8" ry="0.6"/>
</g>
<g>
	<path class="st7" d="M201.2,232.8c0,0-3.2-13.5,11.1-19.3c14.3-5.8,9.6-14.3,17-17c7.3-2.6,23.7-6.4,29.8-1.2
		c6.1,5.3,5,10.2,5,10.2s2.9,0.9,3.2,3.2c0.3,2.3-2,14.3-14.9,25.7c-11.8,10.5-33.3,14.9-42.1,9.1
		C201.5,237.7,201.2,232.8,201.2,232.8z"/>
	<path class="st8" d="M200.7,232.7l1,12.2c0,0,4.7,8.2,17.5,7.9s22.2-3.8,33.3-12.9c11.1-9.1,14.6-29.5,14.6-29.5
		s-3.8,16.7-14.9,24.3s-24,13.5-36.6,11.4C203.2,244,200.7,232.7,200.7,232.7z"/>
	<path class="st9" d="M212,221.4c10.5-6.4,13.7-17.5,18.7-19.3s16.1-5.6,21.9-3.8"/>
	<path class="st10" d="M213.5,238c0,0-0.6,3.8,9.9,2.9s24.3-7.9,24.3-7.9"/>
	<ellipse class="st11" cx="237.5" cy="223.6" rx="2.3" ry="0.7"/>
	<ellipse class="st11" cx="252.1" cy="213.3" rx="2" ry="1"/>
	<ellipse class="st11" cx="230.8" cy="226.5" rx="1.5" ry="1"/>
	<ellipse class="st11" cx="242.5" cy="209.4" rx="1.5" ry="0.9"/>
</g>
<g>
	<path class="st7" d="M179.9,229.8c0,0-3.2-13.5,11.1-19.3c14.3-5.8,9.6-14.3,17-17s23.7-6.4,29.8-1.2c6.1,5.3,5,10.2,5,10.2
		s2.9,0.9,3.2,3.2s-2,14.3-14.9,25.7c-11.8,10.5-33.3,14.9-42.1,9.1C180.2,234.8,179.9,229.8,179.9,229.8z"/>
	<path class="st8" d="M179.4,229.7l1,12.2c0,0,4.7,8.2,17.5,7.9s22.2-3.8,33.3-12.9c11.1-9.1,14.6-29.5,14.6-29.5
		s-3.8,16.7-14.9,24.3s-24,13.5-36.6,11.4C181.8,241.1,179.4,229.7,179.4,229.7z"/>
	<path class="st9" d="M190.7,218.4c10.5-6.4,13.7-17.5,18.7-19.3c5-1.8,16.1-5.6,21.9-3.8"/>
	<path class="st10" d="M192.2,235.1c0,0-0.6,3.8,9.9,2.9s24.3-7.9,24.3-7.9"/>
	<ellipse class="st11" cx="216.1" cy="220.6" rx="2.3" ry="0.7"/>
	<ellipse class="st11" cx="230.8" cy="210.4" rx="2" ry="1"/>
	<ellipse class="st11" cx="209.4" cy="223.6" rx="1.5" ry="1"/>
	<ellipse class="st11" cx="221.1" cy="206.5" rx="1.5" ry="0.9"/>
</g>
</svg>
