<?xml version="1.0" encoding="utf-8"?>
<!-- Generator: Adobe Illustrator 22.0.1, SVG Export Plug-In . SVG Version: 6.00 Build 0)  -->
<svg version="1.1" id="Layer_1" xmlns="http://www.w3.org/2000/svg" xmlns:xlink="http://www.w3.org/1999/xlink" x="0px" y="0px"
	 viewBox="0 0 370 300" style="enable-background:new 0 0 370 300;" xml:space="preserve">
<style type="text/css">
	.st0{fill:#F4EFDE;}
	.st1{fill:#4E8A5C;}
	.st2{fill:#FFFFFF;}
	.st3{fill:#C24E45;}
	.st4{display:none;fill:url(#SVGID_1_);}
	.st5{fill:#E08B44;}
	.st6{fill:#C8C7C7;}
	.st7{fill:#D6C181;stroke:#B99B59;stroke-width:1.0945;stroke-linecap:round;stroke-linejoin:round;stroke-miterlimit:10;}
	.st8{fill:#CDB786;}
	.st9{fill:#EFD698;stroke:#D6C181;stroke-width:1.1013;stroke-miterlimit:10;}
	.st10{fill:none;stroke:#DEC992;stroke-width:3.5151;stroke-linecap:round;stroke-linejoin:round;stroke-miterlimit:10;}
	.st11{fill:none;stroke:#E0C78F;stroke-width:3.2835;stroke-linecap:round;stroke-linejoin:round;stroke-miterlimit:10;}
	.st12{fill:#E0C78F;}
	.st13{fill:#EBDCA5;stroke:#D6C181;stroke-width:0.9119;stroke-linecap:round;stroke-linejoin:round;stroke-miterlimit:10;}
	.st14{fill:#F9F7E4;stroke:#D6C181;stroke-width:0.9119;stroke-linecap:round;stroke-linejoin:round;stroke-miterlimit:10;}
	.st15{fill:#FAF0CF;stroke:#D6C181;stroke-width:0.9119;stroke-linecap:round;stroke-linejoin:round;stroke-miterlimit:10;}
	.st16{fill:#D6C181;}
	.st17{fill:#EFD698;}
	.st18{fill:#EBDCA5;stroke:#D6C181;stroke-width:1.1788;stroke-miterlimit:10;}
	.st19{fill:#FAF0CF;stroke:#EFD698;stroke-width:1.1788;stroke-miterlimit:10;}
	.st20{fill:#F9F7E4;stroke:#EFD698;stroke-width:1.1788;stroke-miterlimit:10;}
	.st21{fill:none;stroke:#D6C181;stroke-width:3.5364;stroke-linecap:round;stroke-linejoin:round;stroke-miterlimit:10;}
	.st22{fill:#EFD698;stroke:#EFD698;stroke-width:3.5364;stroke-linecap:round;stroke-linejoin:round;stroke-miterlimit:10;}
</style>
<g>
	<rect transform="matrix(-1 -1.224647e-16 1.224647e-16 -1 370 300)" class="st0" width="370" height="300"/>
</g>
<g>
	<g>
		<g>
			<path id="_x33__8_" class="st1" d="M273.8,100.1c6.5,1.3,12.9,0.1,19.4-2.3c3.5,12.6,6.9,24.8,10.4,37c-6.5,3.2-12.9,6-19.4,7.1
				C280.8,128.5,277.3,114.7,273.8,100.1z"/>
			<path id="_x32__8_" class="st2" d="M293.2,97.8c6.5-2.4,12.9-5.9,19.4-9.1c3.5,12.2,6.9,24.4,10.4,37c-6.5,2.4-12.9,5.9-19.4,9.1
				C300.2,122.6,296.7,110.4,293.2,97.8z"/>
			<path id="_x31__8_" class="st3" d="M312.6,88.7c6.5-3.2,12.9-6,19.4-7.1c3.5,13.3,6.9,27.1,10.4,41.7c-6.5-1.3-12.9-0.1-19.4,2.3
				C319.6,113.1,316.1,100.8,312.6,88.7z"/>
		</g>
		
			<linearGradient id="SVGID_1_" gradientUnits="userSpaceOnUse" x1="329.0752" y1="-0.9205" x2="392.3598" y2="4.6162" gradientTransform="matrix(0.9659 -0.2588 0.2588 0.9659 -40.7617 203.2892)">
			<stop  offset="0" style="stop-color:#000000;stop-opacity:0.1"/>
			<stop  offset="2.732152e-02" style="stop-color:#060606;stop-opacity:0.1091"/>
			<stop  offset="6.511138e-02" style="stop-color:#181818;stop-opacity:0.1217"/>
			<stop  offset="0.109" style="stop-color:#363636;stop-opacity:0.1363"/>
			<stop  offset="0.1576" style="stop-color:#5F5F5F;stop-opacity:0.1525"/>
			<stop  offset="0.2099" style="stop-color:#939393;stop-opacity:0.17"/>
			<stop  offset="0.2646" style="stop-color:#D2D2D2;stop-opacity:0.1882"/>
			<stop  offset="0.3" style="stop-color:#FFFFFF;stop-opacity:0.2"/>
			<stop  offset="0.3251" style="stop-color:#DADADA;stop-opacity:0.2"/>
			<stop  offset="0.364" style="stop-color:#A7A7A7;stop-opacity:0.2"/>
			<stop  offset="0.4048" style="stop-color:#7B7B7B;stop-opacity:0.2"/>
			<stop  offset="0.4467" style="stop-color:#555555;stop-opacity:0.2"/>
			<stop  offset="0.49" style="stop-color:#363636;stop-opacity:0.2"/>
			<stop  offset="0.5351" style="stop-color:#1E1E1E;stop-opacity:0.2"/>
			<stop  offset="0.5829" style="stop-color:#0D0D0D;stop-opacity:0.2"/>
			<stop  offset="0.6351" style="stop-color:#030303;stop-opacity:0.2"/>
			<stop  offset="0.7" style="stop-color:#000000;stop-opacity:0.2"/>
			<stop  offset="0.843" style="stop-color:#FFFFFF;stop-opacity:5.000000e-02"/>
			<stop  offset="0.9959" style="stop-color:#000105;stop-opacity:0.2"/>
		</linearGradient>
		<path class="st4" d="M342.4,123.3c-19.4-4-38.8,15.4-58.2,18.5c-3.5-13.3-6.9-27.1-10.4-41.7c19.4,4,38.8-15.4,58.2-18.5
			C335.5,94.9,339,108.7,342.4,123.3z"/>
	</g>
</g>
<g>
	<path class="st5" d="M49.2,65.3v4c0,1.4-0.9,2.1-2.8,2.2s-3.9,0.1-6.1,0.1s-4.7-0.1-7.5-0.2c-0.9-0.1-1.7-0.4-2.2-1
		c-0.6-0.6-0.9-1.2-1-2c-0.3-2.8-0.4-7.2-0.4-13.3c0-6,0.1-10.4,0.3-13.2s1.6-4.1,4.2-4.2c3-0.1,6.2-0.1,9.6-0.1c3.4,0,7.1,0,11,0.1
		c4,0.1,7.2,1.6,9.7,4.5s3.7,6,3.7,9.5s-1.1,6.3-3.3,8.5c-2.2,2.2-5.4,3.4-9.7,3.4h-3.7c-0.4,0-0.8,0.1-1.2,0.4
		C49.4,64.5,49.2,64.9,49.2,65.3z M49.2,47.9l0.1,8.9c0,0.6,0.3,0.9,1,0.9c2,0,3.5-0.6,4.7-1.7c1.1-1.1,1.7-2.4,1.7-3.9
		s-0.5-2.8-1.6-3.9c-1.1-1.1-2.6-1.6-4.7-1.6C49.6,46.6,49.2,47,49.2,47.9z"/>
	<path class="st5" d="M89.2,46.3c10.4,0,15.7,3.4,15.8,10.2c0.1,2.9,0.1,5.5,0.1,7.9c0,2.4,0,4,0,4.8c0,0.8-0.2,1.4-0.6,1.8
		c-0.4,0.4-1.2,0.6-2.3,0.6H91.9c-1,0-1.7-0.2-2.1-0.6c-0.4-0.4-0.6-0.9-0.6-1.7c0,0,0-0.1,0-0.2c0-0.1,0-0.2,0-0.2
		c-2.1,2.2-5,3.3-8.6,3.3c-2.5,0-4.7-0.6-6.5-1.9s-2.7-3-2.7-5.2c0-2.2,0.6-4,1.9-5.3c1.3-1.3,2.8-2.2,4.5-2.7
		c1.7-0.5,3.6-0.7,5.6-0.7c2,0,4,0.2,5.9,0.6v-0.2c0-1.6-0.3-2.8-0.9-3.5c-0.6-0.7-1.6-1.1-3-1.1c-1.4,0-2.6,0.1-3.5,0.4
		c-0.9,0.2-1.6,0.5-2.1,0.7c-1.3,0.8-2.2,1.2-2.7,1.2c-0.5,0-1-0.2-1.4-0.7c-0.4-0.5-0.6-1.2-0.6-2.2c0-1,0.2-1.7,0.6-2.1
		c0.4-0.4,1-0.8,1.8-1.2C80.1,46.9,84.1,46.3,89.2,46.3z M87,65.9c1.4,0,2.1-0.3,2.2-0.8c0.1-1.1,0.1-2.4,0.1-4.2c0-0.7-0.5-1-1.5-1
		c-1,0-1.9,0.2-2.5,0.7c-0.6,0.5-1,1.2-1,2.2s0.3,1.7,0.8,2.3C85.5,65.6,86.2,65.9,87,65.9z"/>
	<path class="st5" d="M113.9,47h9.4c1.1,0,1.8,0.2,2.3,0.7c0.4,0.5,0.6,1.2,0.6,2.1v1.7c1.8-3.4,4.7-5.1,8.7-5.1
		c1.3,0,2.4,0.4,3.3,1.3c0.9,0.9,1.3,2,1.3,3.5c0,1.4-0.4,2.9-1.2,4.3c-0.8,1.4-1.8,2.1-3.2,2.1c-0.6,0-1.5-0.3-2.7-1s-2.1-1-2.8-1
		c-0.7,0-1.4,0.3-2.2,0.8c-0.8,0.5-1.1,1.4-1.1,2.5c0,5.2-0.1,8.6-0.3,10.2c-0.1,0.5-0.4,1-0.8,1.4c-0.4,0.4-1.2,0.7-2.4,0.7
		c-1.1,0.1-2.3,0.1-3.4,0.1c-1.1,0-3-0.1-5.7-0.2c-0.8,0-1.4-0.3-1.8-0.7c-0.4-0.4-0.7-0.9-0.8-1.4c-0.2-2.1-0.3-5.3-0.3-9.6
		s0.1-7.2,0.2-8.8s0.4-2.6,0.7-3.1C112.1,47.3,112.8,47,113.9,47z"/>
	<path class="st5" d="M183.5,69.4l0-11.7c0-1-0.2-1.7-0.7-2.2c-0.5-0.5-1.1-0.7-1.8-0.7c-0.7,0-1.4,0.2-2,0.7
		c-0.6,0.5-0.9,1.2-0.9,2.1l0,7c0,2.2,0,3.7,0,4.6c0,0.8-0.2,1.4-0.6,1.8c-0.4,0.4-1.2,0.6-2.3,0.6l-9.2,0.1c-1,0-1.7-0.2-2.1-0.6
		c-0.4-0.4-0.6-0.9-0.6-1.7l0-11.7c0-1-0.2-1.7-0.7-2.2c-0.5-0.5-1.1-0.7-1.8-0.7c-0.7,0-1.4,0.2-2,0.7c-0.6,0.5-0.9,1.2-0.9,2.1
		v2.9c0,4.2-0.1,7.1-0.3,8.6c-0.1,0.5-0.4,1-0.8,1.4c-0.4,0.4-1.2,0.7-2.4,0.7c-1.1,0.1-2.3,0.1-3.4,0.1c-1.1,0-3-0.1-5.7-0.2
		c-0.8,0-1.4-0.3-1.8-0.7c-0.4-0.4-0.7-0.9-0.8-1.4c-0.2-2.1-0.3-5.3-0.3-9.6s0.1-7.2,0.2-8.8s0.4-2.6,0.7-3.1
		c0.4-0.5,1.1-0.7,2.2-0.7h9.4c1.1,0,1.8,0.2,2.2,0.7c0.4,0.5,0.6,1.3,0.7,2.4v0c2.5-2.6,5.6-3.8,9.4-3.8c2.3,0,4.4,0.4,6.1,1.3
		c1.7,0.9,3,2.2,3.8,3.9c1.1-1.7,2.5-3,4.3-3.9c1.8-0.9,3.8-1.3,6-1.3c3.3,0,5.9,0.9,7.9,2.6c2,1.7,3,4.1,3.1,7.2s0.1,5.8,0.1,8.2
		c0,2.4,0,4,0,4.8c0,0.8-0.2,1.4-0.6,1.8c-0.4,0.4-1.2,0.6-2.3,0.6l-9.2,0.1c-1,0-1.7-0.2-2.1-0.6C183.7,70.7,183.5,70.1,183.5,69.4
		z"/>
	<path class="st5" d="M210.4,48.5c1.5-0.7,3-1.2,4.5-1.6c1.6-0.3,3.5-0.5,5.8-0.5c2.3,0,4.5,0.3,6.6,0.8c2.1,0.6,3.6,1.3,4.7,2.3
		c1.8,1.8,2.7,3.8,2.7,6.2c0,3.7-3.1,5.6-9.4,5.6c-2.2,0-4.5-0.2-6.9-0.6c0.1,2.1,0.5,3.6,1.2,4.5c0.7,0.9,1.9,1.3,3.7,1.3
		c1.8,0,3.2-0.2,4.4-0.6c1.2-0.4,2.1-0.8,2.8-1.2c0.7-0.4,1.3-0.6,1.8-0.6c0.5,0,0.9,0.2,1.3,0.7c0.5,0.6,0.8,1.4,0.8,2.4
		s-0.2,1.7-0.6,2.1c-0.4,0.4-1,0.7-1.9,1.1c-3,1.3-7.4,1.9-13,1.9c-4.6,0-8.5-1.1-11.4-3.3c-3-2.2-4.5-5.2-4.5-9c0-1.8,0.3-3.5,1-5
		c0.7-1.5,1.6-2.8,2.7-3.8C207.6,50.1,208.9,49.2,210.4,48.5z M221.5,51.9c-2,0-3,1.6-3.2,4.8c1.5,0.1,2.3,0.2,2.4,0.2
		c2.1,0,3.2-0.7,3.2-2.1C223.9,52.9,223.1,51.9,221.5,51.9z"/>
	<path class="st5" d="M249.9,65.2c0-0.9-0.4-1.6-1.1-2.1c-0.8-0.5-1.7-0.9-2.7-1.2c-1.1-0.3-2.2-0.6-3.2-1c-1.1-0.4-2-1-2.8-1.9
		c-0.8-0.9-1.1-2.1-1.1-3.6c0-6,4.6-8.9,13.9-8.9c4,0,7.2,0.7,9.6,2c0.8,0.4,1.3,0.8,1.6,1.2c0.3,0.4,0.5,1,0.5,1.9
		c0,0.9-0.2,1.6-0.6,2.1c-0.4,0.5-0.7,0.7-1.1,0.7c-0.4,0-1.2-0.4-2.4-1.1c-1.2-0.7-2.5-1.1-3.8-1.1c-1.1,0-1.6,0.5-1.6,1.6
		c0,0.7,0.4,1.3,1.1,1.7c0.7,0.4,1.6,0.8,2.7,1.1c1.1,0.3,2.1,0.7,3.2,1.1c1.1,0.4,2,1.2,2.7,2.2c0.7,1,1.1,2.3,1.1,3.8
		c0,6-4.6,8.9-13.9,8.9c-4.5,0-8.2-0.7-11-2c-0.9-0.4-1.5-0.7-1.9-1.1c-0.4-0.4-0.6-1-0.6-2c0-1,0.2-1.7,0.6-2.1
		c0.4-0.4,0.7-0.6,1-0.6c0.3,0,1.2,0.4,2.8,1.1c1.6,0.7,3.2,1.1,4.8,1.1C249.1,66.9,249.9,66.3,249.9,65.2z"/>
	<path class="st5" d="M287.5,46.3c10.4,0,15.7,3.4,15.8,10.2c0.1,2.9,0.1,5.5,0.1,7.9c0,2.4,0,4,0,4.8c0,0.8-0.2,1.4-0.6,1.8
		c-0.4,0.4-1.2,0.6-2.3,0.6h-10.2c-1,0-1.7-0.2-2.1-0.6c-0.4-0.4-0.6-0.9-0.6-1.7c0,0,0-0.1,0-0.2c0-0.1,0-0.2,0-0.2
		c-2.1,2.2-5,3.3-8.6,3.3c-2.5,0-4.7-0.6-6.5-1.9s-2.7-3-2.7-5.2c0-2.2,0.6-4,1.9-5.3c1.3-1.3,2.8-2.2,4.5-2.7
		c1.7-0.5,3.6-0.7,5.6-0.7c2,0,4,0.2,5.9,0.6v-0.2c0-1.6-0.3-2.8-0.9-3.5c-0.6-0.7-1.6-1.1-3-1.1c-1.4,0-2.6,0.1-3.5,0.4
		c-0.9,0.2-1.6,0.5-2.1,0.7c-1.3,0.8-2.2,1.2-2.7,1.2c-0.5,0-1-0.2-1.4-0.7c-0.4-0.5-0.6-1.2-0.6-2.2c0-1,0.2-1.7,0.6-2.1
		c0.4-0.4,1-0.8,1.8-1.2C278.3,46.9,282.3,46.3,287.5,46.3z M285.2,65.9c1.4,0,2.1-0.3,2.2-0.8c0.1-1.1,0.1-2.4,0.1-4.2
		c0-0.7-0.5-1-1.5-1c-1,0-1.9,0.2-2.5,0.7c-0.6,0.5-1,1.2-1,2.2s0.3,1.7,0.8,2.3C283.8,65.6,284.4,65.9,285.2,65.9z"/>
	<path class="st5" d="M329.9,69.4l0-11.7c0-1-0.2-1.7-0.7-2.2c-0.5-0.5-1.1-0.7-1.8-0.7c-0.7,0-1.4,0.2-2,0.7
		c-0.6,0.5-0.9,1.2-0.9,2.1v2.9c0,4.2-0.1,7.1-0.3,8.6c-0.1,0.5-0.4,1-0.8,1.4c-0.4,0.4-1.2,0.7-2.4,0.7c-1.1,0.1-2.3,0.1-3.4,0.1
		c-1.1,0-3-0.1-5.7-0.2c-0.8,0-1.4-0.3-1.8-0.7c-0.4-0.4-0.7-0.9-0.8-1.4c-0.2-2.1-0.3-5.3-0.3-9.6s0.1-7.2,0.2-8.8s0.4-2.6,0.7-3.1
		c0.4-0.5,1.1-0.7,2.2-0.7h9.4c1.1,0,1.8,0.2,2.2,0.7c0.4,0.5,0.6,1.3,0.7,2.4v0c2.5-2.6,5.5-3.8,9-3.8c3.5,0,6.3,0.9,8.3,2.6
		c2,1.7,3,4.1,3.1,7.2s0.1,5.8,0.1,8.2c0,2.4,0,4,0,4.8s-0.2,1.4-0.6,1.8c-0.4,0.4-1.2,0.6-2.3,0.6l-9.2,0.1c-1,0-1.7-0.2-2.1-0.6
		C330.1,70.7,329.9,70.1,329.9,69.4z"/>
</g>
<ellipse class="st6" cx="181.5" cy="223.7" rx="143.9" ry="41.8"/>
<g>
	<path class="st7" d="M93.8,150.3c0,0-6.3,5.7-7.1,10.9c-0.8,5.2-3.7,28.8,1.1,42.7c4.5,13.1,22.4,19.8,24.9,21.3
		c10.1,2.4,61.8,5.2,89.8-2.2c29.1-7.7,26.8-43,26.8-43s-1.4-20.5-4.4-25.7C221.9,149.3,93.8,150.3,93.8,150.3z"/>
	<path class="st8" d="M95.7,160.2c0,0-3.8,13.1-2.7,24.4c1.1,11.2,1.4,22.2,4.9,27.6c3.6,5.5,10.9,11.8,10.9,11.8l25.2,3.3
		c0,0-11.8-9.3-13.4-28.7c-1.6-19.4,3-30.6,3-30.6L95.7,160.2z"/>
	<ellipse class="st9" cx="158.5" cy="153.1" rx="66.9" ry="17.8"/>
	<path class="st10" d="M223.5,159.9c0,0-1.6,5.8-16.5,9.2c-14.9,3.4-35.8,5-35.8,5"/>
	<path class="st11" d="M116,143.8c0,0-13.1,0.8-14.2,6c-1.1,5.2,2.7,7.1,7.9,9.6s32.6,5.5,32.6,5.5"/>
	<ellipse class="st12" cx="158.7" cy="152.7" rx="30.9" ry="7.5"/>
</g>
<g>
	<polygon class="st13" points="108.4,228.9 114.8,218.6 131.5,223.8 140.7,221.3 150.1,230.2 131.8,235.3 121.2,236.2 106.9,234.4 	
		"/>
	<path class="st13" d="M150.4,216.5"/>
	<polygon class="st14" points="142.2,214.1 149.2,216.2 152.8,226.8 150.1,230.2 140.7,221.3 131.8,223.6 114.8,218.6 	"/>
	<polygon class="st13" points="145.2,236.5 159.2,230.8 170.4,236.2 168,242.9 151.9,244.4 	"/>
	<polyline class="st15" points="163.3,228.6 175.5,231.1 176.4,236.9 173.6,243.8 168.5,242.9 170.9,236.2 159.7,230.8 162.8,228.5 
		144.5,236.5 	"/>
	<polygon class="st15" points="114.4,245.7 119.4,251 129,249.6 131.8,242.3 126.4,242.6 	"/>
	<path class="st13" d="M135,244"/>
	<polygon class="st13" points="131.8,253.1 135.2,247 132.3,242.8 129.1,248.9 119.4,251 113.8,245.7 117.6,252.2 	"/>
	<polygon class="st15" points="140.7,221.3 149.2,216.2 152.8,226.8 150.1,230.2 141,222.1 	"/>
	<polygon class="st14" points="170.9,236.2 175.5,231.1 162.8,228.5 159.7,230.8 	"/>
	<polygon class="st16" points="109.5,227.9 120.3,235.2 122.1,231.7 119.1,230.8 116.2,227.7 	"/>
	<polygon class="st16" points="127.9,231.7 126.4,228.2 131.1,228.6 	"/>
	<polygon class="st16" points="135.8,229.1 144,228.2 138.7,231.4 	"/>
	<polygon class="st16" points="116.8,223.5 119.7,224.4 117.6,222.4 	"/>
	<polygon class="st16" points="129.4,251.4 133.2,248.6 131.5,247.6 	"/>
	<polygon class="st16" points="156.6,240.3 163.2,239 161.9,237.2 	"/>
	<polygon class="st16" points="148.6,237.8 151.6,240.2 153.6,238.7 161,235.6 155.7,234.7 153.1,237.8 147.8,237.6 	"/>
	<polygon class="st16" points="163.2,240.7 167,238.5 166,240.3 	"/>
	<polygon class="st16" points="139.7,224.2 133.7,226.2 137.8,226.5 	"/>
	<polyline class="st16" points="131.8,223.6 128.7,225.5 126.7,222.3 	"/>
	<polygon class="st16" points="128.4,249.5 126.4,252.4 123.8,250.1 	"/>
	<polygon class="st16" points="151.9,234.1 160.1,233.1 159.2,230.8 	"/>
	<polygon class="st17" points="167.9,236.7 169.8,236.5 165.6,233.8 	"/>
	<polygon class="st17" points="135.8,220.3 140.8,218.8 141.9,215.7 138.1,218.8 130.3,220.1 	"/>
	<polygon class="st17" points="147,222 147.8,223.9 148.7,221 	"/>
	<polygon class="st17" points="131.1,218 121.7,219.4 127.1,220.3 	"/>
	<polygon class="st17" points="166,231.7 169.4,233.4 165.7,230.8 	"/>
	<polygon class="st17" points="121.1,247.6 127.3,247.6 128.4,245.5 	"/>
	<polygon class="st17" points="118.6,246.4 123.8,245.2 120.3,244.8 	"/>
</g>
<g>
	<path class="st18" d="M186.9,225.7l11-35l0.4-6.3l3.5-7.5l3.9-9.4v-5.1l5.5-18.5l2.8-9.8l7.9,2.4l9.4,1.2l5.1-0.8l0.8,6.3l2.4,11.4
		l2.4,13.4l-2.4,11l3.1,9.8l2,8.3l-0.4,5.1l1.6,18.1l3.1,23.6c0,0-20.8,2.4-32.2-0.4S186.9,225.7,186.9,225.7z"/>
	<polygon class="st19" points="275.7,226.9 271,212 268.6,210 268.6,205.7 264.3,193.5 262.7,184.9 257.6,175.4 254.9,165.6 
		248.2,151.1 246.2,139.7 243.1,134.2 234.4,137.3 241.9,168 239.5,179 242.7,188.8 244.3,202.2 245.8,220.2 249,243.8 	"/>
	<polygon class="st20" points="214,134.2 223,130.7 241.5,133.8 231.7,139.3 	"/>
	<path class="st21" d="M189.6,223.8c0,0,15.7,13.8,23.2,15.7s33.8,1.2,33.8,1.2"/>
	<line class="st22" x1="251.3" y1="238.3" x2="272.2" y2="224.2"/>
	<polyline class="st16" points="238,179.8 205,189.2 219.1,188.4 226.2,193.1 232.9,186.8 238.8,185.3 239.5,179 	"/>
	<polygon class="st16" points="221.9,210.4 236.8,207.3 241.9,204.5 241.9,209.2 238.4,213.2 223,213.6 206.1,214.7 	"/>
	<polygon class="st16" points="205.7,165.6 216,160.9 214.8,166 205.7,167.6 	"/>
	<polygon class="st16" points="229.7,143.6 225,147.2 228.9,146 	"/>
	<polygon class="st16" points="230.1,160.9 227.4,166.8 232.5,164.4 	"/>
	<polygon class="st16" points="220.7,233.2 228.1,229.3 223.8,227.7 	"/>
	<polygon class="st16" points="203.8,218.3 203.8,214 201,217.1 	"/>
	<polygon class="st16" points="229.3,195.5 224.6,198.2 228.1,201.4 	"/>
	<polygon class="st16" points="205,199 201.8,203.7 207.3,206.1 	"/>
	<polygon class="st16" points="239.9,229.7 238.4,222.6 237.2,226.5 	"/>
	<polygon class="st17" points="254.1,211.6 257.6,207.7 257.6,212 	"/>
	<polygon class="st17" points="252.1,225.3 259.6,219.5 269,212.8 263.9,223.4 	"/>
	<polygon class="st17" points="252.9,198.6 261.9,191.9 258.4,198.2 	"/>
	<polygon class="st17" points="243.9,168.8 244.3,177.4 248.6,176.2 	"/>
	<polygon class="st17" points="242.3,146.8 245.4,153.4 241.1,150.3 	"/>
	<polygon class="st17" points="255.3,180.9 250.5,185.7 256.8,184.9 	"/>
</g>
</svg>
