<?xml version="1.0" encoding="utf-8"?>
<!-- Generator: Adobe Illustrator 22.0.1, SVG Export Plug-In . SVG Version: 6.00 Build 0)  -->
<svg version="1.1" id="Layer_1" xmlns="http://www.w3.org/2000/svg" xmlns:xlink="http://www.w3.org/1999/xlink" x="0px" y="0px"
	 viewBox="0 0 1203.9 295" style="enable-background:new 0 0 1203.9 295;" xml:space="preserve">
<style type="text/css">
	.st0{fill:#F4EFDE;}
	.st1{fill:#FFFFFF;}
	.st2{fill:#C8C7C7;}
	.st3{fill:none;stroke:#F4EFDE;stroke-width:2;stroke-miterlimit:10;}
</style>
<g>
	<path class="st0" d="M1071,295l37.7-94.8c0,0,5.3-33.8,52.3-36.2c35.8-1.8,31.2-18.7,31.2-18.7l0,0H1071V295z"/>
	<path class="st0" d="M1071,0l37.7,91.1c0,0,5.8,28.7,52.3,36.2c26.2,4.2,26.2,4.2,26.2,4.2l5,13.7L1071,146V0z"/>
	<rect x="132.7" transform="matrix(-1 -1.224647e-16 1.224647e-16 -1 1203.7141 295)" class="st0" width="938.3" height="295"/>
	<circle class="st0" cx="1171.9" cy="146.9" r="32"/>
	<circle class="st1" cx="1171.9" cy="146.9" r="15.3"/>
	<path class="st0" d="M132.9,295l-37.7-94.8c0,0-5.3-33.8-52.3-36.2c-35.8-1.8-31.2-18.7-31.2-18.7l0,0h121.2L132.9,295z"/>
	<path class="st0" d="M132.9,0L95.2,91.1c0,0-5.8,28.7-52.3,36.2c-26.2,4.2-26.2,4.2-26.2,4.2l-5,13.7l121.2,0.8L132.9,0z"/>
	<circle class="st0" cx="32" cy="146.9" r="32"/>
	<circle class="st1" cx="32" cy="146.9" r="15.3"/>
	<path class="st2" d="M979.8,37h38.8c0,0,13.2,53.9,9.9,71.9c-3.3,18-7.6,35.5-35.9,47.7c-9.9,4.3-7.6,88.4-2.4,93.6
		s31.2,11.3,31.2,11.3h-41.6L979.8,37z"/>
	<path class="st2" d="M980.4,37h-37.8c0,0-13.2,53.9-9.9,71.9c3.3,18,7.6,35.5,35.9,47.7c9.9,4.3,7.6,88.4,2.4,93.6
		c-5.2,5.2-31.2,11.3-31.2,11.3h41.6L980.4,37z"/>
	<path class="st0" d="M936.8,93.7c0,0,12.3-9.9,30.3-3.8s35.5,17,44,17s12.3,0,12.3,0s-8,43.5-42.1,43.5S937.8,113.6,936.8,93.7z"/>
	<circle class="st2" cx="297.2" cy="148.1" r="96.3"/>
	<circle class="st3" cx="297.2" cy="148.1" r="60.5"/>
	<g>
		<path class="st2" d="M170.2,76.6c0,0-16.9,56,9.8,55.6c26.6-0.4,9.4-56.4,9.4-56.4s0.8,34.5-2.4,34.9c-3.1,0.4-3.9-34.9-3.9-34.9
			s0.6,34.7-2.7,34.9c-3.1,0.1-3.1-34.9-3.1-34.9s-0.4,34.6-2.7,34.9C171,111,170.2,76.6,170.2,76.6z"/>
		<path class="st2" d="M179.8,217.8c16.1-0.2,6.9-44.9,5.1-60.7c-1.5-13.9-1.6-26.5-1.6-26.5l-7.1-0.4c0,0,0.8,9.2-1,26.3
			S166.2,218,179.8,217.8z"/>
	</g>
	<path class="st2" d="M420.9,74.6c0,0-0.6,61.5,0,67.4s12.1,77-2.7,77c-16.3,0-7.4-58.6-3.9-76.2l-8.2-0.2c0,0-2.9-36.4,0.2-48.4
		C409.3,82.2,413,77,420.9,74.6z"/>
</g>
</svg>
