<?xml version="1.0" encoding="utf-8"?>
<!-- Generator: Adobe Illustrator 22.0.1, SVG Export Plug-In . SVG Version: 6.00 Build 0)  -->
<svg version="1.1" id="Layer_1" xmlns="http://www.w3.org/2000/svg" xmlns:xlink="http://www.w3.org/1999/xlink" x="0px" y="0px"
	 viewBox="0 0 370 300" style="enable-background:new 0 0 370 300;" xml:space="preserve">
<style type="text/css">
	.st0{fill:#F4EFDE;}
	.st1{fill:#D14A44;}
	.st2{fill:#FFFFFF;}
	.st3{display:none;fill:url(#SVGID_1_);}
	.st4{fill:#E08B44;}
	.st5{fill:#C8C7C7;}
	.st6{fill:#F8DE97;stroke:#E29451;stroke-width:1.1693;stroke-miterlimit:10;}
	.st7{fill:#F2D38D;}
	.st8{fill:#EFBC4B;stroke:#E2A949;stroke-width:1.169;stroke-miterlimit:10;}
	.st9{fill:#F3C96A;}
	.st10{fill:#ECB148;stroke:#E2A949;stroke-width:1.169;stroke-miterlimit:10;}
	.st11{fill:none;stroke:#E2A949;stroke-width:3.507;stroke-linecap:round;stroke-linejoin:round;stroke-miterlimit:10;}
	.st12{fill:#E4C97F;}
	.st13{fill:#D9B973;}
	.st14{fill:#ECB148;stroke:#E2A949;stroke-width:1.0153;stroke-miterlimit:10;}
	.st15{fill:#F8DE97;stroke:#E29451;stroke-width:1.0153;stroke-linecap:round;stroke-linejoin:round;stroke-miterlimit:10;}
	.st16{fill:#F8DE97;}
	.st17{fill:none;stroke:#E2A949;stroke-width:3.046;stroke-linecap:round;stroke-linejoin:round;stroke-miterlimit:10;}
	.st18{fill:#ECB148;stroke:#E2A949;stroke-width:1.0153;stroke-linecap:round;stroke-linejoin:round;stroke-miterlimit:10;}
</style>
<g>
	<rect transform="matrix(-1 -1.224647e-16 1.224647e-16 -1 370 300)" class="st0" width="370" height="300"/>
</g>
<g>
	<g>
		<g>
			<path id="_x33__11_" class="st1" d="M256.5,101.9c15.1,5,30.2-11.4,45.3-15.5c4,15.1,8.1,31.1,12.1,48.6
				c-15.1-5-30.2,11.4-45.3,15.5C264.6,135.4,260.6,119.5,256.5,101.9z"/>
			<path id="_x32__12_" class="st2" d="M270,121.3c9.4-3,18.9-10.4,28.3-14c0.8,2.7,1.5,5.5,2.3,8.3c-9.4,3-18.9,10.4-28.3,14
				C271.5,126.9,270.7,124.1,270,121.3z"/>
			<path id="_x31__11_" class="st2" d="M277.2,107.7c2.8-1.4,5.7-3,8.5-4.6c2.5,8.7,5.1,17.4,7.6,26.2c-2.8,1.4-5.7,3-8.5,4.6
				C282.3,125.3,279.7,116.6,277.2,107.7z"/>
		</g>
		
			<linearGradient id="SVGID_1_" gradientUnits="userSpaceOnUse" x1="495.2466" y1="75.1716" x2="545.8699" y2="79.6005" gradientTransform="matrix(0.9659 -0.2588 0.2588 0.9659 -237.6011 178.4927)">
			<stop  offset="0" style="stop-color:#000000;stop-opacity:0.1"/>
			<stop  offset="2.732152e-02" style="stop-color:#060606;stop-opacity:0.1091"/>
			<stop  offset="6.511138e-02" style="stop-color:#181818;stop-opacity:0.1217"/>
			<stop  offset="0.109" style="stop-color:#363636;stop-opacity:0.1363"/>
			<stop  offset="0.1576" style="stop-color:#5F5F5F;stop-opacity:0.1525"/>
			<stop  offset="0.2099" style="stop-color:#939393;stop-opacity:0.17"/>
			<stop  offset="0.2646" style="stop-color:#D2D2D2;stop-opacity:0.1882"/>
			<stop  offset="0.3" style="stop-color:#FFFFFF;stop-opacity:0.2"/>
			<stop  offset="0.3251" style="stop-color:#DADADA;stop-opacity:0.2"/>
			<stop  offset="0.364" style="stop-color:#A7A7A7;stop-opacity:0.2"/>
			<stop  offset="0.4048" style="stop-color:#7B7B7B;stop-opacity:0.2"/>
			<stop  offset="0.4467" style="stop-color:#555555;stop-opacity:0.2"/>
			<stop  offset="0.49" style="stop-color:#363636;stop-opacity:0.2"/>
			<stop  offset="0.5351" style="stop-color:#1E1E1E;stop-opacity:0.2"/>
			<stop  offset="0.5829" style="stop-color:#0D0D0D;stop-opacity:0.2"/>
			<stop  offset="0.6351" style="stop-color:#030303;stop-opacity:0.2"/>
			<stop  offset="0.7" style="stop-color:#000000;stop-opacity:0.2"/>
			<stop  offset="0.843" style="stop-color:#FFFFFF;stop-opacity:5.000000e-02"/>
			<stop  offset="0.9959" style="stop-color:#000105;stop-opacity:0.2"/>
		</linearGradient>
		<path class="st3" d="M314,135.1c-15.1-5-30.2,11.4-45.3,15.5c-4-15.1-8.1-31.1-12.1-48.6c15.1,5,30.2-11.4,45.3-15.5
			C305.9,101.6,309.9,117.6,314,135.1z"/>
	</g>
</g>
<g>
	<path class="st4" d="M94.2,72c-2.4-0.6-4.1-1.2-5-1.8c-1-0.6-1.6-1-1.9-1.3c-0.8-0.7-1.2-1.6-1.2-2.8c0-0.9,0.1-1.8,0.3-2.6
		c0.4-1.6,1.2-2.4,2.3-2.4c0.4,0,1.5,0.4,3.4,1.1c1.9,0.7,3.4,1.1,4.5,1.1c1.6,0,2.4-0.6,2.4-1.9c0-0.8-0.4-1.5-1.2-2.1
		c-0.8-0.7-1.8-1.3-2.9-1.9c-1.1-0.6-2.3-1.3-3.4-2.1c-1.2-0.8-2.1-1.9-2.9-3.3c-0.8-1.4-1.2-3-1.2-4.9c0-3.1,1.5-5.5,4.5-7.2
		c3-1.7,6.9-2.6,11.7-2.6s8.6,0.5,11.4,1.5c2.8,1,4.2,2.3,4.2,4.1c0,1.2-0.3,2.3-0.9,3.3c-0.6,0.9-1.2,1.4-1.8,1.4
		c-0.2,0-1-0.2-2.2-0.7c-1.3-0.5-2.4-0.7-3.4-0.7c-2,0-3,0.8-3,2.4c0,0.8,0.5,1.5,1.4,2.1c1,0.6,2.1,1.3,3.5,1.8
		c1.4,0.6,2.7,1.3,4.1,2c1.4,0.7,2.5,1.7,3.5,3c1,1.3,1.4,2.8,1.4,4.7c0,1.8-0.6,3.5-1.8,5c-1.2,1.5-2.7,2.7-4.6,3.5
		c-3.8,1.6-8.2,2.4-13.2,2.4C99.2,72.9,96.6,72.6,94.2,72z"/>
	<path class="st4" d="M175.8,47.5c0.6,0,1,0.4,1,1.2c0,0.3-0.1,0.8-0.4,1.5c-0.3,0.8-0.9,2.5-1.8,5.1c-0.9,2.6-1.6,4.6-2,5.8
		c-1.2,3.4-2.6,6.5-4,9.2c-0.4,0.8-1.3,1.5-2.4,1.9c-1.2,0.4-2.6,0.7-4.1,0.7s-3.1-0.2-4.6-0.7c-1.5-0.5-2.5-1.2-3-2.2
		s-1.2-2.5-2-4.4c-0.8-2-1.3-3.1-1.4-3.5c-1.6,4.4-2.7,7.1-3.2,8c-0.5,0.9-1.3,1.6-2.5,2.1c-1.2,0.4-2.6,0.7-4.1,0.7
		c-1.6,0-3.1-0.2-4.6-0.7c-1.5-0.5-2.5-1.1-3-2c-2.7-5.2-5.5-11.6-8.3-19.1c-0.3-0.8-0.4-1.5-0.4-2c0-1.1,0.6-1.7,1.9-1.7h10.1
		c1.2,0,2,0.2,2.6,0.5c0.6,0.3,1,0.9,1.2,1.8l2.2,8.4c0.1,0.4,0.4,0.6,0.8,0.6c0.4,0,0.7-0.2,0.8-0.6l4-8.5c0.6-1.5,1.6-2.2,2.9-2.2
		h5.2c1.1,0,1.9,0.2,2.5,0.5c0.6,0.3,1,0.9,1.4,1.8l3.3,8.4c0.1,0.4,0.4,0.6,0.8,0.6s0.7-0.2,0.8-0.6l3.7-9.5
		c0.2-0.5,0.4-0.8,0.6-0.9c0.2-0.1,0.6-0.2,1-0.2H175.8z"/>
	<path class="st4" d="M183.7,47.6h9.4c1.1,0,1.8,0.2,2.2,0.7c0.4,0.5,0.6,1.5,0.7,3.2c0.1,1.6,0.2,4.7,0.2,9s-0.1,7.4-0.3,9.2
		c-0.1,0.5-0.4,1-0.8,1.4c-0.4,0.4-1.2,0.7-2.4,0.7c-1.1,0.1-2.5,0.1-4.1,0.1c-1.6,0-3,0-4.3-0.1c-1.3-0.1-2.1-0.3-2.6-0.7
		c-0.4-0.4-0.7-0.9-0.8-1.4c-0.2-2.1-0.3-5.3-0.3-9.6c0-4.3,0.1-7.2,0.2-8.8c0.1-1.6,0.4-2.6,0.7-3.1S182.6,47.6,183.7,47.6z
		 M188.9,36.3c2.1,0,3.7,0.4,4.8,1.3c1.1,0.8,1.6,2,1.6,3.5c0,3.5-2.3,5.2-6.9,5.2c-1.9,0-3.4-0.4-4.8-1.2c-1.3-0.8-2-2-2-3.6
		C181.6,38,184,36.3,188.9,36.3z"/>
	<path class="st4" d="M212.4,65.6c0-0.9-0.4-1.6-1.1-2.1c-0.8-0.5-1.7-0.9-2.7-1.2c-1.1-0.3-2.2-0.6-3.2-1c-1.1-0.4-2-1-2.8-1.9
		c-0.8-0.9-1.1-2.1-1.1-3.6c0-6,4.6-8.9,13.9-8.9c4,0,7.2,0.7,9.6,2c0.8,0.4,1.3,0.8,1.6,1.2c0.3,0.4,0.5,1,0.5,1.9
		c0,0.9-0.2,1.6-0.6,2.1c-0.4,0.5-0.7,0.7-1.1,0.7c-0.4,0-1.2-0.4-2.4-1.1c-1.2-0.7-2.5-1.1-3.8-1.1c-1.1,0-1.6,0.5-1.6,1.6
		c0,0.7,0.4,1.3,1.1,1.7c0.7,0.4,1.6,0.8,2.7,1.1c1.1,0.3,2.1,0.7,3.2,1.1c1.1,0.4,2,1.2,2.7,2.2c0.7,1,1.1,2.3,1.1,3.8
		c0,6-4.6,8.9-13.9,8.9c-4.5,0-8.2-0.7-11-2c-0.9-0.4-1.5-0.7-1.9-1.1c-0.4-0.4-0.6-1-0.6-2s0.2-1.7,0.6-2.1c0.4-0.4,0.7-0.6,1-0.6
		s1.2,0.4,2.8,1.1c1.6,0.7,3.2,1.1,4.8,1.1S212.4,66.7,212.4,65.6z"/>
	<path class="st4" d="M243.6,65.6c0-0.9-0.4-1.6-1.1-2.1c-0.8-0.5-1.7-0.9-2.7-1.2c-1.1-0.3-2.2-0.6-3.2-1c-1.1-0.4-2-1-2.8-1.9
		c-0.8-0.9-1.1-2.1-1.1-3.6c0-6,4.6-8.9,13.9-8.9c4,0,7.2,0.7,9.6,2c0.8,0.4,1.3,0.8,1.6,1.2c0.3,0.4,0.5,1,0.5,1.9
		c0,0.9-0.2,1.6-0.6,2.1c-0.4,0.5-0.7,0.7-1.1,0.7c-0.4,0-1.2-0.4-2.4-1.1c-1.2-0.7-2.5-1.1-3.8-1.1c-1.1,0-1.6,0.5-1.6,1.6
		c0,0.7,0.4,1.3,1.1,1.7c0.7,0.4,1.6,0.8,2.7,1.1c1.1,0.3,2.1,0.7,3.2,1.1c1.1,0.4,2,1.2,2.7,2.2c0.7,1,1.1,2.3,1.1,3.8
		c0,6-4.6,8.9-13.9,8.9c-4.5,0-8.2-0.7-11-2c-0.9-0.4-1.5-0.7-1.9-1.1c-0.4-0.4-0.6-1-0.6-2s0.2-1.7,0.6-2.1c0.4-0.4,0.7-0.6,1-0.6
		s1.2,0.4,2.8,1.1c1.6,0.7,3.2,1.1,4.8,1.1S243.6,66.7,243.6,65.6z"/>
</g>
<ellipse class="st5" cx="184.4" cy="220.9" rx="145" ry="42.1"/>
<g>
	<path class="st6" d="M165.7,208.7l39.7,13.2c0,0,7,3.8,12.6,1.5c5.6-2.3,9.1-9.9,8.8-16.7c-0.3-6.7-2.8-24-18.2-37.6
		c-14-12.4-23-21.8-44.6-27.6c-17.2-4.6-12.6-2.3-12.6-2.3l13.2,49.4L165.7,208.7z"/>
	<path class="st7" d="M151.3,139.2c0,0,38.9,24.8,45.6,44.4c6.7,19.6,12,39.2,12,39.2l-43.3-14L149,140.9L151.3,139.2z"/>
	<path class="st8" d="M165.4,242c0,0-67.8,7.3-93.2-16.4s-7-65.5,0.3-72.8s38-26.9,81-26.9s65.5,12,70.4,16.4
		c5,4.4,19.3,20.5,18.1,41.2c-1.2,20.7-5.8,33.3-21,38.6c0,0,7.6-6.5,6.5-20c-1-13.1-6.4-25.1-32.1-46c-16.3-13.3-43.9-17-43.9-17
		s11.1,37.7,12.9,47.3c1.8,9.6,2.3,55.2,2.3,55.2L165.4,242z"/>
	<path class="st9" d="M94.6,151.5c0,0,7.9-3.2,24.3,2.3c16.4,5.6,20.7,18.1,19.6,24.5s-28.1,3.2-34.2-2.6
		c-6.1-5.8-22.8-6.4-20.2-13.4C86.8,155.3,94.6,151.5,94.6,151.5z"/>
	<path class="st10" d="M67.2,163.4c0,0-1.5,15.5,17.8,24.3c18.3,8.3,43.3,10.5,58.4,7.6c15.2-2.9,20.5-5.6,20.5-5.6l1.5,52.3
		c0,0-47.6,3.5-68.1-4.1s-34.2-17.8-37.4-32.4C56.7,190.9,63.1,173.1,67.2,163.4z"/>
	<path class="st10" d="M210.5,169.5c0,0,3.1-2.8,7.5-11.6c4.4-8.8,2.9-17.2,2.9-17.2s13.7,11.7,16.4,20.2c2.6,8.5,6.1,20.7,4.7,29.7
		c-1.5,10.1-2.7,16.5-7.7,21.5s-13.4,10.2-13.4,10.2s7.8-3.6,6.3-20C225.8,185.8,210.5,169.5,210.5,169.5z"/>
	<path class="st11" d="M63.1,201.7c4.4,8.8,14,23.4,39.5,29.8s54.4,4.1,54.4,4.1"/>
	<path class="st11" d="M229.7,205.8c0,0,6.5-1.4,8.3-14.9s0.7-14.9,0.7-14.9"/>
	<ellipse class="st12" cx="174.1" cy="168" rx="5" ry="7.1"/>
	<ellipse class="st13" cx="175.7" cy="168.1" rx="3" ry="6.4"/>
	<ellipse class="st12" cx="187.4" cy="204.3" rx="3.1" ry="3.8"/>
	<ellipse class="st13" cx="188.6" cy="204.4" rx="1.9" ry="3.5"/>
	<ellipse class="st12" cx="201.6" cy="191.6" rx="5.3" ry="6.9"/>
	<ellipse class="st13" cx="203.4" cy="191.7" rx="3.5" ry="6.6"/>
	<ellipse class="st12" cx="214.8" cy="216.5" rx="2.3" ry="3.4"/>
	<ellipse class="st13" cx="215.7" cy="216.5" rx="1.3" ry="3.1"/>
	<ellipse class="st12" cx="195.5" cy="172.1" rx="4.7" ry="5.7"/>
	<ellipse class="st13" cx="197.2" cy="172.2" rx="2.9" ry="5.1"/>
	<ellipse class="st12" cx="180.4" cy="190.3" rx="3.7" ry="6.1"/>
	<ellipse class="st13" cx="181.6" cy="190.4" rx="2.5" ry="5.8"/>
	<ellipse class="st12" cx="200.1" cy="213.6" rx="2" ry="3.4"/>
	<ellipse class="st13" cx="201" cy="213.6" rx="1.2" ry="2.9"/>
	<ellipse class="st12" cx="218" cy="202.2" rx="1.8" ry="3.4"/>
	<ellipse class="st13" cx="218.6" cy="202" rx="0.9" ry="3"/>
	<ellipse class="st12" cx="171.9" cy="201.7" rx="1.6" ry="2.3"/>
	<ellipse class="st13" cx="172.6" cy="201.7" rx="1" ry="2"/>
	<ellipse class="st12" cx="164.2" cy="151.6" rx="2.9" ry="3.7"/>
	<ellipse class="st13" cx="164.9" cy="151.9" rx="2.1" ry="3.4"/>
</g>
<g>
	<path class="st14" d="M211.2,201.9"/>
	<path class="st15" d="M227.6,249.7l-0.1-1.1l-3.4-49.3l59.9-5.9c0,0,5.8-0.3,9.2,4c3.4,4.3,4.1,5,4.4,10.4c0.3,7.2,0.2,7.2,0.2,7.2
		l-0.1,8.9c0,0,0.5,6-2.9,9.6c-3.4,3.6-4.5,4.7-7,5.3s-58.7,10.9-58.7,10.9l-0.9,0.1"/>
	<path class="st13" d="M211.5,228c0,0,6.3-2.7,6.8,1.5s-6,6.3-6,6.3l0.5,6.8c0,0,2-0.9,2.2,1.2c0.2,3-2.2,2.8-2.2,2.8l0.4,5.5
		l12.3-3.5l-2.9-50.2l-3,0.4l-9.8,1.4l0.3,4.6c0,0,3,0.7,3.6,4c0.5,3.3-2.8,6.7-2.8,6.7L211.5,228z"/>
	<path class="st16" d="M212,227.7c0,0,8.7-2.6,9.3,1.7c0.6,4.3-8.4,6.1-8.4,6.1l0.5,6.8c0,0,2.8-0.9,2.9,1.3c0.2,3-3.1,2.8-3.1,2.8
		l0.5,5.5l17-3.1l-2.8-50.3l-4.2,0.4l-13.5,1.1l0.3,4.6c0,0,4.2,0.7,4.8,4.1s-4,6.7-4,6.7L212,227.7z"/>
	<path class="st17" d="M256.6,184.1c0,0,6.8-2.4,14.4,0.9s10.4,4.6,10.4,4.6"/>
	<path class="st18" d="M254.3,181.5l-43.2,18.9l68.3-7.6c0,0,8.9-0.9,12.6,2.2c3.7,3,5,8.2,5,8.2s-0.2-7.1-6.4-11.6
		s-15.9-9.6-23.4-10.3C259.7,180.5,254.3,181.5,254.3,181.5z"/>
	<path class="st15" d="M212.8,228.1"/>
	<line class="st15" x1="210.9" y1="200.9" x2="228.8" y2="198.9"/>
	<line class="st15" x1="214.5" y1="252.3" x2="231.5" y2="249.1"/>
	<ellipse class="st12" cx="230.5" cy="210.8" rx="4" ry="6.7"/>
	<ellipse class="st13" cx="231.8" cy="210.9" rx="2.4" ry="6.1"/>
	<ellipse class="st12" cx="252.4" cy="233.2" rx="4.2" ry="6.5"/>
	<ellipse class="st13" cx="253.8" cy="233.2" rx="2.8" ry="6.3"/>
	<ellipse class="st12" cx="247.5" cy="214.6" rx="3.7" ry="5.4"/>
	<ellipse class="st13" cx="248.9" cy="214.8" rx="2.3" ry="4.8"/>
	<ellipse class="st12" cx="235.9" cy="231.8" rx="3.1" ry="4.3"/>
	<ellipse class="st13" cx="237" cy="231.9" rx="1.9" ry="3.8"/>
	<ellipse class="st12" cx="225" cy="242" rx="2.2" ry="2.6"/>
	<ellipse class="st13" cx="225.9" cy="242" rx="1.4" ry="2.3"/>
	<ellipse class="st12" cx="262.5" cy="203.5" rx="2" ry="3.2"/>
	<ellipse class="st13" cx="263.3" cy="203.6" rx="1.3" ry="2.8"/>
	<ellipse class="st12" cx="272" cy="219.2" rx="3.7" ry="6.3"/>
	<ellipse class="st13" cx="273.4" cy="219.4" rx="2.3" ry="5.6"/>
	<ellipse class="st12" cx="286.1" cy="228.5" rx="2.5" ry="4.3"/>
	<ellipse class="st13" cx="287" cy="228.6" rx="1.5" ry="3.8"/>
	<ellipse class="st12" cx="289.3" cy="209.8" rx="3.3" ry="5.4"/>
	<ellipse class="st13" cx="290.5" cy="210" rx="2.1" ry="4.8"/>
	<ellipse class="st12" cx="278.6" cy="202.8" rx="1.9" ry="3.4"/>
	<ellipse class="st13" cx="279.3" cy="202.9" rx="1.2" ry="3"/>
	<ellipse class="st12" cx="268.4" cy="235.2" rx="1.7" ry="2.7"/>
	<ellipse class="st13" cx="269.1" cy="235.3" rx="1.1" ry="2.4"/>
</g>
</svg>
